<svg version="1.1" id="Layer_1" xmlns="http://www.w3.org/2000/svg" xmlns:xlink="http://www.w3.org/1999/xlink" x="0px" y="0px"
	 width="100%" viewBox="0 0 570 282" enable-background="new 0 0 570 282" xml:space="preserve">
<path fill="#FEFEFF" opacity="1.000000" stroke="none" 
	d="
M422.000000,283.000000 
	C281.333374,283.000000 141.166748,283.000000 1.000094,283.000000 
	C1.000063,189.000076 1.000063,95.000137 1.000031,1.000157 
	C190.999878,1.000105 380.999756,1.000105 570.999756,1.000052 
	C570.999817,94.999847 570.999817,188.999695 570.999878,282.999756 
	C521.500000,283.000000 472.000000,283.000000 422.000000,283.000000 
M223.902252,61.614037 
	C224.267822,61.943947 224.633408,62.273853 225.539322,63.098427 
	C226.621216,64.942055 227.598480,66.857269 228.802551,68.617317 
	C235.051926,77.752174 241.310364,86.881638 247.661163,95.946060 
	C253.079239,103.679192 258.626617,111.321732 264.013977,119.636246 
	C264.626007,120.464783 265.238037,121.293320 265.994324,122.095192 
	C265.994324,122.095192 265.857788,122.150200 265.976196,122.827744 
	C267.957001,125.262306 269.937836,127.696861 271.946960,130.039154 
	C271.946960,130.039154 271.860687,130.082428 271.922760,130.817383 
	C273.327911,133.061783 274.733093,135.306168 276.317688,137.732178 
	C276.317688,137.732178 276.538361,137.860504 276.866547,138.352875 
	C277.618103,139.556137 278.369659,140.759415 278.961151,142.736008 
	C278.219116,144.678818 278.037170,147.296478 276.643005,148.453583 
	C268.357025,155.330597 264.995575,165.526505 258.301575,174.171692 
	C254.375443,179.569885 250.323456,184.881805 246.550430,190.384979 
	C239.605530,200.514526 232.824677,210.756561 225.486343,221.292694 
	C225.267899,221.835434 225.049438,222.378159 224.942215,222.941925 
	C224.942215,222.941925 224.865692,222.858536 224.247726,223.137665 
	C222.161942,226.208069 220.076172,229.278458 217.614792,232.901733 
	C231.385574,232.901733 244.274811,232.941040 257.162659,232.824951 
	C258.161957,232.815964 259.151398,231.716660 260.055939,230.985199 
	C260.055939,230.985199 260.129883,231.129776 260.731995,230.838150 
	C261.855255,228.913818 262.978546,226.989471 264.017029,225.003525 
	C264.017029,225.003525 264.074463,225.091171 264.651672,224.756439 
	C265.337219,223.179153 266.022797,221.601852 267.122955,219.429337 
	C268.451752,217.298630 269.780548,215.167923 271.685150,212.820175 
	C271.908051,211.836380 272.130951,210.852600 272.488037,209.408340 
	C272.680115,208.984283 272.872223,208.560226 273.794983,208.040192 
	C275.586609,204.833801 277.378265,201.627411 279.170868,198.325287 
	C279.170868,198.325287 279.266296,198.333344 280.007080,198.405945 
	C283.669495,191.895538 287.331909,185.385132 291.692413,178.824234 
	C293.508148,175.900620 295.323883,172.977005 297.639221,169.927399 
	C297.833038,169.656830 298.026886,169.386276 298.637360,169.111481 
	C298.637360,169.111481 299.005463,168.916275 299.505737,169.113861 
	C299.901642,169.458618 300.297516,169.803375 300.757782,170.815887 
	C301.219910,171.544373 301.682037,172.272873 302.054688,173.633743 
	C302.679230,174.152649 303.303772,174.671555 303.927887,175.622375 
	C303.927887,175.622375 304.104553,176.016525 304.029327,176.572144 
	C304.335266,176.770752 304.641174,176.969360 304.961761,177.599915 
	C304.961761,177.599915 305.125366,177.999924 305.063446,178.701218 
	C307.013153,181.739349 309.056732,184.722031 310.891815,187.827896 
	C314.121155,193.293411 317.120972,198.895981 320.405243,204.327301 
	C324.217285,210.631531 328.232178,216.813126 332.098541,223.573486 
	C332.371887,223.780579 332.645203,223.987656 332.931732,224.051880 
	C332.931732,224.051880 332.788879,224.065140 332.918579,224.669144 
	C333.266510,225.136856 333.614441,225.604568 333.992371,226.007111 
	C333.992371,226.007111 333.925293,226.032608 334.050598,226.660629 
	C334.674561,227.479813 335.298553,228.298981 335.951355,229.030991 
	C335.951355,229.030991 335.866730,229.066589 335.993927,229.681015 
	C336.571472,230.526535 337.149048,231.372040 338.128876,232.756119 
	C338.773376,232.724106 339.417847,232.692108 340.776947,232.767517 
	C341.497101,232.734146 342.217255,232.700775 343.817871,232.935898 
	C346.562866,232.851898 349.307892,232.767899 352.978851,232.771164 
	C359.631927,232.748047 366.285004,232.724930 373.800232,232.957230 
	C376.520660,232.657837 379.241119,232.358444 381.933502,231.381165 
	C380.639191,229.734818 379.344879,228.088470 377.502594,225.965210 
	C373.917511,220.732559 370.279419,215.535278 366.757782,210.260254 
	C358.149200,197.365494 349.666412,184.386215 340.993225,171.535278 
	C334.998749,162.653320 328.646545,154.010361 322.774658,145.050568 
	C321.834045,143.615280 321.775543,140.583511 322.671661,139.129349 
	C328.178314,130.193741 334.029907,121.468376 339.857056,112.733299 
	C346.059357,103.435936 352.321869,94.178032 358.632812,84.954010 
	C364.068390,77.009399 369.609100,69.136681 375.640167,61.041950 
	C375.930267,60.561447 376.220367,60.080944 376.604309,59.463219 
	C376.604309,59.463219 376.700043,59.327278 377.124878,58.861996 
	C378.006561,57.564522 378.888275,56.267044 380.323273,54.155338 
	C366.184052,54.155338 352.984650,54.095844 339.788422,54.273605 
	C338.783722,54.287144 337.801636,55.981838 336.924591,56.931580 
	C336.924591,56.931580 336.852020,56.834515 336.277039,57.125977 
	C335.881714,58.074783 335.486389,59.023590 334.815643,60.632885 
	C332.977203,63.435310 331.097870,66.211937 329.308350,69.045250 
	C324.902313,76.021263 320.537537,83.023346 315.999664,90.477051 
	C315.999664,90.477051 315.872864,90.948204 315.273315,91.078613 
	C314.896667,91.720673 314.520020,92.362740 314.000793,93.434547 
	C314.000793,93.434547 313.958801,93.885384 313.313202,94.176216 
	C309.174896,100.437096 305.036591,106.697975 300.156311,112.959785 
	C299.472595,112.633797 298.486908,112.494057 298.152863,111.952415 
	C295.426910,107.532349 292.953339,102.953674 290.156830,98.580673 
	C281.887421,85.649529 273.505035,72.790619 265.116943,59.222099 
	C264.455200,58.101376 263.793427,56.980652 263.050842,56.010151 
	C263.050842,56.010151 263.156586,55.876003 262.952271,55.068863 
	C261.755096,54.763901 260.559082,54.200470 259.360596,54.195290 
	C250.560883,54.157261 241.760696,54.237339 232.960617,54.266762 
	C228.441101,54.281876 223.921463,54.269409 218.562927,54.269409 
	C220.265030,56.502640 221.356140,57.934216 222.539139,59.376225 
	C222.539139,59.376225 222.516037,59.465790 222.690430,60.010990 
	C223.080246,60.397896 223.470078,60.784798 223.903702,61.075733 
	C223.903702,61.075733 223.802612,61.105907 223.902252,61.614037 
M166.583786,224.998962 
	C166.778992,224.686966 166.974197,224.374969 167.648911,223.905533 
	C167.814377,223.622345 167.979843,223.339157 168.830688,223.010590 
	C170.220215,222.285507 171.609726,221.560425 173.712250,220.761063 
	C179.550888,216.613037 186.101486,213.171356 191.071609,208.161667 
	C199.890121,199.272934 207.259369,189.123581 211.629135,176.446945 
	C213.034988,168.284866 214.440857,160.122803 216.003204,151.043655 
	C215.680832,145.460266 215.143448,139.879272 215.080841,134.292969 
	C214.950516,122.662926 211.556076,111.804977 206.202515,101.809242 
	C194.849731,80.612289 177.386307,66.538452 153.816864,59.236401 
	C146.892059,58.202312 139.967270,57.168224 132.579895,55.979225 
	C132.579895,55.979225 132.093918,55.936806 131.584885,55.229294 
	C108.384537,55.225071 85.184196,55.220852 61.314697,55.674564 
	C61.272461,56.337650 61.193390,57.000729 61.193218,57.663822 
	C61.178486,114.897270 61.167324,172.130722 61.179623,229.364166 
	C61.179859,230.465836 61.461815,231.567459 61.631359,232.808350 
	C86.354179,232.808350 110.790291,232.835114 135.225845,232.730560 
	C136.467590,232.725250 137.704483,231.589111 138.978409,231.012711 
	C138.978409,231.012711 139.001404,230.970490 139.659714,231.099884 
	C140.099411,231.039993 140.539108,230.980103 141.897461,231.018539 
	C144.309402,230.813034 146.721329,230.607544 149.852661,230.347458 
	C155.270096,228.585556 160.687546,226.823654 166.033020,225.030228 
	C166.033020,225.030228 166.028030,225.108627 166.583786,224.998962 
M501.040039,62.943592 
	C501.040039,62.943592 501.128998,62.916374 500.845703,62.260132 
	C491.176697,57.191235 480.817291,55.111221 469.048492,54.990189 
	C447.783295,54.990219 426.518005,54.970013 405.252991,55.034512 
	C403.791290,55.038944 402.331512,55.676319 400.678986,56.743629 
	C400.730316,57.737041 400.781616,58.730453 400.555847,60.064529 
	C400.650665,60.467865 400.745483,60.871197 400.681274,61.866589 
	C400.732574,62.471985 400.783905,63.077377 400.507812,64.479393 
	C400.468353,117.941566 400.426971,171.403732 400.407806,224.865906 
	C400.407532,225.677460 400.682556,226.489105 400.667603,227.760239 
	C400.615417,228.092987 400.665161,228.409729 400.531158,229.055878 
	C400.509064,229.203308 400.437592,229.364960 400.475128,229.495224 
	C400.553711,229.768127 400.689667,230.024506 400.636230,230.901398 
	C400.732483,231.304565 400.828705,231.707718 401.413635,232.816696 
	C412.410370,232.850037 423.407135,232.902847 434.403748,232.877197 
	C435.223907,232.875290 436.042755,232.311386 437.014130,231.076401 
	C436.993896,211.701797 436.973663,192.327209 437.773651,172.437531 
	C449.866882,172.301773 461.967224,172.358490 474.049133,171.914581 
	C477.740540,171.778946 481.381348,170.267639 485.962891,169.199341 
	C500.131134,166.572998 511.508209,159.395264 520.114502,147.916351 
	C525.816650,140.310913 527.936523,131.550385 529.294861,122.153099 
	C531.272949,108.467827 529.828613,95.282448 522.855286,83.844597 
	C518.153381,76.132393 510.072632,70.480186 503.241394,63.399002 
	C502.505585,63.216259 501.769806,63.033520 501.040039,62.943592 
z"/>
<path fill="#0156C7" opacity="1.000000" stroke="none" 
	d="
M503.503357,63.906479 
	C510.072632,70.480186 518.153381,76.132393 522.855286,83.844597 
	C529.828613,95.282448 531.272949,108.467827 529.294861,122.153099 
	C527.936523,131.550385 525.816650,140.310913 520.114502,147.916351 
	C511.508209,159.395264 500.131134,166.572998 485.300201,169.534485 
	C479.402344,170.210312 474.167206,170.550980 468.633179,170.616302 
	C461.274475,170.228455 454.214020,170.011993 447.155029,170.052170 
	C444.120789,170.069427 441.089600,170.619247 437.797546,170.956055 
	C437.364441,170.996368 437.190796,171.007751 436.666504,171.207031 
	C435.876831,173.073517 435.064423,174.750275 435.056213,176.430969 
	C434.970551,193.960159 435.013977,211.489944 434.926239,229.416534 
	C433.334930,230.216339 431.843018,230.948608 430.342346,230.967148 
	C422.210022,231.067627 414.075500,230.991638 405.726074,230.704926 
	C404.356873,228.631882 403.203339,226.830353 402.031128,224.581421 
	C402.026550,221.744354 402.040619,219.354660 402.341187,216.669678 
	C402.752533,214.396927 402.985596,212.419510 402.986420,210.442017 
	C403.006744,162.185776 403.029266,113.929497 402.948669,65.673401 
	C402.942566,62.028931 402.938477,58.624741 406.337708,56.040894 
	C407.136719,56.039322 407.593384,56.059227 408.347168,56.359596 
	C409.288818,56.758057 409.933228,56.978447 410.577881,56.979156 
	C429.462738,57.000015 448.347656,57.016052 467.232361,56.962387 
	C468.466949,56.958878 469.699921,56.394573 471.348328,56.076866 
	C480.727905,58.295231 489.690155,60.538654 498.662323,62.741653 
	C499.451294,62.935379 500.305237,62.864407 501.128998,62.916374 
	C501.128998,62.916374 501.040039,62.943592 501.146484,63.180893 
	C502.003082,63.580956 502.753235,63.743717 503.503357,63.906479 
M437.505554,142.533340 
	C447.940826,142.686462 458.375854,142.868896 468.811676,142.947800 
	C469.865814,142.955750 470.924652,142.338531 472.786896,141.965637 
	C485.564301,140.113525 492.234741,132.110809 495.509979,119.494301 
	C495.646667,115.877724 496.382935,112.152931 495.755096,108.674355 
	C495.099304,105.040924 493.130493,101.644478 491.160248,97.753990 
	C488.514618,90.009323 481.130493,89.310616 474.788727,86.101746 
	C472.532257,85.727806 470.275787,85.353874 467.583282,84.470993 
	C466.711487,84.303162 465.839661,84.135330 464.383423,83.382729 
	C457.285065,83.254852 450.186584,83.040588 443.088470,83.053703 
	C441.057434,83.057449 439.027588,83.719582 437.040497,84.473312 
	C437.040497,84.473312 437.074463,84.867722 436.648682,85.147026 
	C436.442078,85.407425 436.235474,85.667824 435.992523,86.511108 
	C435.965515,86.703896 435.938538,86.896675 435.356934,87.678307 
	C435.247009,88.326897 435.050842,88.974007 435.039764,89.624283 
	C434.776550,105.045105 434.503143,120.465973 434.356018,135.888031 
	C434.346466,136.886978 435.336945,137.895477 435.937683,139.615021 
	C436.342773,140.411148 436.747864,141.207275 436.995758,142.011078 
	C436.995758,142.011078 436.984650,141.854141 437.505554,142.533340 
z"/>
<path fill="#025BCC" opacity="1.000000" stroke="none" 
	d="
M258.947540,173.882233 
	C264.995575,165.526505 268.357025,155.330597 276.643005,148.453583 
	C278.037170,147.296478 278.219116,144.678818 279.293335,142.111557 
	C279.974335,140.161392 280.323151,138.835693 280.887604,136.690536 
	C278.892303,137.227280 277.715332,137.543900 276.538361,137.860504 
	C276.538361,137.860504 276.317688,137.732178 276.410339,137.289642 
	C274.955597,134.592224 273.408142,132.337326 271.860687,130.082428 
	C271.860687,130.082428 271.946960,130.039154 271.927795,129.719940 
	C269.891663,126.983871 267.874725,124.567039 265.857788,122.150200 
	C265.857788,122.150200 265.994324,122.095192 265.967163,121.755440 
	C265.332245,120.611916 264.724518,119.808136 264.116791,119.004356 
	C258.626617,111.321732 253.079239,103.679192 247.661163,95.946060 
	C241.310364,86.881638 235.051926,77.752174 228.802551,68.617317 
	C227.598480,66.857269 226.621216,64.942055 225.247711,62.583839 
	C224.571625,61.748138 224.187119,61.427021 223.802612,61.105904 
	C223.802612,61.105907 223.903702,61.075733 223.892212,60.787659 
	C223.425842,60.154984 222.970932,59.810387 222.516037,59.465790 
	C222.516037,59.465790 222.539139,59.376225 222.655151,59.013878 
	C223.201035,57.772804 223.630890,56.894077 224.343475,56.314816 
	C235.008438,56.742619 245.390488,56.899529 255.773087,56.955551 
	C256.823578,56.961220 257.877380,56.358322 259.351929,56.013714 
	C260.901672,55.951725 262.029114,55.913864 263.156586,55.876003 
	C263.156586,55.876003 263.050842,56.010151 263.045715,56.297997 
	C263.749298,57.691708 264.458069,58.797577 265.166840,59.903442 
	C273.505035,72.790619 281.887421,85.649529 290.156830,98.580673 
	C292.953339,102.953674 295.426910,107.532349 298.152863,111.952415 
	C298.486908,112.494057 299.472595,112.633797 300.977539,112.972260 
	C309.525543,114.432373 314.573853,109.905533 318.286530,104.394112 
	C321.359283,99.832687 315.157990,97.553764 313.958801,93.885384 
	C313.958801,93.885384 314.000793,93.434547 314.414490,93.212845 
	C315.553619,92.329025 316.279053,91.666916 317.380676,91.012177 
	C318.391174,91.877808 319.200348,92.660576 319.612274,93.614822 
	C320.054901,94.640030 319.844604,96.005142 320.418396,96.902908 
	C321.436310,98.495605 321.545624,107.901649 319.967957,108.616989 
	C314.877991,110.924843 317.766144,113.374161 319.462280,116.002914 
	C320.285614,117.278900 321.271088,118.726311 321.360168,120.147690 
	C321.615417,124.220070 321.450012,128.318817 321.450012,132.359680 
	C314.960663,136.141205 314.492493,141.293381 319.663208,146.589264 
	C320.761963,147.714615 321.459167,150.990845 320.708221,151.852081 
	C317.804382,155.182388 319.110809,156.829391 322.052673,158.985748 
	C324.810913,161.007538 327.166260,163.653030 326.522583,169.109879 
	C324.267700,166.979202 322.954193,165.738052 321.095581,163.981812 
	C321.095581,165.716461 321.107758,166.681458 321.093384,167.646042 
	C321.045135,170.888351 321.236755,174.166840 320.772797,177.349335 
	C320.643036,178.239548 317.660645,179.630173 317.521332,179.468552 
	C314.188293,175.601578 311.553497,177.508698 309.453339,180.127258 
	C307.770996,179.300339 306.448181,178.650131 305.125366,177.999924 
	C305.125366,177.999924 304.961761,177.599915 304.885437,177.145538 
	C304.657318,176.379517 304.422485,176.154648 304.104553,176.016525 
	C304.104553,176.016525 303.927887,175.622375 303.919922,175.079666 
	C303.322693,174.025085 302.733429,173.513229 302.144165,173.001373 
	C301.682037,172.272873 301.219910,171.544373 301.000305,170.318909 
	C301.075378,169.057236 300.907990,168.292511 300.740570,167.527802 
	C300.162201,167.990631 299.583832,168.453461 299.005463,168.916275 
	C299.005463,168.916275 298.637360,169.111481 298.127258,168.923737 
	C296.687378,168.265442 295.757599,167.794876 294.827820,167.324310 
	C294.551880,168.216003 294.275940,169.107697 293.593201,170.014160 
	C288.783691,172.067551 292.023529,176.000107 290.994324,178.874725 
	C287.331909,185.385132 283.669495,191.895538 279.544617,197.970108 
	C279.037872,195.804901 278.848785,194.064484 278.979828,192.348511 
	C279.243256,188.899780 278.247345,186.400635 273.965149,185.148529 
	C275.679077,190.029892 273.358917,195.691101 279.169922,198.421036 
	C277.378265,201.627411 275.586609,204.833801 273.217224,207.798126 
	C270.505402,206.632019 268.104828,205.961746 269.555573,202.658325 
	C269.881653,201.915802 269.390839,200.819824 269.292725,199.884827 
	C268.443756,191.798126 261.351959,184.587875 265.881104,175.719437 
	C266.007050,175.472839 265.535645,174.921173 265.178772,174.163574 
	C264.110107,175.533478 263.211182,176.685760 262.047485,178.177505 
	C260.831085,176.492081 259.889313,175.187149 258.947540,173.882233 
M301.798096,163.391907 
	C301.793884,163.785904 301.789673,164.179916 301.785461,164.573914 
	C301.948975,164.575455 302.254608,164.587967 302.255463,164.576950 
	C302.285675,164.184875 302.287415,163.790604 301.798096,163.391907 
z"/>
<path fill="#0262D2" opacity="1.000000" stroke="none" 
	d="
M211.059998,176.868820 
	C207.259369,189.123581 199.890121,199.272934 191.071609,208.161667 
	C186.101486,213.171356 179.550888,216.613037 173.279785,220.458725 
	C166.123016,218.507278 169.612289,214.128036 171.220764,210.359268 
	C160.943619,211.944717 160.943619,211.944717 163.280685,216.098358 
	C162.557785,217.736862 161.889648,219.083649 161.427979,220.497849 
	C161.366379,220.686508 162.737442,221.593811 162.795334,221.534485 
	C165.562714,218.697647 166.203644,223.204941 168.145294,223.055969 
	C167.979843,223.339157 167.814377,223.622345 167.145157,224.065277 
	C166.436951,224.519562 166.232498,224.814102 166.028046,225.108643 
	C166.028030,225.108627 166.033020,225.030228 165.663208,225.017395 
	C164.213730,225.011505 163.134094,225.018433 161.657410,225.017365 
	C157.279068,223.516953 153.244034,222.144531 149.370972,220.410370 
	C148.748535,220.131653 148.248322,217.765961 148.716324,217.170898 
	C151.109970,214.127182 153.839523,211.347595 156.657410,208.249405 
	C152.504196,203.225037 159.385147,204.103043 161.350159,201.283173 
	C159.915741,199.167725 158.413071,196.951614 157.098907,194.450867 
	C163.717484,190.304550 168.458878,184.840134 171.515152,178.098175 
	C174.032730,172.544479 175.942337,166.715195 178.390305,160.732819 
	C179.080246,151.545181 179.725983,142.634125 179.780014,133.719482 
	C179.795441,131.173782 178.094833,128.617676 177.060669,125.661880 
	C176.272339,122.625397 175.858810,119.895935 174.893967,117.377701 
	C169.895798,104.332520 160.912689,95.122215 147.869537,89.547379 
	C145.548965,88.146477 143.274765,87.087273 141.006104,85.646515 
	C142.177689,83.610535 143.297607,81.920769 144.527267,80.315041 
	C145.253586,79.366615 146.743927,78.633522 146.879349,77.662537 
	C147.741776,71.479179 148.322708,65.256561 149.351013,59.170044 
	C151.176712,59.501282 152.647751,59.709351 154.118805,59.917419 
	C177.386307,66.538452 194.849731,80.612289 206.202515,101.809242 
	C211.556076,111.804977 214.950516,122.662926 215.080841,134.292969 
	C215.143448,139.879272 215.680832,145.460266 215.598877,151.715546 
	C213.816376,160.547913 212.438187,168.708359 211.059998,176.868820 
z"/>
<path fill="#0358C8" opacity="1.000000" stroke="none" 
	d="
M305.094421,178.350571 
	C306.448181,178.650131 307.770996,179.300339 309.453339,180.127258 
	C311.553497,177.508698 314.188293,175.601578 317.521332,179.468552 
	C317.660645,179.630173 320.643036,178.239548 320.772797,177.349335 
	C321.236755,174.166840 321.045135,170.888351 321.093384,167.646042 
	C321.107758,166.681458 321.095581,165.716461 321.095581,163.981812 
	C322.954193,165.738052 324.267700,166.979202 326.522583,169.109879 
	C327.166260,163.653030 324.810913,161.007538 322.052673,158.985748 
	C319.110809,156.829391 317.804382,155.182388 320.708221,151.852081 
	C321.459167,150.990845 320.761963,147.714615 319.663208,146.589264 
	C314.492493,141.293381 314.960663,136.141205 321.450012,132.359680 
	C321.450012,128.318817 321.615417,124.220070 321.360168,120.147690 
	C321.271088,118.726311 320.285614,117.278900 319.462280,116.002914 
	C317.766144,113.374161 314.877991,110.924843 319.967957,108.616989 
	C321.545624,107.901649 321.436310,98.495605 320.418396,96.902908 
	C319.844604,96.005142 320.054901,94.640030 319.612274,93.614822 
	C319.200348,92.660576 318.391174,91.877808 317.378174,91.009567 
	C316.999451,90.999580 316.993958,90.995148 316.909058,90.789719 
	C316.662415,90.323013 316.439758,90.133232 316.156158,90.014938 
	C320.537537,83.023346 324.902313,76.021263 329.308350,69.045250 
	C331.097870,66.211937 332.977203,63.435310 335.295349,60.235138 
	C336.134064,58.836437 336.493042,57.835476 336.852020,56.834515 
	C336.852020,56.834515 336.924591,56.931580 337.164551,56.834129 
	C337.972321,56.510185 338.540161,56.283691 339.384186,56.355125 
	C348.701996,56.768562 357.745239,56.816261 366.784271,57.037098 
	C369.865540,57.112381 372.936188,57.623055 376.147644,58.300781 
	C376.422424,58.886940 376.561249,59.107109 376.700043,59.327278 
	C376.700043,59.327278 376.604309,59.463219 376.225220,59.488094 
	C375.598511,60.086037 375.350891,60.659103 375.103302,61.232170 
	C369.609100,69.136681 364.068390,77.009399 358.632812,84.954010 
	C352.321869,94.178032 346.059357,103.435936 339.857056,112.733299 
	C334.029907,121.468376 328.178314,130.193741 322.671661,139.129349 
	C321.775543,140.583511 321.834045,143.615280 322.774658,145.050568 
	C328.646545,154.010361 334.998749,162.653320 340.993225,171.535278 
	C349.666412,184.386215 358.149200,197.365494 366.757782,210.260254 
	C370.279419,215.535278 373.917511,220.732559 377.807312,226.607635 
	C378.442993,230.409836 376.793823,231.089081 373.946106,231.050354 
	C364.360596,230.919983 354.768188,231.160461 345.187042,230.917770 
	C342.066650,230.838730 338.972748,229.713394 335.866730,229.066589 
	C335.866730,229.066589 335.951355,229.030991 335.974670,228.705292 
	C335.307098,227.597260 334.616180,226.814926 333.925293,226.032608 
	C333.925293,226.032608 333.992371,226.007111 333.974762,225.714783 
	C333.567719,224.970001 333.178314,224.517578 332.788879,224.065140 
	C332.788879,224.065140 332.931732,224.051880 332.870056,223.888153 
	C332.689514,223.405258 332.473053,223.179764 332.159027,223.047943 
	C328.232178,216.813126 324.217285,210.631531 320.405243,204.327301 
	C317.120972,198.895981 314.121155,193.293411 310.891815,187.827896 
	C309.056732,184.722031 307.013153,181.739349 305.094421,178.350571 
z"/>
<path fill="#035ECE" opacity="1.000000" stroke="none" 
	d="
M258.624573,174.026962 
	C259.889313,175.187149 260.831085,176.492081 262.047485,178.177505 
	C263.211182,176.685760 264.110107,175.533478 265.178772,174.163574 
	C265.535645,174.921173 266.007050,175.472839 265.881104,175.719437 
	C261.351959,184.587875 268.443756,191.798126 269.292725,199.884827 
	C269.390839,200.819824 269.881653,201.915802 269.555573,202.658325 
	C268.104828,205.961746 270.505402,206.632019 272.851898,207.846100 
	C272.872223,208.560226 272.680115,208.984283 272.063660,209.694397 
	C270.895630,210.617599 270.151947,211.254761 269.408264,211.891907 
	C269.975281,212.273682 270.542328,212.655457 271.109344,213.037216 
	C269.780548,215.167923 268.451752,217.298630 266.567871,219.777542 
	C265.366669,221.780899 264.720581,223.436035 264.074463,225.091171 
	C264.074463,225.091171 264.017029,225.003525 263.694672,225.048538 
	C262.291504,227.105621 261.210693,229.117691 260.129883,231.129776 
	C260.129883,231.129776 260.055939,230.985199 259.623352,231.012482 
	C246.972229,231.039749 234.753693,231.039749 222.094772,231.039749 
	C223.207016,227.755814 224.036346,225.307175 224.865692,222.858536 
	C224.865692,222.858536 224.942215,222.941925 225.173248,222.803833 
	C225.594681,222.094406 225.785080,221.523071 225.975464,220.951721 
	C232.824677,210.756561 239.605530,200.514526 246.550430,190.384979 
	C250.323456,184.881805 254.375443,179.569885 258.624573,174.026962 
z"/>
<path fill="#0164D4" opacity="1.000000" stroke="none" 
	d="
M156.910416,194.735504 
	C158.413071,196.951614 159.915741,199.167725 161.350159,201.283173 
	C159.385147,204.103043 152.504196,203.225037 156.657410,208.249405 
	C153.839523,211.347595 151.109970,214.127182 148.716324,217.170898 
	C148.248322,217.765961 148.748535,220.131653 149.370972,220.410370 
	C153.244034,222.144531 157.279068,223.516953 161.414398,225.288559 
	C157.423355,227.179184 153.278320,228.790604 149.133270,230.402039 
	C146.721329,230.607544 144.309402,230.813034 141.280548,230.769440 
	C140.109543,230.670395 139.555481,230.820435 139.001404,230.970490 
	C139.001404,230.970490 138.978409,231.012711 138.528809,230.986206 
	C136.055069,230.981735 134.030914,231.003769 131.715317,230.723083 
	C124.125572,230.420349 116.827263,230.420349 109.528961,230.420349 
	C109.446121,229.595657 109.363281,228.770981 109.280441,227.946289 
	C114.023109,227.133621 118.765785,226.320953 123.670296,225.480560 
	C124.056610,221.764847 125.461632,217.782089 118.871475,218.307236 
	C119.370613,213.071930 119.751709,207.918259 112.896225,204.825760 
	C118.408012,204.061417 122.203400,203.535095 126.365906,203.005646 
	C127.827454,202.668060 128.921875,202.333633 130.293671,201.993301 
	C130.755508,201.974167 130.939987,201.960922 131.355591,201.964203 
	C131.586746,201.980728 132.022873,202.137527 132.108917,202.284637 
	C132.452103,202.338089 132.709229,202.244431 133.372437,202.074432 
	C141.489151,199.577225 149.199783,197.156357 156.910416,194.735504 
z"/>
<path fill="#3470CB" opacity="1.000000" stroke="none" 
	d="
M132.006760,231.025787 
	C134.030914,231.003769 136.055069,230.981735 138.511429,230.969604 
	C137.704483,231.589111 136.467590,232.725250 135.225845,232.730560 
	C110.790291,232.835114 86.354179,232.808350 61.631359,232.808350 
	C61.461815,231.567459 61.179859,230.465836 61.179623,229.364166 
	C61.167324,172.130722 61.178486,114.897270 61.193218,57.663822 
	C61.193390,57.000729 61.272461,56.337650 61.695332,55.727695 
	C62.365337,56.244144 62.654705,56.707462 62.947807,57.619164 
	C62.952503,76.400528 62.954338,94.733505 62.954250,113.066483 
	C62.954079,150.565781 63.027500,188.065430 62.852760,225.563919 
	C62.832123,229.992325 64.041260,231.317627 68.461990,231.152649 
	C77.616020,230.811066 86.790993,231.030624 96.428436,231.036987 
	C108.601936,231.044983 120.304352,231.035385 132.006760,231.025787 
z"/>
<path fill="#003092" opacity="1.000000" stroke="none" 
	d="
M402.054688,216.964981 
	C402.040619,219.354660 402.026550,221.744354 402.011444,225.006256 
	C402.058472,227.585709 402.106506,229.292938 402.020447,231.253021 
	C401.565857,231.707520 401.245422,231.909195 400.924957,232.110886 
	C400.828705,231.707718 400.732483,231.304565 400.803436,230.200836 
	C400.919373,229.237030 400.868103,228.973755 400.816803,228.710480 
	C400.665161,228.409729 400.615417,228.092987 400.866821,227.049530 
	C401.093384,172.941833 401.122162,119.544868 401.135040,66.147903 
	C401.135254,65.326218 400.939484,64.504486 400.835205,63.682774 
	C400.783905,63.077377 400.732574,62.471985 400.836121,61.182198 
	C400.938293,60.239826 400.885620,59.981846 400.832947,59.723866 
	C400.781616,58.730453 400.730316,57.737041 401.081299,56.390068 
	C401.687775,56.044510 401.891937,56.052513 402.060791,56.522537 
	C402.035217,110.311363 402.044952,163.638168 402.054688,216.964981 
z"/>
<path fill="#0358C8" opacity="1.000000" stroke="none" 
	d="
M313.635986,94.030800 
	C315.157990,97.553764 321.359283,99.832687 318.286530,104.394112 
	C314.573853,109.905533 309.525543,114.432373 301.348511,112.971786 
	C305.036591,106.697975 309.174896,100.437096 313.635986,94.030800 
z"/>
<path fill="#2556B9" opacity="1.000000" stroke="none" 
	d="
M400.671509,64.081085 
	C400.939484,64.504486 401.135254,65.326218 401.135040,66.147903 
	C401.122162,119.544868 401.093384,172.941833 400.947571,226.819763 
	C400.682556,226.489105 400.407532,225.677460 400.407806,224.865906 
	C400.426971,171.403732 400.468353,117.941566 400.671509,64.081085 
z"/>
<path fill="#235DB9" opacity="1.000000" stroke="none" 
	d="
M224.556702,222.998108 
	C224.036346,225.307175 223.207016,227.755814 222.094772,231.039749 
	C234.753693,231.039749 246.972229,231.039749 259.668091,231.081940 
	C259.151398,231.716660 258.161957,232.815964 257.162659,232.824951 
	C244.274811,232.941040 231.385574,232.901733 217.614792,232.901733 
	C220.076172,229.278458 222.161942,226.208069 224.556702,222.998108 
z"/>
<path fill="#2E5EAF" opacity="1.000000" stroke="none" 
	d="
M224.060760,56.015350 
	C223.630890,56.894077 223.201035,57.772804 222.609192,59.008663 
	C221.356140,57.934216 220.265030,56.502640 218.562927,54.269409 
	C223.921463,54.269409 228.441101,54.281876 232.960617,54.266762 
	C241.760696,54.237339 250.560883,54.157261 259.360596,54.195290 
	C260.559082,54.200470 261.755096,54.763901 263.054443,55.472435 
	C262.029114,55.913864 260.901672,55.951725 258.891663,55.998932 
	C246.693024,56.010635 235.376892,56.012997 224.060760,56.015350 
z"/>
<path fill="#0164D4" opacity="1.000000" stroke="none" 
	d="
M168.488007,223.033279 
	C166.203644,223.204941 165.562714,218.697647 162.795334,221.534485 
	C162.737442,221.593811 161.366379,220.686508 161.427979,220.497849 
	C161.889648,219.083649 162.557785,217.736862 163.280685,216.098358 
	C160.943619,211.944717 160.943619,211.944717 171.220764,210.359268 
	C169.612289,214.128036 166.123016,218.507278 172.923294,220.495865 
	C171.609726,221.560425 170.220215,222.285507 168.488007,223.033279 
z"/>
<path fill="#365DB1" opacity="1.000000" stroke="none" 
	d="
M376.912476,59.094635 
	C376.561249,59.107109 376.422424,58.886940 376.261047,57.986156 
	C375.263672,56.860218 374.290833,56.033161 373.313568,56.027866 
	C361.912079,55.966068 350.509949,56.027996 339.107971,56.057201 
	C338.540161,56.283691 337.972321,56.510185 337.106750,56.815880 
	C337.801636,55.981838 338.783722,54.287144 339.788422,54.273605 
	C352.984650,54.095844 366.184052,54.155338 380.323273,54.155338 
	C378.888275,56.267044 378.006561,57.564522 376.912476,59.094635 
z"/>
<path fill="#043AA4" opacity="1.000000" stroke="none" 
	d="
M335.930328,229.373810 
	C338.972748,229.713394 342.066650,230.838730 345.187042,230.917770 
	C354.768188,231.160461 364.360596,230.919983 373.946106,231.050354 
	C376.793823,231.089081 378.442993,230.409836 378.081299,226.846085 
	C379.344879,228.088470 380.639191,229.734818 381.515198,231.727386 
	C378.377289,232.283005 375.657684,232.492432 372.938080,232.701843 
	C366.285004,232.724930 359.631927,232.748047 352.199585,232.497681 
	C348.592682,232.371948 345.765045,232.519684 342.937408,232.667404 
	C342.217255,232.700775 341.497101,232.734146 340.188599,232.498154 
	C338.975708,232.225037 338.351135,232.221298 337.726593,232.217560 
	C337.149048,231.372040 336.571472,230.526535 335.930328,229.373810 
z"/>
<path fill="#003092" opacity="1.000000" stroke="none" 
	d="
M468.932037,170.891647 
	C474.167206,170.550980 479.402344,170.210312 484.841431,169.627991 
	C481.381348,170.267639 477.740540,171.778946 474.049133,171.914581 
	C461.967224,172.358490 449.866882,172.301773 437.383087,172.707825 
	C436.992523,172.978104 436.952545,172.998505 437.029907,172.673737 
	C437.077209,171.905685 437.047180,171.462418 437.017151,171.019150 
	C437.190796,171.007751 437.364441,170.996368 438.259033,170.978821 
	C448.963989,170.945648 458.947998,170.918655 468.932037,170.891647 
z"/>
<path fill="#2556B9" opacity="1.000000" stroke="none" 
	d="
M401.169312,232.463791 
	C401.245422,231.909195 401.565857,231.707520 402.396698,231.257050 
	C403.918640,230.997635 404.930176,230.987030 405.941742,230.976440 
	C414.075500,230.991638 422.210022,231.067627 430.342346,230.967148 
	C431.843018,230.948608 433.334930,230.216339 435.133057,229.412354 
	C435.435211,229.011185 435.849396,229.005630 435.890778,229.338470 
	C436.242188,230.450439 436.552216,231.229584 436.862213,232.008728 
	C436.042755,232.311386 435.223907,232.875290 434.403748,232.877197 
	C423.407135,232.902847 412.410370,232.850037 401.169312,232.463791 
z"/>
<path fill="#1049A7" opacity="1.000000" stroke="none" 
	d="
M62.944077,57.170780 
	C62.654705,56.707462 62.365337,56.244144 62.029907,55.498730 
	C85.184196,55.220852 108.384537,55.225071 131.432053,55.602726 
	C130.189667,56.005539 129.100113,56.034920 127.542961,56.048386 
	C122.385475,56.051582 117.695580,56.070698 112.561401,56.064987 
	C109.742691,56.055210 107.368263,56.070267 104.526382,56.059025 
	C91.040085,56.038452 78.021248,56.044174 64.703941,56.050999 
	C63.949093,56.375839 63.492706,56.699577 63.005722,57.055470 
	C62.975124,57.087620 62.944077,57.170780 62.944077,57.170780 
z"/>
<path fill="#002387" opacity="1.000000" stroke="none" 
	d="
M402.096100,56.060513 
	C401.891937,56.052513 401.687775,56.044510 401.177185,56.027924 
	C402.331512,55.676319 403.791290,55.038944 405.252991,55.034512 
	C426.518005,54.970013 447.783295,54.990219 469.521820,55.264252 
	C469.995148,55.538319 469.997864,55.948154 469.529480,55.965740 
	C448.724091,56.015263 428.387054,56.047195 408.050049,56.079132 
	C407.593384,56.059227 407.136719,56.039322 405.947388,56.014065 
	C404.175171,56.025978 403.135651,56.043247 402.096100,56.060513 
z"/>
<path fill="#002387" opacity="1.000000" stroke="none" 
	d="
M436.938171,231.542572 
	C436.552216,231.229584 436.242188,230.450439 435.935394,228.870483 
	C435.960632,211.446655 435.954926,194.823456 436.045807,178.200806 
	C436.055298,176.465103 436.636566,174.732529 436.952545,172.998505 
	C436.952545,172.998505 436.992523,172.978104 436.972961,172.965363 
	C436.973663,192.327209 436.993896,211.701797 436.938171,231.542572 
z"/>
<path fill="#103D9C" opacity="1.000000" stroke="none" 
	d="
M469.997864,55.948154 
	C469.997864,55.948154 469.995148,55.538319 469.984253,55.333679 
	C480.817291,55.111221 491.176697,57.191235 500.987366,62.588253 
	C500.305237,62.864407 499.451294,62.935379 498.662323,62.741653 
	C489.690155,60.538654 480.727905,58.295231 471.114624,56.042236 
	C470.466278,56.021866 469.997864,55.948154 469.997864,55.948154 
z"/>
<path fill="#1650A8" opacity="1.000000" stroke="none" 
	d="
M211.344574,176.657883 
	C212.438187,168.708359 213.816376,160.547913 215.520630,152.174088 
	C214.440857,160.122803 213.034988,168.284866 211.344574,176.657883 
z"/>
<path fill="#1049A7" opacity="1.000000" stroke="none" 
	d="
M153.967834,59.576912 
	C152.647751,59.709351 151.176712,59.501282 149.033859,59.125954 
	C147.564072,58.667995 146.766098,58.377300 145.524170,58.059399 
	C142.405289,58.006516 139.730347,57.980839 136.809021,57.693966 
	C135.378479,57.279793 134.194290,57.126812 133.006836,56.983063 
	C133.003571,56.992290 133.028992,56.975113 133.027695,56.764793 
	C133.026398,56.554478 133.042465,56.134140 133.042465,56.134140 
	C139.967270,57.168224 146.892059,58.202312 153.967834,59.576912 
z"/>
<path fill="#055BD2" opacity="1.000000" stroke="none" 
	d="
M291.343384,178.849487 
	C292.023529,176.000107 288.783691,172.067551 293.985779,170.015289 
	C295.569977,170.018906 296.354797,170.036148 297.139618,170.053375 
	C295.323883,172.977005 293.508148,175.900620 291.343384,178.849487 
z"/>
<path fill="#1650A8" opacity="1.000000" stroke="none" 
	d="
M149.492966,230.374756 
	C153.278320,228.790604 157.423355,227.179184 161.811432,225.296570 
	C163.134094,225.018433 164.213730,225.011505 165.699188,225.033157 
	C160.687546,226.823654 155.270096,228.585556 149.492966,230.374756 
z"/>
<path fill="#0358C8" opacity="1.000000" stroke="none" 
	d="
M265.916992,122.488968 
	C267.874725,124.567039 269.891663,126.983871 271.913635,129.766068 
	C269.937836,127.696861 267.957001,125.262306 265.916992,122.488968 
z"/>
<path fill="#0358C8" opacity="1.000000" stroke="none" 
	d="
M271.891724,130.449905 
	C273.408142,132.337326 274.955597,134.592224 276.320618,137.198853 
	C274.733093,135.306168 273.327911,133.061783 271.891724,130.449905 
z"/>
<path fill="#0358C8" opacity="1.000000" stroke="none" 
	d="
M276.702454,138.106689 
	C277.715332,137.543900 278.892303,137.227280 280.887604,136.690536 
	C280.323151,138.835693 279.974335,140.161392 279.373352,141.724884 
	C278.369659,140.759415 277.618103,139.556137 276.702454,138.106689 
z"/>
<path fill="#235DB9" opacity="1.000000" stroke="none" 
	d="
M260.430939,230.983963 
	C261.210693,229.117691 262.291504,227.105621 263.737061,225.079346 
	C262.978546,226.989471 261.855255,228.913818 260.430939,230.983963 
z"/>
<path fill="#0358C8" opacity="1.000000" stroke="none" 
	d="
M297.389404,169.990387 
	C296.354797,170.036148 295.569977,170.018906 294.392578,170.000534 
	C294.275940,169.107697 294.551880,168.216003 294.827820,167.324310 
	C295.757599,167.794876 296.687378,168.265442 297.918945,168.925873 
	C298.026886,169.386276 297.833038,169.656830 297.389404,169.990387 
z"/>
<path fill="#4877CB" opacity="1.000000" stroke="none" 
	d="
M373.369141,232.829529 
	C375.657684,232.492432 378.377289,232.283005 381.529236,232.066315 
	C379.241119,232.358444 376.520660,232.657837 373.369141,232.829529 
z"/>
<path fill="#4877CB" opacity="1.000000" stroke="none" 
	d="
M343.377625,232.801651 
	C345.765045,232.519684 348.592682,232.371948 351.736603,232.454056 
	C349.307892,232.767899 346.562866,232.851898 343.377625,232.801651 
z"/>
<path fill="#235DB9" opacity="1.000000" stroke="none" 
	d="
M264.363068,224.923798 
	C264.720581,223.436035 265.366669,221.780899 266.360565,220.075165 
	C266.022797,221.601852 265.337219,223.179153 264.363068,224.923798 
z"/>
<path fill="#025BCC" opacity="1.000000" stroke="none" 
	d="
M271.397247,212.928696 
	C270.542328,212.655457 269.975281,212.273682 269.408264,211.891907 
	C270.151947,211.254761 270.895630,210.617599 271.996582,209.924622 
	C272.130951,210.852600 271.908051,211.836380 271.397247,212.928696 
z"/>
<path fill="#0358C8" opacity="1.000000" stroke="none" 
	d="
M299.255615,169.015076 
	C299.583832,168.453461 300.162201,167.990631 300.740570,167.527802 
	C300.907990,168.292511 301.075378,169.057236 300.968109,169.985046 
	C300.297516,169.803375 299.901642,169.458618 299.255615,169.015076 
z"/>
<path fill="#2E5EAF" opacity="1.000000" stroke="none" 
	d="
M265.141907,59.562771 
	C264.458069,58.797577 263.749298,57.691708 263.086121,56.222885 
	C263.793427,56.980652 264.455200,58.101376 265.141907,59.562771 
z"/>
<path fill="#0358C8" opacity="1.000000" stroke="none" 
	d="
M264.065369,119.320297 
	C264.724518,119.808136 265.332245,120.611916 265.895020,121.768776 
	C265.238037,121.293320 264.626007,120.464783 264.065369,119.320297 
z"/>
<path fill="#365DB1" opacity="1.000000" stroke="none" 
	d="
M336.564514,56.980247 
	C336.493042,57.835476 336.134064,58.836437 335.433075,59.904896 
	C335.486389,59.023590 335.881714,58.074783 336.564514,56.980247 
z"/>
<path fill="#043AA4" opacity="1.000000" stroke="none" 
	d="
M333.987946,226.346619 
	C334.616180,226.814926 335.307098,227.597260 335.960266,228.748871 
	C335.298553,228.298981 334.674561,227.479813 333.987946,226.346619 
z"/>
<path fill="#055BD2" opacity="1.000000" stroke="none" 
	d="
M132.811188,56.056683 
	C133.042465,56.134140 133.026398,56.554478 132.639374,56.775223 
	C130.838425,56.685410 129.424484,56.374855 128.010559,56.064304 
	C129.100113,56.034920 130.189667,56.005539 131.686569,55.956482 
	C132.093918,55.936806 132.579895,55.979225 132.811188,56.056683 
z"/>
<path fill="#0358C8" opacity="1.000000" stroke="none" 
	d="
M317.001953,91.002190 
	C316.279053,91.666916 315.553619,92.329025 314.485779,92.997971 
	C314.520020,92.362740 314.896667,91.720673 315.853149,91.029121 
	C316.619965,90.984802 316.806946,90.989975 316.993958,90.995148 
	C316.993958,90.995148 316.999451,90.999580 317.001953,91.002190 
z"/>
<path fill="#103D9C" opacity="1.000000" stroke="none" 
	d="
M503.372375,63.652740 
	C502.753235,63.743717 502.003082,63.580956 501.143494,63.134487 
	C501.769806,63.033520 502.505585,63.216259 503.372375,63.652740 
z"/>
<path fill="#0358C8" opacity="1.000000" stroke="none" 
	d="
M302.099426,173.317566 
	C302.733429,173.513229 303.322693,174.025085 303.920135,174.863708 
	C303.303772,174.671555 302.679230,174.152649 302.099426,173.317566 
z"/>
<path fill="#3470CB" opacity="1.000000" stroke="none" 
	d="
M139.330566,231.035187 
	C139.555481,230.820435 140.109543,230.670395 140.821213,230.720276 
	C140.539108,230.980103 140.099411,231.039993 139.330566,231.035187 
z"/>
<path fill="#4877CB" opacity="1.000000" stroke="none" 
	d="
M337.927734,232.486847 
	C338.351135,232.221298 338.975708,232.225037 339.831299,232.444443 
	C339.417847,232.692108 338.773376,232.724106 337.927734,232.486847 
z"/>
<path fill="#235DB9" opacity="1.000000" stroke="none" 
	d="
M225.730911,221.122208 
	C225.785080,221.523071 225.594681,222.094406 225.117645,222.793320 
	C225.049438,222.378159 225.267899,221.835434 225.730911,221.122208 
z"/>
<path fill="#043AA4" opacity="1.000000" stroke="none" 
	d="
M332.853729,224.367142 
	C333.178314,224.517578 333.567719,224.970001 333.959747,225.747345 
	C333.614441,225.604568 333.266510,225.136856 332.853729,224.367142 
z"/>
<path fill="#2E5EAF" opacity="1.000000" stroke="none" 
	d="
M222.603241,59.738392 
	C222.970932,59.810387 223.425842,60.154984 223.870316,60.835640 
	C223.470078,60.784798 223.080246,60.397896 222.603241,59.738392 
z"/>
<path fill="#365DB1" opacity="1.000000" stroke="none" 
	d="
M375.371735,61.137062 
	C375.350891,60.659103 375.598511,60.086037 376.178284,59.556702 
	C376.220367,60.080944 375.930267,60.561447 375.371735,61.137062 
z"/>
<path fill="#2E5EAF" opacity="1.000000" stroke="none" 
	d="
M223.852432,61.359970 
	C224.187119,61.427021 224.571625,61.748138 224.977539,62.336510 
	C224.633408,62.273853 224.267822,61.943947 223.852432,61.359970 
z"/>
<path fill="#1650A8" opacity="1.000000" stroke="none" 
	d="
M166.305908,225.053802 
	C166.232498,224.814102 166.436951,224.519562 166.905396,224.143997 
	C166.974197,224.374969 166.778992,224.686966 166.305908,225.053802 
z"/>
<path fill="#043AA4" opacity="1.000000" stroke="none" 
	d="
M332.128784,223.310715 
	C332.473053,223.179764 332.689514,223.405258 332.863464,223.959595 
	C332.645203,223.987656 332.371887,223.780579 332.128784,223.310715 
z"/>
<path fill="#025BCC" opacity="1.000000" stroke="none" 
	d="
M316.909058,90.789719 
	C316.806946,90.989975 316.619965,90.984802 316.152954,90.963913 
	C315.872864,90.948204 315.999664,90.477051 316.077911,90.245995 
	C316.439758,90.133232 316.662415,90.323013 316.909058,90.789719 
z"/>
<path fill="#2556B9" opacity="1.000000" stroke="none" 
	d="
M400.673981,228.883179 
	C400.868103,228.973755 400.919373,229.237030 400.886353,229.893982 
	C400.689667,230.024506 400.553711,229.768127 400.475128,229.495224 
	C400.437592,229.364960 400.509064,229.203308 400.673981,228.883179 
z"/>
<path fill="#2556B9" opacity="1.000000" stroke="none" 
	d="
M400.694397,59.894196 
	C400.885620,59.981846 400.938293,60.239826 400.915619,60.886169 
	C400.745483,60.871197 400.650665,60.467865 400.694397,59.894196 
z"/>
<path fill="#0358C8" opacity="1.000000" stroke="none" 
	d="
M304.066956,176.294342 
	C304.422485,176.154648 304.657318,176.379517 304.878113,176.929565 
	C304.641174,176.969360 304.335266,176.770752 304.066956,176.294342 
z"/>
<path fill="#FCFEFE" opacity="1.000000" stroke="none" 
	d="
M474.935974,86.843040 
	C481.130493,89.310616 488.514618,90.009323 491.523193,98.329933 
	C492.622406,102.066025 493.600006,105.193550 494.032776,108.394722 
	C494.553192,112.244286 494.610016,116.156525 494.867554,120.041626 
	C492.234741,132.110809 485.564301,140.113525 471.934601,141.850204 
	C459.716431,141.774551 448.350525,141.814346 436.984650,141.854141 
	C436.984650,141.854141 436.995758,142.011078 437.014587,141.538834 
	C437.029236,122.732834 437.025116,104.399078 437.290985,85.936600 
	C437.721924,85.690056 437.882812,85.572250 438.498230,85.558090 
	C447.654724,85.665550 456.356659,85.669365 465.400757,85.815857 
	C466.477539,85.910286 467.212189,85.862022 468.345856,85.891983 
	C470.808594,86.261147 472.872284,86.552094 474.935974,86.843040 
z"/>
<path fill="#1055D1" opacity="1.000000" stroke="none" 
	d="
M402.060791,56.522537 
	C403.135651,56.043247 404.175171,56.025978 405.605042,56.035545 
	C402.938477,58.624741 402.942566,62.028931 402.948669,65.673401 
	C403.029266,113.929497 403.006744,162.185776 402.986420,210.442017 
	C402.985596,212.419510 402.752533,214.396927 402.341187,216.669678 
	C402.044952,163.638168 402.035217,110.311363 402.060791,56.522537 
z"/>
<path fill="#1055D1" opacity="1.000000" stroke="none" 
	d="
M469.529480,55.965740 
	C469.997864,55.948154 470.466278,56.021866 470.699951,56.056496 
	C469.699921,56.394573 468.466949,56.958878 467.232361,56.962387 
	C448.347656,57.016052 429.462738,57.000015 410.577881,56.979156 
	C409.933228,56.978447 409.288818,56.758057 408.347168,56.359596 
	C428.387054,56.047195 448.724091,56.015263 469.529480,55.965740 
z"/>
<path fill="#104ACC" opacity="1.000000" stroke="none" 
	d="
M437.029907,172.673737 
	C436.636566,174.732529 436.055298,176.465103 436.045807,178.200806 
	C435.954926,194.823456 435.960632,211.446655 435.894012,228.537659 
	C435.849396,229.005630 435.435211,229.011185 435.228394,229.015381 
	C435.013977,211.489944 434.970551,193.960159 435.056213,176.430969 
	C435.064423,174.750275 435.876831,173.073517 436.666504,171.207031 
	C437.047180,171.462418 437.077209,171.905685 437.029907,172.673737 
z"/>
<path fill="#003092" opacity="1.000000" stroke="none" 
	d="
M465.058594,85.673187 
	C456.356659,85.669365 447.654724,85.665550 438.386108,85.393616 
	C437.591400,84.980965 437.343079,84.895042 437.074463,84.867722 
	C437.074463,84.867722 437.040497,84.473312 437.487671,84.250214 
	C446.945862,84.007248 455.956848,83.987373 464.967865,83.967499 
	C465.839661,84.135330 466.711487,84.303162 467.792847,84.734200 
	C468.002441,84.997406 468.010345,84.989708 467.693542,84.998062 
	C466.604034,85.228676 465.831299,85.450935 465.058594,85.673187 
z"/>
<path fill="#002387" opacity="1.000000" stroke="none" 
	d="
M437.020966,86.065323 
	C437.025116,104.399078 437.029236,122.732834 437.093140,141.535004 
	C436.747864,141.207275 436.342773,140.411148 435.938293,138.801208 
	C435.929779,121.021416 435.920624,104.055443 435.911499,87.089462 
	C435.938538,86.896675 435.965515,86.703896 436.259949,86.243698 
	C436.691864,86.005959 436.856415,86.035637 437.020966,86.065323 
z"/>
<path fill="#265EC8" opacity="1.000000" stroke="none" 
	d="
M435.634216,87.383881 
	C435.920624,104.055443 435.929779,121.021416 435.900574,138.443466 
	C435.336945,137.895477 434.346466,136.886978 434.356018,135.888031 
	C434.503143,120.465973 434.776550,105.045105 435.039764,89.624283 
	C435.050842,88.974007 435.247009,88.326897 435.634216,87.383881 
z"/>
<path fill="#002387" opacity="1.000000" stroke="none" 
	d="
M437.245117,142.193741 
	C448.350525,141.814346 459.716431,141.774551 471.531799,141.873108 
	C470.924652,142.338531 469.865814,142.955750 468.811676,142.947800 
	C458.375854,142.868896 447.940826,142.686462 437.245117,142.193741 
z"/>
<path fill="#003092" opacity="1.000000" stroke="none" 
	d="
M495.188782,119.767960 
	C494.610016,116.156525 494.553192,112.244286 494.032776,108.394722 
	C493.600006,105.193550 492.622406,102.066025 491.810913,98.525154 
	C493.130493,101.644478 495.099304,105.040924 495.755096,108.674355 
	C496.382935,112.152931 495.646667,115.877724 495.188782,119.767960 
z"/>
<path fill="#1055D1" opacity="1.000000" stroke="none" 
	d="
M468.633179,170.616302 
	C458.947998,170.918655 448.963989,170.945648 438.518494,170.949890 
	C441.089600,170.619247 444.120789,170.069427 447.155029,170.052170 
	C454.214020,170.011993 461.274475,170.228455 468.633179,170.616302 
z"/>
<path fill="#1556D7" opacity="1.000000" stroke="none" 
	d="
M464.675659,83.675117 
	C455.956848,83.987373 446.945862,84.007248 437.466003,84.053467 
	C439.027588,83.719582 441.057434,83.057449 443.088470,83.053703 
	C450.186584,83.040588 457.285065,83.254852 464.675659,83.675117 
z"/>
<path fill="#1055D1" opacity="1.000000" stroke="none" 
	d="
M405.726074,230.704926 
	C404.930176,230.987030 403.918640,230.997635 402.530823,231.004211 
	C402.106506,229.292938 402.058472,227.585709 402.030090,225.453644 
	C403.203339,226.830353 404.356873,228.631882 405.726074,230.704926 
z"/>
<path fill="#003092" opacity="1.000000" stroke="none" 
	d="
M474.862366,86.472397 
	C472.872284,86.552094 470.808594,86.261147 468.367218,85.686371 
	C467.989532,85.402550 468.010345,84.989708 468.010345,84.989708 
	C468.010345,84.989708 468.002441,84.997406 468.010864,84.988670 
	C470.275787,85.353874 472.532257,85.727806 474.862366,86.472397 
z"/>
<path fill="#265EC8" opacity="1.000000" stroke="none" 
	d="
M437.290985,85.936600 
	C436.856415,86.035637 436.691864,86.005959 436.278107,85.952248 
	C436.235474,85.667824 436.442078,85.407425 436.861572,85.007370 
	C437.343079,84.895042 437.591400,84.980965 437.931580,85.289970 
	C437.882812,85.572250 437.721924,85.690056 437.290985,85.936600 
z"/>
<path fill="#055BD2" opacity="1.000000" stroke="none" 
	d="
M279.170410,198.373169 
	C273.358917,195.691101 275.679077,190.029892 273.965149,185.148529 
	C278.247345,186.400635 279.243256,188.899780 278.979828,192.348511 
	C278.848785,194.064484 279.037872,195.804901 279.174194,197.933807 
	C279.266296,198.333344 279.170868,198.325287 279.170410,198.373169 
z"/>
<path fill="#1556D7" opacity="1.000000" stroke="none" 
	d="
M224.343491,56.314819 
	C235.376892,56.012997 246.693024,56.010635 258.469391,56.023056 
	C257.877380,56.358322 256.823578,56.961220 255.773087,56.955551 
	C245.390488,56.899529 235.008438,56.742619 224.343491,56.314819 
z"/>
<path fill="#0358C8" opacity="1.000000" stroke="none" 
	d="
M302.045593,163.394272 
	C302.287415,163.790604 302.285675,164.184875 302.255463,164.576950 
	C302.254608,164.587967 301.948975,164.575455 301.785461,164.573914 
	C301.789673,164.179916 301.793884,163.785904 302.045593,163.394272 
z"/>
<path fill="#FDFEFF" opacity="1.000000" stroke="none" 
	d="
M157.098907,194.450867 
	C149.199783,197.156357 141.489151,199.577225 133.137512,202.008972 
	C132.496506,202.019867 132.022873,202.137527 132.022873,202.137527 
	C132.022873,202.137527 131.586746,201.980728 131.247162,201.722565 
	C130.603790,201.398590 130.300003,201.332764 129.618500,201.195847 
	C128.477432,201.174591 127.714066,201.224457 126.728493,201.192947 
	C126.506287,201.111588 126.056450,201.258606 125.595795,201.175262 
	C121.060501,201.148727 116.985855,201.205536 112.458847,201.168182 
	C107.017609,201.028015 102.028740,200.982025 97.033752,200.473434 
	C96.979866,162.341125 96.932091,124.671425 96.973068,86.787376 
	C97.061813,86.573029 97.092476,86.110062 97.551620,86.072006 
	C108.021690,86.014389 118.032616,85.994827 128.421356,86.105438 
	C135.171417,87.453423 141.543671,88.671249 147.915909,89.889069 
	C160.912689,95.122215 169.895798,104.332520 174.893967,117.377701 
	C175.858810,119.895935 176.272339,122.625397 176.994629,126.075958 
	C177.417084,135.948776 177.805847,145.002274 178.138733,154.057846 
	C178.223785,156.371231 178.131958,158.691132 178.121384,161.008041 
	C175.942337,166.715195 174.032730,172.544479 171.515152,178.098175 
	C168.458878,184.840134 163.717484,190.304550 157.098907,194.450867 
z"/>
<path fill="#0164D4" opacity="1.000000" stroke="none" 
	d="
M145.968109,58.086601 
	C146.766098,58.377300 147.564072,58.667995 148.679199,59.002785 
	C148.322708,65.256561 147.741776,71.479179 146.879349,77.662537 
	C146.743927,78.633522 145.253586,79.366615 144.527267,80.315041 
	C143.297607,81.920769 142.177689,83.610535 140.757172,85.644524 
	C140.502701,86.024078 140.004990,86.010780 139.789429,85.724037 
	C137.715286,84.958298 135.856735,84.479301 133.529633,84.000778 
	C123.706779,83.999413 114.352470,83.997566 104.997406,83.573837 
	C103.552780,77.732597 103.869370,72.497612 106.155136,67.295227 
	C106.447418,66.630005 105.071777,64.465973 104.099220,64.156044 
	C101.294968,63.262383 98.301651,62.962017 95.382591,62.428631 
	C95.356941,61.999054 95.331291,61.569481 95.305641,61.139904 
	C97.569473,60.425480 99.922707,59.905029 102.061493,58.919292 
	C103.226791,58.382217 104.028275,57.055756 104.993843,56.085320 
	C107.368263,56.070267 109.742691,56.055210 112.566742,56.445061 
	C114.556137,58.230690 116.283264,60.949100 117.603706,60.764137 
	C123.830528,59.891895 129.503265,61.861767 135.397675,62.956009 
	C139.762161,63.766228 143.617615,62.255672 145.968109,58.086601 
z"/>
<path fill="#1650A8" opacity="1.000000" stroke="none" 
	d="
M178.390305,160.732819 
	C178.131958,158.691132 178.223785,156.371231 178.138733,154.057846 
	C177.805847,145.002274 177.417084,135.948776 177.115097,126.480423 
	C178.094833,128.617676 179.795441,131.173782 179.780014,133.719482 
	C179.725983,142.634125 179.080246,151.545181 178.390305,160.732819 
z"/>
<path fill="#1650A8" opacity="1.000000" stroke="none" 
	d="
M140.004990,86.010773 
	C140.004990,86.010780 140.502701,86.024078 140.751633,86.026070 
	C143.274765,87.087273 145.548965,88.146477 147.869537,89.547379 
	C141.543671,88.671249 135.171417,87.453423 128.690216,86.033234 
	C129.046768,85.576637 129.512283,85.322403 130.377533,85.043976 
	C131.844131,85.023773 132.911026,85.027763 134.246948,85.308151 
	C136.345657,85.726616 138.175323,85.868698 140.004990,86.010773 
z"/>
<path fill="#1556D7" opacity="1.000000" stroke="none" 
	d="
M339.384186,56.355125 
	C350.509949,56.027996 361.912079,55.966068 373.313568,56.027866 
	C374.290833,56.033161 375.263672,56.860218 376.125122,57.620167 
	C372.936188,57.623055 369.865540,57.112381 366.784271,57.037098 
	C357.745239,56.816261 348.701996,56.768562 339.384186,56.355125 
z"/>
<path fill="#0167D5" opacity="1.000000" stroke="none" 
	d="
M104.526382,56.059021 
	C104.028275,57.055756 103.226791,58.382217 102.061493,58.919292 
	C99.922707,59.905029 97.569473,60.425480 95.305641,61.139904 
	C95.331291,61.569481 95.356941,61.999054 95.382591,62.428631 
	C98.301651,62.962017 101.294968,63.262383 104.099220,64.156044 
	C105.071777,64.465973 106.447418,66.630005 106.155136,67.295227 
	C103.869370,72.497612 103.552780,77.732597 104.566864,83.575722 
	C101.759056,84.359032 99.381042,84.718567 97.030441,85.335648 
	C97.069405,85.765488 97.080940,85.937775 97.092476,86.110062 
	C97.092476,86.110062 97.061813,86.573029 96.693741,87.096504 
	C96.214355,88.269135 96.005898,88.918243 96.005615,89.567444 
	C95.990387,125.479042 95.982368,161.390671 96.037094,197.302200 
	C96.038940,198.513977 96.690926,199.724777 97.039864,200.936035 
	C102.028740,200.982025 107.017609,201.028015 112.136002,201.408020 
	C107.868225,201.742004 103.470932,201.742004 99.073647,201.742004 
	C99.073883,202.164261 99.074120,202.586502 99.074356,203.008759 
	C108.049164,203.008759 117.023972,203.008759 125.998779,203.008759 
	C122.203400,203.535095 118.408012,204.061417 112.896225,204.825760 
	C119.751709,207.918259 119.370613,213.071930 118.871475,218.307236 
	C125.461632,217.782089 124.056610,221.764847 123.670296,225.480560 
	C118.765785,226.320953 114.023109,227.133621 109.280441,227.946289 
	C109.363281,228.770981 109.446121,229.595657 109.528961,230.420349 
	C116.827263,230.420349 124.125572,230.420349 131.715317,230.723068 
	C120.304352,231.035385 108.601936,231.044983 96.147430,230.731354 
	C86.918114,230.272369 78.430229,229.827606 69.967812,230.119995 
	C65.111977,230.287766 63.880062,228.780548 63.894451,223.997269 
	C64.061882,168.332611 64.005211,112.667274 64.221375,56.898300 
	C64.702774,56.606297 64.891953,56.358101 65.002403,56.049900 
	C78.021248,56.044174 91.040085,56.038452 104.526382,56.059021 
z"/>
<path fill="#0156C7" opacity="1.000000" stroke="none" 
	d="
M126.365906,203.005630 
	C117.023972,203.008759 108.049164,203.008759 99.074356,203.008759 
	C99.074120,202.586502 99.073883,202.164261 99.073647,201.742004 
	C103.470932,201.742004 107.868225,201.742004 112.588364,201.502182 
	C116.985855,201.205536 121.060501,201.148727 125.677666,201.305908 
	C126.220184,201.519928 126.637230,201.591187 126.637230,201.591187 
	C126.637230,201.591187 126.950699,201.274307 126.950699,201.274307 
	C127.714066,201.224457 128.477432,201.174591 129.620132,201.378754 
	C129.999466,201.632782 130.016296,201.999207 130.016296,201.999207 
	C128.921875,202.333633 127.827454,202.668060 126.365906,203.005630 
z"/>
<path fill="#0156C7" opacity="1.000000" stroke="none" 
	d="
M132.108917,202.284637 
	C132.022873,202.137527 132.496506,202.019867 132.731430,202.085327 
	C132.709229,202.244431 132.452103,202.338089 132.108917,202.284637 
z"/>
<path fill="#0167D5" opacity="1.000000" stroke="none" 
	d="
M130.293671,201.993301 
	C130.016296,201.999207 129.999466,201.632782 129.997833,201.449860 
	C130.300003,201.332764 130.603790,201.398590 131.016022,201.706055 
	C130.939987,201.960922 130.755508,201.974167 130.293671,201.993301 
z"/>
<path fill="#0D6DD6" opacity="1.000000" stroke="none" 
	d="
M64.007874,57.002121 
	C64.005211,112.667274 64.061882,168.332611 63.894451,223.997269 
	C63.880062,228.780548 65.111977,230.287766 69.967812,230.119995 
	C78.430229,229.827606 86.918114,230.272369 95.676338,230.713776 
	C86.790993,231.030624 77.616020,230.811066 68.461990,231.152649 
	C64.041260,231.317627 62.832123,229.992325 62.852760,225.563919 
	C63.027500,188.065430 62.954079,150.565781 62.954250,113.066483 
	C62.954338,94.733505 62.952503,76.400528 62.947807,57.619164 
	C62.944077,57.170780 62.975124,57.087620 63.248360,57.045921 
	C63.521591,57.004227 64.007874,57.002121 64.007874,57.002121 
z"/>
<path fill="#0167D5" opacity="1.000000" stroke="none" 
	d="
M145.524170,58.059395 
	C143.617615,62.255672 139.762161,63.766228 135.397675,62.956009 
	C129.503265,61.861767 123.830528,59.891895 117.603706,60.764137 
	C116.283264,60.949100 114.556137,58.230690 113.011032,56.469891 
	C117.695580,56.070698 122.385475,56.051582 127.542961,56.048386 
	C129.424484,56.374855 130.838425,56.685410 132.640671,56.985538 
	C133.028992,56.975113 133.003571,56.992290 133.235321,57.263908 
	C134.663193,57.675407 135.859283,57.815285 137.055389,57.955162 
	C139.730347,57.980839 142.405289,58.006516 145.524170,58.059395 
z"/>
<path fill="#055BD2" opacity="1.000000" stroke="none" 
	d="
M64.221375,56.898300 
	C64.007874,57.002121 63.521591,57.004227 63.278954,57.013771 
	C63.492706,56.699577 63.949093,56.375839 64.703941,56.050999 
	C64.891953,56.358101 64.702774,56.606297 64.221375,56.898300 
z"/>
<path fill="#055BD2" opacity="1.000000" stroke="none" 
	d="
M136.809021,57.693970 
	C135.859283,57.815285 134.663193,57.675407 133.238586,57.254681 
	C134.194290,57.126812 135.378479,57.279793 136.809021,57.693970 
z"/>
<path fill="#265EC8" opacity="1.000000" stroke="none" 
	d="
M467.693542,84.998062 
	C468.010345,84.989708 467.989532,85.402550 467.968170,85.608154 
	C467.212189,85.862022 466.477539,85.910286 465.400757,85.815865 
	C465.831299,85.450935 466.604034,85.228676 467.693542,84.998062 
z"/>
<path fill="#0C4FA8" opacity="1.000000" stroke="none" 
	d="
M97.033752,200.473434 
	C96.690926,199.724777 96.038940,198.513977 96.037094,197.302200 
	C95.982368,161.390671 95.990387,125.479042 96.005615,89.567444 
	C96.005898,88.918243 96.214355,88.269135 96.604996,87.310852 
	C96.932091,124.671425 96.979866,162.341125 97.033752,200.473434 
z"/>
<path fill="#003092" opacity="1.000000" stroke="none" 
	d="
M97.551620,86.072006 
	C97.080940,85.937775 97.069405,85.765488 97.498917,85.316498 
	C108.619255,85.049255 119.298531,85.058716 129.977814,85.068176 
	C129.512283,85.322403 129.046768,85.576637 128.312378,85.903069 
	C118.032616,85.994827 108.021690,86.014389 97.551620,86.072006 
z"/>
<path fill="#0167D5" opacity="1.000000" stroke="none" 
	d="
M126.728493,201.192947 
	C126.950699,201.274307 126.637230,201.591187 126.637230,201.591187 
	C126.637230,201.591187 126.220184,201.519928 126.138321,201.389267 
	C126.056450,201.258606 126.506287,201.111588 126.728493,201.192947 
z"/>
<path fill="#0D6DD6" opacity="1.000000" stroke="none" 
	d="
M130.377533,85.043976 
	C119.298531,85.058716 108.619255,85.049255 97.471497,85.058945 
	C99.381042,84.718567 101.759056,84.359032 104.567619,83.997620 
	C114.352470,83.997566 123.706779,83.999413 133.527435,84.258698 
	C133.988510,84.688011 133.983215,84.859886 133.977905,85.031761 
	C132.911026,85.027763 131.844131,85.023773 130.377533,85.043976 
z"/>
<path fill="#0262D2" opacity="1.000000" stroke="none" 
	d="
M134.246948,85.308151 
	C133.983215,84.859886 133.988510,84.688011 133.995972,84.258224 
	C135.856735,84.479301 137.715286,84.958298 139.789429,85.724030 
	C138.175323,85.868698 136.345657,85.726616 134.246948,85.308151 
z"/>
</svg>