<svg xmlns="http://www.w3.org/2000/svg" width="100%" viewBox="0 0 1024 1024" height="150" xmlns:v="https://vecta.io/nano"><path fill="#fff" d="M444 1025H1V1h1024v1024H444m175.628-644.399s.138-.202.409-.341c.168-.124.29-.284.565-.59 0 0 .167-.155.585-.456.322-.389.644-.779 1.407-1.264.299-.149.457-.391 1.084-.968l3.369-2.925c0 0 .045.095.655-.067l2.353-1.917c0 0 .008.088.723-.046l9.255-4.966s.005.083.821.008l12.779-3.159v-10.123h-91.991l.442 9.796 23.827 9.498s-.098.009.089.528c.307.188.614.375.926.47 0 0-.088.029.144.746 4.076 5.405.786 10.205-1.151 15.114 0 0-.026-.087-.599.244-.586 1.173-1.172 2.346-1.55 3.733 0 0-.161-.251-.599.045l-.816 1.542s-.091.139-.451.624c-.681 1.273-1.362 2.547-1.956 3.834 0 0-.035-.08-.62.239-.842 1.555-1.685 3.11-2.418 4.73 0 0-.054-.115-.596.148-.261.538-.521 1.075-.625 1.845 0 0-.102-.261-.603.169-1.103 1.936-2.206 3.872-3.204 5.824 0 0-.028-.103-.581.179l-2.015 3.265s-.09.233-.498.693l-5.903 9.862s-.029-.1-.591.197c-.487.928-.973 1.856-1.358 2.833 0 0-.051-.101-.618.187-.487.927-.974 1.853-1.362 2.831 0 0-.056-.097-.615.184l-2.025 3.292s-.099.192-.442.609l-1.509 2.439s-.096.147-.466.617l-2.674 4.228s-.1.28-.483.661c-.31.642-.62 1.285-.833 1.937 0 0-.026-.093-.564.18-.261.538-.523 1.077-.638 1.688 0 0-.032-.16-.499.124-.113.344-.226.688-.255 1.039 0 0-.031-.078-.628.237l-3.986 6.234s-.109.18-.467.587c-.328.638-.656 1.276-.892 1.957 0 0-.057-.084-.61.214l-1.971 3.284s-.114.09-.516.471c-.317.092-.633.183-.927.117 0 0-.159 0-.362-.543-.481-.574-.963-1.147-1.476-1.605 0 0 .12-.013-.008-.617-.345-.472-.691-.943-1.068-1.337 0 0 .084-.008-.039-.677-.977-1.463-1.955-2.925-2.985-4.305 0 0 .088-.044-.027-.672-.61-.835-1.22-1.669-1.86-2.404 0 0 .102-.021-.042-.689-.973-1.477-1.945-2.953-2.95-4.325 0 0 .107-.024.016-.491-.045-.337-.212-.596-.573-.904 0 0-.041-.141-.354-.668-.695-1.007-1.391-2.014-2.129-2.911 0 0 .104-.056-.039-.715l-2.978-4.267s.092-.01-.049-.676c-.981-1.464-1.962-2.928-2.996-4.299 0 0 .097-.044-.057-.726l-4.884-7.306s.093-.014-.046-.682l-2.987-4.302s.088-.009-.03-.541c-.228-.263-.456-.525-.699-.628 0 0 .129-.095-.054-.667-.374-.437-.748-.873-1.15-1.204 0 0 .107-.023-.037-.691-.979-1.471-1.959-2.942-2.968-4.308 0 0 .108-.02-.053-.714l-5.984-9.26s.093-.011-.068-.707l-7.779-13.26c-2.388-3.97-3.116-7.977-.518-12.363 0 0 .109-.2.468-.571.394-.562.788-1.124 1.064-1.769 0 0 .028.14.61-.089.758-.691 1.515-1.382 2.189-2.098 0 0 .007.087.504 0l.893-.568s.078.037.672-.251l3.906-2.191s.002.085.857.016c10.601-1.182 11.332-2.08 10.299-12.708H396.208l-.835 9.682 21.553 8.049s-.094.029.201.58l3.277 1.956a6.58 6.58 0 0 0 .545.538c.99.69 1.98 1.381 3.091 2.495.188.258.441.388 1.037.971.956.844 1.913 1.687 2.976 2.968.165.287.413.436.949.973.304.203.607.406.913.508 0 0-.094.035.109.622.783.924 1.567 1.847 2.456 2.807 0 0-.021.11.259.57.391.347.782.694 1.22.947 0 0-.094.046.099.664.944 1.15 1.889 2.301 2.883 3.349 0 0-.101.053.083.725l7.979 11.239s-.067.019.085.681l3.882 5.337s-.092.041.036.664c.626.821 1.252 1.642 1.932 2.358 0 0-.105.054.031.676.626.82 1.252 1.64 1.94 2.336 0 0-.115.079.021.739l3.019 4.237s-.086.012.048.64c.628.828 1.256 1.656 1.934 2.38 0 0-.103.051.041.738 2.01 3.068 4.02 6.136 6.173 9.884l19.225 31.368c6.951 11.646 13.686 23.42 20.641 35.908-1.11 2.314-2.221 4.627-3.739 7.096-.216.22-.321.484-.903 1.082-.832 1.26-1.664 2.519-2.394 3.838 0 0-.066-.097-.637.171-.519.9-1.038 1.8-1.442 2.772 0 0-.059-.122-.552.084l-.983 1.465s-.113.13-.49.526c-.332.644-.663 1.288-.902 1.981 0 0-.052-.092-.629.185-.523.912-1.045 1.824-1.461 2.754 0 0-.029-.104-.607.195l-2.93 4.312s-.106.176-.484.575c-.338.648-.677 1.296-.929 1.952 0 0-.023-.084-.596.203-.503.927-1.006 1.855-1.416 2.789 0 0-.025-.089-.593.197-.503.915-1.006 1.831-1.407 2.793 0 0-.043-.103-.572.14l-.871 1.546s.042-.015-.365.309c-.103.331-.205.661-.207 1.001 0 0-.029-.097-.604.191-.499.934-.999 1.867-1.396 2.814 0 0-.025-.099-.598.187-.5.934-.999 1.867-1.401 2.814 0 0-.025-.096-.605.18-.485.943-.971 1.886-1.37 2.837 0 0-.025-.083-.592.201-.488.926-.976 1.852-1.371 2.815 0 0-.047-.088-.612.207-.484.932-.968 1.865-1.374 2.806 0 0-.038-.07-.57.232-.217.565-.435 1.13-.533 1.708 0 0-.034-.115-.598.183-.471.94-.943 1.879-1.32 2.859 0 0-.045-.091-.637.228-.846 1.573-1.692 3.146-2.432 4.734 0 0-.026-.104-.601.183-.48.945-.96 1.89-1.352 2.85 0 0-.032-.084-.626.227-.832 1.581-1.663 3.161-2.399 4.75 0 0-.027-.092-.619.244l-4.375 7.764s-.022-.086-.63.227l-5.045 8.17s-.105.267-.487.651c-.31.646-.619 1.291-.841 1.949 0 0-.021-.087-.572.167-.261.539-.522 1.079-.636 1.695 0 0-.028-.163-.501.112-.125.341-.249.682-.283 1.03 0 0-.025-.088-.6.18-.514.909-1.027 1.818-1.437 2.766 0 0-.011-.111-.523.098-.157.325-.314.651-.387.99 0 0-.042-.073-.605.203-.53.889-1.059 1.778-1.483 2.706 0 0-.012-.112-.525.098-.171.319-.342.638-.427.962 0 0-.027-.082-.515.115-.318.415-.635.829-1.01 1.378 0 0-.121.082-.601.474l-6.28 6.664s-.092-.038-.443.103c-.221.135-.385.322-.685.663 0 0-.168.143-.588.429-.332.365-.663.731-.893 1.123 0 0-.016-.104-.638.055-.813.646-1.626 1.292-2.349 1.961 0 0-.012-.093-.676.064-1.49.951-2.979 1.902-4.358 2.881 0 0-.026-.112-.769.028-4.648 1.684-9.233 3.58-13.959 5.006-9.178 2.769-9.215 2.66-9.088 12.346.006.459.203.915.354 1.555h92.612c0-2.167-.28-4.171.057-6.065.747-4.202-1.236-5.816-5.032-6.805-5.41-1.409-10.677-3.371-16.012-5.001 0 0 .093-.024-.193-.572-.569-.227-1.137-.455-1.747-.504 0 0 .182-.02-.043-.555-.333-.19-.666-.38-1.094-.981-.163-.266-.4-.396-.999-1.171-3.179-4.682-.449-8.825 1.097-13.073 0 0 .026.091.605-.248.842-1.574 1.685-3.147 2.425-4.735 0 0 .028.099.603-.194.496-.943.992-1.886 2.074-3.156l48.126-75.306 50.662 84.575c3.548 5.995 1.384 12.388-5.427 15.852-5.237 2.664-11.005 4.572-16.751 5.867-6.221 1.403-2.791 5.798-3.269 8.776-.469 2.926 1.888 3.486 4.601 3.477l100.958-.141 14.069-.001c0-2.799-.26-4.976.059-7.064.514-3.365-1.058-4.948-4.046-5.554-17.013-3.449-28.511-14.311-37.529-28.265l-25.679-40.836-46.469-74.051c1.704-2.456 3.299-4.754 5.21-7.273l.141-.495s-.084.1.39-.172c.136-.335.272-.669.297-1.019 0 0 .037.106.621-.19.839-1.258 1.679-2.515 2.402-3.795 0 0 .038.112.507-.075.29-.408.58-.816 1.075-1.419 0 0 .1-.265.391-.461.183-.16.302-.358.365-.701 0 0 .106-.005.554-.372.39-.663.78-1.325 1.065-2.005 0 0 .027.102.614-.198 1.132-1.605 2.265-3.209 3.306-4.854 0 0 .045.088.629-.192.825-1.25 1.65-2.501 2.393-3.786 0 0 .012.088.52-.106.161-.31.322-.62.423-.94 0 0 .035.049.57-.267.525-.884 1.051-1.768 1.479-2.7 0 0 .049.097.632-.186.815-1.261 1.63-2.522 2.353-3.819 0 0 .047.087.614-.206.515-.916 1.031-1.833 1.449-2.762 0 0 .024.095.626-.209l4.341-6.813s.028.082.599-.201c.505-.925 1.01-1.849 1.423-2.782 0 0 .025.09.58-.191.626-1.023 1.252-2.045 2.066-3.249 0 0 .116-.235.499-.613.302-.644.604-1.287.814-1.972 0 0 .044.091.59-.162.272-.529.544-1.058.665-1.75 0 0 .089.204.603-.221l4.591-7.445.453-.386c.1-.319.2-.639.188-.975 0 0 .035.107.597-.201.465-.952.929-1.903 1.309-2.868 0 0 .038.077.629-.24.848-1.566 1.696-3.132 2.441-4.713 0 0 .027.102.621-.234 1.241-2.172 2.481-4.344 3.663-6.792 0 0 .013.283.522-.149l7.165-11.851s.067.131.656-.162c1.139-1.607 2.278-3.215 3.323-4.835 0 0 .012.094.527-.087.183-.304.366-.607.461-.925 0 0 .038.08.526-.101l1.075-1.372s.11-.163.398-.315c.18-.133.306-.306.582-.653m-267.537 216.49s.022.13.549-.055c.202-.301.404-.602.463-.932 0 0 .017.145.576-.059.227-.318.454-.637 1.259-1.241 22.632-22.224 33.407-49.863 37.079-81.66 2.073-15.712 1.444-31.415-1.084-46.968-2.719-16.727-7.517-32.85-16.899-47.206 0 0 .085-.015-.036-.709l-4.98-7.282s.084-.036-.119-.666l-3.781-4.402s.104-.017-.091-.654l-3.973-4.303s.089-.015-.083-.537c-.298-.196-.595-.392-.906-.481 0 0 .107-.015-.067-.541-.301-.195-.602-.389-.909-.488 0 0 .086-.043-.158-.659l-5.846-5.325s.091-.005-.097-.524c-.304-.191-.607-.383-.924-.464 0 0 .109-.016-.083-.53-.312-.175-.624-.35-.947-.443 0 0 .077-.031-.113-.527-.412-.325-.825-.65-1.379-1.036 0 0-.115-.103-.343-.451-.188-.218-.422-.362-1.125.022.135-.156.27-.312.058-.976-1.008-.716-2.017-1.433-3.088-2.045 0 0 .107-.058-.173-.645-1.254-.824-2.508-1.649-3.812-2.373 0 0 .102-.045-.192-.636l-4.427-2.826s-.06-.093-.54-.513l-36.662-16.938c-18.651-5.75-37.794-7.929-58.171-8.024H138.529c-1.525 9.056-1.525 9.057 7.372 12.26l6.679 2.362s.155.016.665.408l5.31 2.522s.064.094.47.455l2.379 1.703s.219.109.36.357c.121.151.271.265.556.548 0 0 .156.174.44.594.373.322.745.644 1.147.867 0 0-.103.008.037.587.345.462.691.925 1.064 1.355 0 0-.042.005-.02.81.667 3.345 1.911 6.689 1.917 10.035l-.017 211.665c-.009 4.343-1.585 8.683-2.124 13.058 0 0-.309.022-.693.352-.099.323-.198.645-.186.98 0 0-.033-.107-.58.133-.477.625-.955 1.25-1.351 1.903 0 0-.01-.085-.539.077-.21.289-.419.578-.497.882 0 0-.025-.129-.712.061l-7.271 3.936s-.002-.112-.801-.029c-3.799 1.04-7.684 1.853-11.349 3.244-1.255.476-2.559 2.302-2.788 3.686-.44 2.659-.128 5.442-.128 8.07l19.783.131c.449-.051.898-.101 2.277-.016l110.768-2.169c14.024-.485 27.66-4.483 40.352-10.756 0 0-.001.084.631.028.51-.307 1.02-.614 1.421-.952 0 0 .023.111.754-.012l11.235-6s.015.117.615-.006c.468-.349.936-.699 1.329-1.087 0 0 .012.084.649-.016.841-.618 1.682-1.236 2.418-1.885 0 0 .021.108.692-.049l5.296-3.969s.016.107.634-.055c.8-.659 1.599-1.317 2.306-2.032 0 0 .052.095.676-.077 1.135-.961 2.269-1.923 3.329-2.919 0 0 .011.082.547-.058.219-.283.438-.565.522-.868 0 0 .025.133.56-.039.217-.29.434-.58.517-.88 0 0 .067.117.685-.066 1.084-1.015 2.168-2.03 3.163-3.096 0 0 .049.09.613-.112.518-.592 1.036-1.184 1.454-1.807 0 0 .012.104.539-.08.197-.305.394-.61.461-.934m519.911-111.902c.244-.218.392-.488.338-.72 0 0 .126-.06.646-.398.745-1.002 1.489-2.003 2.671-3.152.263-.208.386-.479.917-1.115l2.116-3.224s.105-.197.516-.659c10.414-15.836 13.568-33.303 11.762-52.427-.054-.168-.108-.337-.087-1.309-1.761-9.966-3.958-19.782-9.758-28.275 0 0 .101-.019.015-.48-.029-.334-.182-.595-.515-.97 0 0-.092-.171-.418-.719l-5.119-6.808s.093-.01-.104-.62c-.879-.908-1.758-1.817-2.66-2.58 0 0 .113-.095-.108-.637-.553-.531-1.107-1.061-1.75-1.545 0 0 .002-.102-.2-.497-.177-.25-.41-.426-.801-.541 0 0 .034-.097-.322-.606-1.339-1.028-2.678-2.056-4.05-2.994 0 0 .096-.006-.097-.522-.317-.168-.635-.337-.964-.422 0 0 .075-.038-.145-.558-.462-.315-.924-.631-1.564-.572 0 0 .13-.394-.227-.832-.66-.36-1.32-.719-2.303-1.686-13.549-9.144-28.693-13.573-45.705-15.324-3.358.046-6.717.092-10.753-.162-.591.012-1.182.024-2.251-.73H683.824l-.799 8.925 23.935 10.016s-.097.05.162.621c.924.829 1.848 1.658 2.82 2.384 0 0-.1.053.086.737.921 2.098 1.841 4.196 2.837 7.22.187 4.485.529 8.969.536 13.454l.15 132.255-.008 55.752c-.024 1.22-.047 2.44-.312 4.55l-.406 12.398c-.341 7.191-2.096 13.682-9.815 17.508l-19.828 6.562 1.285 10.093h110.604c0-1.841-.282-3.547.052-5.122 1.085-5.115-1.904-6.289-6.024-7.524-6.754-2.024-13.278-4.813-19.953-7.112 0 0 .175-.017-.055-.555-.335-.192-.67-.384-1.111-.982-.178-.248-.42-.367-.962-.922-.728-.927-1.456-1.854-2.286-3.017 0 0-.168-.195-.369-.572a23.64 23.64 0 0 1-.706-1.252s-.066-.165-.38-.856l-2.298-17.324c-.068-.448-.136-.897-.115-2.278v-73.19l36.986.133 18.9-2.275 24.305-7.651s.001.099.746.006l17.267-10.009s.052.103.682-.06c1.139-.966 2.278-1.932 3.326-2.924 0 0 .012.094.597-.09.574-.564 1.148-1.127 1.569-1.725 0 0 .078.135.61-.064.544-.512 1.087-1.023 1.717-1.667 0 0 .115-.107.44-.279.204-.148.35-.341.579-.704 0 0 .129-.137.443-.309.197-.147.337-.336.55-.694 0 0 .127-.131.46-.331.209-.166.355-.377.469-.742 0 0 .111-.031.476-.233.23-.172.393-.393.519-.774 0 0 .109-.035.5-.293z"/><path fill="#015ab4" d="M158.997 636.852c-.449.051-.898.101-1.993-.186-4.78-.451-8.926-.806-13.046-.611-4.113.195-5.805-1.806-4.77-5.337.568-1.937 2.594-3.828 4.446-4.921 2.883-1.702 6.177-2.707 9.297-4.008 0 0 .002.112.348.136 2.768-1.367 5.19-2.759 7.613-4.151 0 0 .025.129.229.05.41-.374.617-.669.823-.964 0 0 .01.085.318.055.735-.724 1.163-1.419 1.59-2.114 0 0 .033.107.252-.008.262-.475.307-.835.351-1.195l.54-.032c1.489-5.053 3.797-10.087 3.839-15.139l.169-112.494-.178-96.995c-.035-3.653-2.513-7.284-3.858-10.925 0 0 .042-.005.007-.304-.413-.744-.791-1.189-1.169-1.635 0 0 .103-.008.094-.299-.48-.526-.951-.761-1.423-.996 0 0-.156-.174-.059-.525-.2-.382-.496-.413-.793-.444 0 0-.219-.109-.164-.55-.91-.835-1.875-1.229-2.84-1.622 0 0-.064-.094-.042-.475-1.933-1.098-3.888-1.815-5.843-2.533 0 0-.155-.016-.176-.406-4.331-2.303-8.64-4.216-13.018-6.159l.923-7.064h6.019l89.775-.028c1.913-.003 3.826-.546 5.738-.837 19.449-.049 38.592 2.13 57.486 8.297.58.83.832 1.434 1.266 1.628l28.569 12.595c2.311 1.007 4.707 1.817 7.063 2.717 0 0 .06.093.034.458 1.565 1.261 3.156 2.157 4.747 3.053 0 0-.102.045-.073.353 1.373 1.089 2.718 1.87 4.062 2.651 0 0-.107.058-.072.36 1.156.952 2.278 1.601 3.4 2.251-.135.156-.27.312-.241.549.505.136.847.191 1.189.246 0 0 .115.103.08.453.512.627 1.058.904 1.605 1.181 0 0-.077.031.033.242.417.389.723.568 1.03.746 0 0-.109.016-.012.223.403.397.709.586 1.015.776 0 0-.091.005-.088.321 2.031 2.086 4.059 3.856 6.087 5.626 0 0-.086.043-.001.26.389.41.693.603.997.796 0 0-.107.015-.014.223.391.403.688.599.986.795 0 0-.089.015-.075.334 1.394 1.753 2.774 3.187 4.154 4.621 0 0-.104.017-.112.33 1.325 1.782 2.658 3.25 3.991 4.719 0 0-.084.036-.079.37 1.702 2.77 3.399 5.206 5.096 7.643 0 0-.085.015-.085.362.394 1.592.712 2.868 1.194 4.078 3.412 8.566 7.523 16.92 10.154 25.717 5.419 18.121 8.133 36.646 5.715 55.673-.379 2.986.473 6.128.756 9.198-3.508 30.958-14.283 58.597-37.499 81.048-.801.557-1.017.888-1.233 1.218 0 0-.017-.145-.224-.059-.399.401-.591.716-.784 1.031 0 0-.022-.13-.23-.041a4.91 4.91 0 0 0-.78 1.029c0 0-.012-.104-.311-.095-.772.673-1.246 1.337-1.72 2.001 0 0-.049-.09-.373-.061-1.368 1.103-2.413 2.176-3.457 3.25 0 0-.067-.117-.289-.063-.425.369-.627.683-.83.998 0 0-.025-.133-.228-.058-.421.361-.638.647-.855.934 0 0-.011-.082-.334-.057-1.425 1.039-2.527 2.052-3.629 3.066 0 0-.052-.095-.35-.071-1.074.739-1.85 1.454-2.626 2.17 0 0-.016-.107-.328-.113-2.093 1.373-3.874 2.753-5.656 4.133 0 0-.021-.108-.313-.126-1.116.656-1.939 1.329-2.763 2.003 0 0-.012-.084-.3-.063-.739.411-1.19.8-1.642 1.19 0 0-.015-.117-.349-.148-4.1 2.031-7.866 4.093-11.632 6.155 0 0-.023-.111-.299-.128-.776.33-1.277.678-1.778 1.025 0 0 .001-.084-.367-.1-1.652.235-2.999.316-4.21.764-17.32 6.398-35.281 9.818-53.66 10.072l-88.326.194c-1.831.007-3.657 1.157-5.485 1.775m152.653-46.019s-.105-.326.508-.232c.159-.343.318-.686.542-.88 0 0-.138-.084.579-.049.663-1.048 1.326-2.097 2.115-3.233 0 0 .076-.133.721.066.278-.556.556-1.113.919-2.111.147-.301.388-.458 1.448-.492.805-1.35 1.61-2.699 2.461-3.951 0 0-.098-.048.627-.066.721-1.389 1.442-2.779 2.207-4.036 0 0-.133-.04.51-.199.208-.592.416-1.185.654-1.695 0 0-.086-.012.584-.235l7.388-15.783s-.091-.007.606-.238c.516-.812 1.204-1.561 1.524-2.444 9.238-25.424 12.023-51.771 10.844-78.613-.172-3.904-1.792-7.745-2.967-12.316-.163-.714-.327-1.428.189-2.491.166-.273.514-.577.474-.814-2.518-14.609-7.823-28.231-14.772-41.249-.338-.632-1.543-.801-2.34-1.299 0 0-.057-.097.138-.645-.267-.248-.533-.497-.703-.756 0 0-.027.093.002-.638l-2.621-2.804s-.116-.227.231-.799c-.577-.574-1.153-1.148-1.614-1.749 0 0-.013.118-.153-.411-.287-.209-.574-.419-.78-.641 0 0-.034.075-.054-.649-1.026-1.092-2.051-2.184-2.975-3.323 0 0-.051.099-.005-.408l-1.619-.796-23.643-20.189c-.599-.194-1.199-.388-1.719-.613 0 0-.006.085-.243-.582-1.832-1.099-3.569-2.415-5.512-3.26-12.285-5.345-25.319-7.803-38.527-9.084-9.071-.88-18.235-.879-27.361-1.023-1.413-.022-2.847 1.285-4.3 1.907 0 0 .069.035-.74.178-.425 1.983-1.22 3.965-1.222 5.949l-.053 233.908v4.873l1.003.005v-5.201l.035-232.909c.001-1.931.491-3.862.92-4.871v244.217c9.768 0 18.901 0 28.035.418 0 0 .002.418-.934.422h-25.953c5.761 1.008 11.523 1.12 17.277.964 3.214-.087 6.416-.621 10.543-.951 15.825.161 30.465-4.629 44.685-10.941 2.139-.95 3.765-3.055 5.812-4.776 0 0 .218-.093.827.34 1.217-.949 2.433-1.898 3.668-2.749 0 0-.096-.027.592-.002.349-.469.697-.938 1.233-1.133 0 0-.133-.304.572-.002 1.865-1.631 3.729-3.261 5.643-4.793 0 0-.097-.051.579-.061.236-.472.473-.944.856-1.534 0 0 .136-.13.786.169.404-.678.808-1.357 1.318-2.02 0 0 .044-.098.643.057.118-.345.236-.691.512-.733z"/><path fill="#0159b3" d="M553.988 474.009l-4.894 7.053 46.469 74.051 25.679 40.836c9.019 13.954 20.516 24.816 37.529 28.265 2.988.606 4.56 2.188 4.046 5.554-.319 2.088-.059 4.265-.059 7.064-4.856 0-9.463-.003-14.069.001l-100.958.141c-2.713.009-5.07-.552-4.601-3.477.477-2.978-2.953-7.373 3.269-8.776 5.746-1.296 11.514-3.204 16.751-5.867 6.811-3.464 8.975-9.857 5.427-15.852l-50.662-84.575-48.749 75.574c-1.091 1.239-1.558 2.209-2.025 3.18 0 0-.028-.099-.317.003-1.098 1.726-1.907 3.349-2.716 4.972 0 0-.026-.091-.328.023-4.95 5.024-5.037 10.809-.507 13.739.312-.006.549.124.858.879.489.668.831.848 1.173 1.027 0 0-.182.02-.067.251.716.428 1.317.624 1.918.82 0 0-.093.024.027.32 4.823 2.211 9.458 4.323 14.247 5.993 6.235 2.174 6.404 2.241 4.826 9.505-1.359.093-2.812.278-4.266.279-26.606.017-53.211.036-79.817-.033-2.025-.005-5.083 1.215-5.145-2.722-.049-3.073-.729-6.111 4.032-6.924 4.524-.773 8.893-2.641 13.214-4.327 1.697-.662 3.077-2.138 4.601-3.243 0 0 .026.112.343.152 1.779-.999 3.242-2.039 4.705-3.078 0 0 .012.093.313.097 1.091-.705 1.88-1.414 2.67-2.123 0 0 .016.104.306.099.534-.471.779-.937 1.023-1.404 0 0 .168-.143.534-.055.467-.238.568-.565.669-.892 0 0 .092.038.452.068 2.373-2.342 4.387-4.713 6.401-7.085 0 0 .121-.082.47-.042.616-.511.883-1.064 1.149-1.616 0 0 .027.082.243-.024a4.56 4.56 0 0 0 .723-1.067s.012.112.33.099c.788-.998 1.258-1.984 1.729-2.97 0 0 .042.073.253-.046a4.73 4.73 0 0 0 .688-1.081c0 0 .011.111.333.095.778-1.016 1.234-2.017 1.691-3.018 0 0 .025.088.245-.033.325-.475.431-.829.536-1.183 0 0 .028.163.291.079.483-.677.703-1.271.923-1.864 0 0 .021.087.301-.015.501-.811.722-1.521.944-2.231 0 0 .105-.267.523-.21 2.024-2.809 3.629-5.675 5.234-8.541 0 0 .022.086.314-.023 1.753-2.736 3.214-5.363 4.676-7.991 0 0 .027.092.323-.016 1.097-1.723 1.897-3.338 2.697-4.953 0 0 .032.084.315-.032.737-1.084 1.19-2.053 1.644-3.022 0 0 .026.104.312 0 1.103-1.719 1.92-3.335 2.737-4.95 0 0 .045.091.369.048.736-1.067 1.149-2.091 1.561-3.114 0 0 .034.115.276-.008.436-.711.63-1.299.824-1.887 0 0 .038.07.313-.055.738-1.076 1.2-2.026 1.663-2.976 0 0 .047.088.367.046.753-1.047 1.185-2.052 1.618-3.058 0 0 .025.083.31-.027.745-1.074 1.205-2.039 1.666-3.003 0 0 .025.096.308-.008.752-1.068 1.222-2.032 1.691-2.996 0 0 .025.099.307-.004.751-1.069 1.22-2.034 1.689-2.998 0 0 .029.097.249-.023.278-.482.335-.844.393-1.206 0 0-.042.015.306.006.582-.599.817-1.19 1.052-1.78 0 0 .043.103.364.071.765-1.037 1.21-2.042 1.655-3.047 0 0 .025.089.307-.017.757-1.061 1.232-2.016 1.708-2.971 0 0 .023.084.299-.02.528-.818.779-1.532 1.03-2.246 0 0 .106-.176.513-.117 1.305-1.517 2.203-3.094 3.101-4.671 0 0 .029.104.31.011.773-1.042 1.265-1.99 1.757-2.938 0 0 .052.092.374.039.534-.81.745-1.567.957-2.325 0 0 .113-.13.489-.106.617-.549.858-1.122 1.099-1.695 0 0 .059.122.374.092.776-1.023 1.237-2.016 1.699-3.009 0 0 .066.097.371.054 1.096-1.39 1.886-2.737 2.676-4.084-.005-.308.1-.573.884-.871 1.837-1.309 3.556-2.343 4.214-3.843.421-.959-.725-2.605-1.169-3.944l-20.515-35.139-19.092-31.913c-2.061-3.705-4.255-6.866-6.45-10.026 0 0 .103-.051.096-.343-.692-1.1-1.376-1.908-2.06-2.716 0 0 .086-.012.093-.354-1.049-1.747-2.105-3.151-3.161-4.555 0 0 .115-.079.128-.395-.687-1.091-1.388-1.866-2.089-2.642 0 0 .105-.054.111-.376-.685-1.101-1.375-1.88-2.066-2.659 0 0 .092-.041.063-.363-1.354-2.107-2.679-3.892-4.005-5.677 0 0 .067-.019.054-.366-2.725-4.086-5.437-7.824-8.15-11.563 0 0 .101-.053.084-.367-1.031-1.427-2.045-2.54-3.058-3.654 0 0 .094-.046.063-.339-.51-.567-.989-.84-1.468-1.114 0 0 .021-.11.081-.484-.867-1.256-1.793-2.138-2.72-3.02 0 0 .094-.035.002-.255-.404-.417-.716-.614-1.027-.812-.331-.013-.578-.163-.808-1.035-1.106-1.378-2.147-2.171-3.188-2.964-.319-.002-.572-.132-.829-.964-1.189-1.165-2.308-1.757-3.427-2.349 0 0-.14-.11-.081-.513-1.171-.97-2.401-1.537-3.631-2.104 0 0 .094-.029-.013-.322-5.038-2.518-9.876-4.99-14.926-6.903-5.569-2.11-5.85-2.296-3.975-8.599h112.347c1.524 7.114 1.508 7.058-4.871 8.804-1.525.417-2.91 1.344-4.359 2.037 0 0-.002-.085-.356-.104-1.618.82-2.882 1.659-4.146 2.498 0 0-.078-.037-.394-.106-.569.196-.822.46-1.075.724 0 0-.007-.087-.319-.079-1.028.779-1.743 1.549-2.458 2.319 0 0-.028-.14-.356-.162-.584.706-.84 1.434-1.096 2.162 0 0-.109.2-.559.18-1.063 1.741-2.31 3.549-2.182 5.254.645 8.559 5.356 15.123 11.09 21.085 0 0-.093.011-.115.347 2.041 3.43 4.104 6.524 6.167 9.618 0 0-.108.02-.139.341 1.026 1.766 2.085 3.211 3.143 4.655 0 0-.107.023-.115.315.441.689.891 1.087 1.341 1.485 0 0-.129.095-.14.309.268.458.548.702.829.947 0 0-.088.009-.102.336 1.037 1.766 2.088 3.204 3.139 4.643 0 0-.093.014-.117.351 1.671 2.775 3.367 5.213 5.062 7.651 0 0-.097.044-.099.365 1.045 1.762 2.092 3.203 3.139 4.644 0 0-.092.01-.11.35 1.034 1.755 2.087 3.171 3.14 4.586 0 0-.104.056-.103.367.814 1.25 1.628 2.188 2.441 3.126 0 0 .041.141-.044.475.193.568.471.803.749 1.037 0 0-.107.024-.123.334 1.026 1.768 2.068 3.225 3.109 4.682 0 0-.102.021-.136.346.647 1.119 1.328 1.913 2.009 2.707 0 0-.088.044-.082.366 1.038 1.765 2.069 3.208 3.101 4.65 0 0-.084.008-.065.295.405.742.791 1.198 1.176 1.654 0 0-.12.013-.126.281.558.805 1.121 1.342 1.684 1.88 0 0 .159 0 .209.341.393.497.736.653 1.079.809l.2-1.648s.114-.09.508-.048c.973-1.18 1.552-2.402 2.13-3.625 0 0 .057.084.377.032.524-.805.726-1.558.929-2.311 0 0 .109-.18.525-.125 1.666-2.165 2.917-4.385 4.168-6.605 0 0 .031.078.247-.052.312-.484.409-.839.505-1.193 0 0 .032.16.297.076.48-.682.696-1.279.912-1.877 0 0 .026.093.302-.005.497-.805.718-1.512.939-2.22 0 0 .1-.28.531-.225 1.158-1.548 1.886-3.15 2.614-4.752 0 0 .096-.147.513-.115.756-.941 1.096-1.915 1.435-2.889 0 0 .099-.192.525-.146 1.003-1.176 1.581-2.397 2.159-3.618 0 0 .056.097.375.051.749-1.055 1.18-2.064 1.61-3.073 0 0 .051.101.373.062.747-1.056 1.172-2.073 1.598-3.091 0 0 .029.1.318.005 2.2-3.472 4.111-6.849 6.023-10.227 0 0 .09-.233.518-.169.999-1.161 1.569-2.386 2.139-3.611 0 0 .028.103.319.004 1.332-2.118 2.373-4.136 3.414-6.155 0 0 .102.261.366.109.477-.753.69-1.355.902-1.956 0 0 .054.115.369.084 1.106-1.694 1.897-3.356 2.688-5.019 0 0 .035.08.331-.044.87-1.481 1.445-2.837 2.02-4.194 0 0 .091-.139.477-.139.546-.612.707-1.225.868-1.839 0 0 .161.251.436.123.799-1.397 1.324-2.667 1.849-3.936 0 0 .026.087.326-.031 1.061-.974 1.909-1.768 2.569-2.696 3.223-4.53 2.306-10.502-1.95-13.017 0 0 .088-.029-.005-.246a4.63 4.63 0 0 0-1.02-.773s.098-.009.079-.323c-5.461-2.801-10.712-5.945-16.397-7.603-6.618-1.929-7.391-2.338-5.746-9.862h87.524c2.26 7.003 2.229 6.891-4.639 8.792-2.304.638-4.403 2.011-6.596 3.048 0 0-.005-.083-.352-.096-3.439 1.696-6.531 3.404-9.623 5.113 0 0-.008-.088-.34-.101-1.099.688-1.864 1.39-2.63 2.092 0 0-.045-.095-.366-.076-1.434 1.062-2.546 2.105-3.659 3.149-.016.334-.174.576-1.033.793-.795.544-1.03 1.021-1.265 1.497 0 0-.167.155-.52.064-.396.213-.44.517-.484.82 0 0-.138.202-.505.137-.412.246-.457.558-.502.869 0 0-.11.163-.485.124-.646.505-.917 1.049-1.189 1.593 0 0-.038-.08-.248.022-.396.403-.581.703-.766 1.003 0 0-.012-.094-.304.009-1.402 1.744-2.511 3.385-3.621 5.026 0 0-.067-.131-.379-.102-2.662 4.104-5.012 8.179-7.363 12.254 0 0-.013-.283-.352-.142-1.533 2.423-2.725 4.705-3.918 6.988 0 0-.027-.102-.322.001-1.109 1.711-1.923 3.319-2.736 4.927 0 0-.038-.077-.319.049-.717 1.101-1.154 2.076-1.59 3.051 0 0-.035-.107-.256.004-.264.47-.307.83-.35 1.189 0 0-.07.06-.414.023-1.817 2.611-3.289 5.259-4.761 7.908 0 0-.089-.204-.349-.084-.49.708-.72 1.296-.95 1.884 0 0-.044-.091-.369-.043-.507.8-.689 1.551-.872 2.302 0 0-.116.235-.538.187-1.014 1.16-1.607 2.369-2.199 3.578 0 0-.025-.09-.307.015-.759 1.057-1.236 2.009-1.713 2.961 0 0-.028-.082-.314.03-1.743 2.409-3.199 4.707-4.656 7.005 0 0-.024-.095-.306.006-.766 1.052-1.25 2.002-1.734 2.953 0 0-.047-.087-.356-.051-1.082 1.379-1.855 2.723-2.628 4.067 0 0-.049-.097-.363-.057-.776 1.018-1.239 1.998-1.701 2.977 0 0-.035-.049-.243.069-.38.418-.551.717-.723 1.016 0 0-.012-.088-.325-.061-1.097 1.364-1.88 2.702-2.664 4.039 0 0-.045-.088-.351-.051-1.4 1.73-2.493 3.424-3.587 5.117 0 0-.027-.102-.305-.011-.597.821-.916 1.55-1.236 2.28 0 0-.106.005-.401-.018-.379.076-.539.18-.533.273.014.218.109.432.17.647 0 0-.1.265-.515.224-.653.522-.891 1.085-1.129 1.647 0 0-.038-.112-.328-.03-1.092 1.391-1.894 2.7-2.696 4.008 0 0-.037-.106-.263 0-.332.466-.438.825-.545 1.185 0 0 .084-.1-.129-.108-.345.021-.477.051-.608.08l.364.643z"/><path fill="#015ab4" d="M703.761 619.861c6.968-3.763 8.723-10.254 9.064-17.445.196-4.13.274-8.265.715-12.628.561-.036.806.17 1.076.336.034.021.281-.159.286-.254.052-.988.103-1.978.103-2.968l-.009-191.9c0-.923-.21-1.846-.323-2.77l-.663.052v4.423l-.005 160.916-.168 26.969-.285-54.875-.15-132.255c-.008-4.485-.35-8.97-.291-14.106-.926-2.852-2.097-5.052-3.268-7.252 0 0 .1-.053.083-.363-1.032-1.089-2.047-1.867-3.062-2.645 0 0 .097-.05.061-.36-5.465-2.87-10.784-5.71-16.353-7.915-6.126-2.426-6.582-2.867-4.583-9.812h5.769l109.804-.137c.591-.012 1.182-.024 2.413.38 4.1.248 7.559.079 11.018-.09 16.106 1.586 31.251 6.015 44.774 15.644.878.869 1.782 1.255 2.685 1.64 0 0-.13.394-.086.545.61.415 1.175.678 1.74.941 0 0-.075.038.037.248a4.92 4.92 0 0 0 1.044.728s-.096.006-.083.312c1.473 1.27 2.933 2.233 4.392 3.197 0 0-.034.097-.057.411.327.416.676.52 1.026.623 0 0-.002.102-.047.426.642.804 1.328 1.283 2.015 1.762 0 0-.113.095-.117.367.951 1.154 1.906 2.036 2.861 2.918 0 0-.093.01-.09.332 1.816 2.56 3.629 4.797 5.442 7.035 0 0 .092.171-.01.526.166.596.435.836.703 1.076 0 0-.101.019-.132.362.058.994.06 1.672.251 2.291l7.784 24.937c.198.618 1.104 1.01 1.681 1.507.054.168.108.337-.163 1.077-.436 1.387-.672 2.207-.639 3.016.685 16.764-2.179 32.655-11.361 47.045-.326.511.085 1.494.153 2.256 0 0-.105.197-.531.145-1.03 1.158-1.633 2.368-2.236 3.578.016.334-.107.606-.969.893-1.263 1.19-1.927 2.3-2.591 3.41 0 0-.126.06-.385.014-.329.31-.4.667-.47 1.024 0 0-.109.035-.425.008-.4.316-.484.66-.568 1.004 0 0-.111.031-.423 0-.371.304-.431.638-.49.972 0 0-.127.131-.472.078-.403.271-.461.595-.518.919 0 0-.129.137-.481.083-.418.274-.485.602-.552.93 0 0-.115.107-.489.043-.875.601-1.375 1.265-1.875 1.929 0 0-.078-.135-.337-.126-.805.64-1.35 1.27-1.896 1.901 0 0-.012-.094-.334-.093-1.426 1.03-2.53 2.058-3.634 3.086 0 0-.052-.103-.37-.093l-17.693 10.092c0 0-.001-.099-.366-.121l-24.871 6.369c-.064.017.093.863.147 1.321-6.038.752-12.077 1.505-18.855 1.917-12.013-.448-23.286-.553-34.56-.662-3.323-.032-3.577 2.173-3.574 4.722l.09 66.243c.007 1.346 1.114 2.686 1.709 4.029.068.448.136.897-.127 1.992-.435 3.603-1.045 6.657-.499 9.488.529 2.746 2.246 5.263 3.441 7.88 0 0 .066.165-.1.558.247.674.66.955 1.073 1.236 0 0 .168.195.043.616.799 1.334 1.723 2.247 2.647 3.16.305-.009.547.11.875.849.497.67.844.849 1.192 1.028 0 0-.175.017-.097.291 5.205 5.638 12.295 6.543 18.91 8.406 6.454 1.817 6.961 2.477 4.957 9.133-.446.102-.922.305-1.399.305-34.07.027-68.141-.007-102.211.118-3.323.012-4.178-2.065-4.171-4.281.004-1.422 1.402-3.466 2.726-4.125 2.628-1.308 5.729-1.631 8.462-2.772 2.537-1.06 4.851-2.657 7.262-4.017m127.6-229.269s-.123-.132.175-.788c-.999-.901-1.998-1.803-3.587-2.952-7.273-6.974-15.908-11.828-25.836-12.763-13.855-1.305-27.825-1.379-42.5-1.586-.205.784-.589 1.567-.59 2.351l.034 120.328c.003 1.246 1.002 2.49 2.399 3.784 11.913-.669 23.936-.554 35.715-2.192 17.343-2.412 31.534-10.625 38.384-27.611 3.219-7.982 4.485-16.753 7.399-25.381.334-.534.973-1.078.955-1.6-.321-9.452-.115-18.98-1.347-28.318-.67-5.078-3.811-9.831-5.719-14.756 0 0-.034.116.042-.56-.388-.476-.776-.953-1.034-1.451 0 0-.034.127.035-.602-1.06-1.445-2.12-2.891-3.06-4.367 0 0-.037.118.034-.576-.465-.271-.93-.541-1.498-.96z"/><path d="M164.976 378.418c1.334 3.238 3.812 6.869 3.847 10.522l.178 96.995-.169 112.494c-.042 5.053-2.35 10.086-3.993 15.122.462-4.348 2.038-8.687 2.047-13.031l.017-211.665c-.005-3.346-1.249-6.69-1.928-10.437zm538.41 241.475c-2.036 1.329-4.349 2.926-6.887 3.986-2.733 1.142-5.833 1.465-8.462 2.772-1.324.659-2.722 2.703-2.726 4.125-.006 2.216.848 4.293 4.171 4.281l102.211-.118c.476 0 .953-.204 1.399-.305 2.004-6.656 1.497-7.316-4.957-9.133-6.616-1.862-13.705-2.768-18.884-8.49 6.57 2.108 13.094 4.898 19.848 6.922 4.12 1.235 7.108 2.408 6.024 7.524-.334 1.575-.052 3.281-.052 5.122H684.467l-1.285-10.093 20.204-6.593zM501.463 366.114c1.022-.658 2.407-1.585 3.931-2.002 6.379-1.745 6.394-1.689 4.871-8.804H397.919c-1.875 6.303-1.594 6.489 3.975 8.599 5.05 1.913 9.888 4.385 14.921 6.952-6.962-2.329-14.025-5.001-21.441-7.805l.835-9.682H512.19c1.033 10.628.302 11.527-10.727 12.742zM418.5 617.811c-1.153 1.035-2.532 2.511-4.229 3.173-4.32 1.686-8.689 3.554-13.214 4.327-4.76.813-4.08 3.851-4.032 6.924.062 3.936 3.121 2.716 5.145 2.722l79.817.033c1.454-.001 2.907-.186 4.266-.279 1.578-7.264 1.409-7.33-4.826-9.505-4.789-1.67-9.424-3.782-14.244-6.041 5.212 1.382 10.479 3.344 15.889 4.753 3.796.989 5.779 2.603 5.032 6.805-.337 1.894-.057 3.898-.057 6.065h-92.612c-.151-.641-.348-1.097-.354-1.555-.127-9.686-.09-9.576 9.088-12.346 4.726-1.426 9.31-3.323 14.33-5.076zm382.821-263.324l-109.565.52h-5.769c-1.999 6.945-1.543 7.386 4.583 9.812 5.57 2.205 10.888 5.045 16.329 7.964-7.828-2.96-15.667-6.279-23.875-9.754l.799-8.925 117.497.383zM159.462 636.92c1.363-.686 3.19-1.836 5.02-1.843l88.326-.194c18.379-.254 36.34-3.674 53.66-10.072 1.211-.447 2.558-.528 4.25-.75-12.363 6.275-25.999 10.272-40.023 10.758-36.904 1.277-73.843 1.517-111.233 2.101zm480.985-269.814c1.785-1 3.885-2.373 6.188-3.011 6.868-1.902 6.899-1.789 4.639-8.792H563.75c-1.645 7.523-.872 7.932 5.746 9.862 5.685 1.657 10.935 4.802 16.383 7.65-7.742-2.761-15.489-5.884-23.794-9.232l-.442-9.796h91.991v10.123l-13.187 3.196zm-398.915-13.04c-1.449.364-3.361.906-5.274.909l-89.775.028h-6.019l-.923 7.064c4.377 1.943 8.687 3.856 12.941 6.144-2.231-.402-4.408-1.175-6.581-1.958-8.897-3.203-8.897-3.204-7.372-12.26l103.003.072zM713.69 585.029l.315-27.407.005-160.916v-4.423l.663-.052c.112.923.322 1.846.323 2.77l.009 191.9-.103 2.968c-.005.095-.251.275-.286.254-.269-.166-.514-.372-.955-.781-.165-1.435-.141-2.655.029-4.314zm47.131 4.501c-.639-.876-1.746-2.217-1.753-3.562l-.09-66.243c-.003-2.548.252-4.754 3.574-4.722l34.133.596c-11.649.274-23.612.274-35.82.274l-.044 73.657zm-368.886-75.966c-.365-2.651-1.217-5.793-.837-8.779 2.418-19.027-.296-37.552-5.715-55.673-2.631-8.797-6.742-17.151-10.154-25.717-.482-1.21-.8-2.486-1.174-4.116 9.362 14.047 14.16 30.17 16.879 46.897 2.529 15.554 3.157 31.256 1.002 47.388zm487.066-37.413c-.273-.532-.685-1.514-.358-2.025 9.183-14.39 12.046-30.281 11.361-47.045-.033-.809.203-1.629.587-2.756 2.183 18.292-.971 35.759-11.59 51.826zM336.14 379.165l-6.823-2.508-28.569-12.595c-.434-.193-.686-.797-.902-1.471 12.098 5.281 24.076 10.822 36.295 16.573zM152.532 621.831c-2.72 1.259-6.015 2.265-8.898 3.967-1.852 1.093-3.878 2.983-4.446 4.921-1.035 3.531.657 5.532 4.77 5.337 4.12-.195 8.266.16 12.711.545-5.798.272-11.907.272-18.802.272 0-2.629-.312-5.412.128-8.07.229-1.384 1.533-3.21 2.788-3.686 3.665-1.391 7.55-2.204 11.749-3.285zm738.312-199.245c-.614-.095-1.52-.486-1.718-1.105l-7.784-24.937c-.191-.62-.193-1.297-.236-2.34 5.818 8.198 8.015 18.014 9.738 28.382zm-391.739-23.014c-5.654-5.614-10.365-12.178-11.01-20.737-.128-1.705 1.119-3.514 2.112-5.164-2.078 4.316-1.349 8.323 1.038 12.294 2.641 4.391 5.19 8.837 7.859 13.608zM816.358 513.74c-.446-.45-.603-1.295-.539-1.312l24.919-6.355c-7.721 2.577-15.854 5.118-24.38 7.667zm25.071-7.607c5.42-3.314 11.211-6.675 17.374-10.022-5.42 3.335-11.211 6.655-17.374 10.022zM586.955 374.467c4.14 2.156 5.056 8.128 1.834 12.659-.66.928-1.508 1.722-2.614 2.693 1.683-4.788 4.973-9.588.781-15.352zM463.127 615.526c-4.386-2.54-4.299-8.325.698-13.346-1.291 4.131-4.021 8.274-.698 13.346zm300.308-6.515c-1.038-2.272-2.755-4.789-3.284-7.534-.546-2.831.064-5.885.436-9.152 1.075 5.24 1.884 10.79 2.849 16.686zM604.66 401.118c2.095-3.859 4.446-7.934 7.166-11.993-2.057 3.936-4.484 7.856-7.166 11.993zm-167.728-9.678c2.621 3.403 5.333 7.141 8.037 11.254-2.654-3.39-5.3-7.154-8.037-11.254zM313.487 623.189c3.4-2.001 7.166-4.063 11.323-6.077-3.392 2.037-7.174 4.026-11.323 6.077zm144.412-199.734c2.122 2.817 4.316 5.977 6.307 9.343-2.214-2.863-4.224-5.931-6.307-9.343zm111.095-6.63c-1.707 3.147-3.619 6.525-5.87 9.99 1.662-3.195 3.664-6.477 5.87-9.99zm-63.838-7.287a114.62 114.62 0 0 1-6.074-9.316c2.021 2.736 4.007 5.852 6.074 9.316zm-1.209 91.036c.381.954 1.527 2.6 1.106 3.559-.658 1.499-2.376 2.533-4.01 3.765.746-2.313 1.857-4.627 2.904-7.325zm126.475-128.481c2.734-1.642 5.827-3.35 9.306-5.035-2.725 1.672-5.836 3.32-9.306 5.035zm-271.369 26.463c-1.906-1.462-3.935-3.232-5.95-5.361 1.951 1.445 3.89 3.249 5.95 5.361zm159.007 32.02a70.54 70.54 0 0 1-4.973-7.355c1.656 2.083 3.276 4.549 4.973 7.355zm-65.47 149.435c-1.301 2.709-2.907 5.575-4.829 8.283 1.297-2.814 2.911-5.47 4.829-8.283zm-16.542 23.704l-6.163 6.839c1.733-2.268 3.828-4.456 6.163-6.839zm21.539-31.706c-1.165 2.459-2.627 5.087-4.424 7.818 1.152-2.481 2.64-5.065 4.424-7.818zm132.056-146.891c1.215-2.436 2.687-5.084 4.522-7.653-1.18 2.533-2.722 4.987-4.522 7.653zm-215.585-6.51c-1.637-2.09-3.334-4.526-5.013-7.336 1.663 2.081 3.307 4.535 5.013 7.336zm506.309-26.594l-5.267-6.806c1.708 1.933 3.406 4.232 5.267 6.806zm-170.432-15.569c1.078 1.858 2.25 4.058 3.138 6.447-1.204-1.909-2.124-4.007-3.138-6.447zM160.548 617.87c-2.079 1.296-4.501 2.688-7.322 4.038 2.06-1.342 4.52-2.643 7.322-4.038zM577.42 443.012c1.156-2.146 2.612-4.444 4.398-6.848-1.146 2.161-2.621 4.429-4.398 6.848zm-29.796 7.029c-.952 2.062-2.203 4.283-3.8 6.367.936-2.16 2.219-4.185 3.8-6.367zm52.808-42.029a38.4 38.4 0 0 1 3.65-6.681c-.872 2.17-2.112 4.342-3.65 6.681zm214.106-52.934c-3.006.251-6.466.42-10.227.322 3.057-.313 6.415-.358 10.227-.322zM330.454 614.162c1.446-1.301 3.228-2.681 5.373-4.04-1.437 1.334-3.237 2.647-5.373 4.04zm114.558-210.798c1.25 1.454 2.575 3.239 3.904 5.39-1.273-1.443-2.551-3.251-3.904-5.39zm130.326 3.515a40.1 40.1 0 0 1-3.216 5.932c.759-1.846 1.862-3.781 3.216-5.932zm-422.349-38.051c1.7.521 3.654 1.239 5.53 2.336-1.811-.46-3.543-1.3-5.53-2.336zm409.444 94.209c.8-1.543 1.894-3.237 3.339-4.947-.781 1.588-1.913 3.192-3.339 4.947zm-38.299-22.505c-.981-1.086-2.034-2.501-3.056-4.301 1.015 1.067 2 2.519 3.056 4.301zm-71.273-25.058c.988 1.074 2.044 2.478 3.078 4.265-1.018-1.057-2.014-2.496-3.078-4.265zm159.58-26.439c.815-1.494 1.925-3.135 3.373-4.872-.8 1.511-1.939 3.118-3.373 4.872zm-32.819 11.006c-.498 1.503-1.289 3.165-2.45 4.826.473-1.556 1.315-3.111 2.45-4.826zm-214.498 5.534c-1.282-1.116-2.662-2.55-4.038-4.344 1.316 1.102 2.628 2.564 4.038 4.344zm3.876 5.053c-1.232-1.154-2.565-2.622-3.875-4.455 1.273 1.137 2.523 2.639 3.875 4.455zm54.587 204.265c-1.131.961-2.593 2.001-4.428 2.985 1.117-1.005 2.607-1.956 4.428-2.985zM554.086 439.87c-.543 1.368-1.27 2.97-2.323 4.413.496-1.499 1.317-2.839 2.323-4.413zm43.286-26.921c.518-1.45 1.331-3.058 2.492-4.761-.5 1.471-1.349 3.037-2.492 4.761zm-89.203 1.598c-.987-1.111-2.045-2.556-3.056-4.374 1.026 1.098 2.005 2.569 3.056 4.374zM341.014 382.59a17.77 17.77 0 0 1-4.544-2.758c1.52.577 2.959 1.52 4.544 2.758zm194.051 76.029c-.97-1.108-2.002-2.551-3.013-4.358.997 1.098 1.975 2.561 3.013 4.358zm-21.943-36.037c-.982-1.105-2.033-2.544-3.055-4.351 1.015 1.093 2 2.555 3.055 4.351zm7.984 13.011c-.977-1.108-2.023-2.549-3.042-4.357 1.01 1.096 1.991 2.56 3.042 4.357zm348.212-57.432a22.53 22.53 0 0 1-4.198-2.988c1.342.677 2.681 1.705 4.198 2.988zM460.607 567.027c-.503 1.459-1.303 3.074-2.448 4.793.487-1.476 1.319-3.057 2.448-4.793zm28.953-44.07c-.609 1.427-1.507 3.003-2.749 4.439.59-1.524 1.525-2.907 2.749-4.439zm-150.17 85.079c.79-.928 1.892-1.941 3.355-2.962-.773.954-1.908 1.915-3.355 2.962zm160.271-99.044c-.497 1.203-1.287 2.55-2.433 3.91.476-1.246 1.308-2.506 2.433-3.91zm-154.108 94.22c.735-.982 1.779-2.056 3.192-3.133-.715 1.011-1.799 2.026-3.192 3.133zm277.821-226.109c.807-.922 1.92-1.966 3.402-3.007-.786.963-1.941 1.924-3.402 3.007zm-57.004 80.878c.491-1.197 1.274-2.534 2.412-3.881-.47 1.24-1.295 2.491-2.412 3.881zM465.616 559.029c-.521 1.455-1.338 3.071-2.494 4.782.506-1.477 1.352-3.049 2.494-4.782zm-31.654-171.636c.917.804 1.931 1.917 2.937 3.396-.952-.786-1.896-1.936-2.937-3.396zm96.201 63.157c-.97-1.123-2.012-2.581-3.021-4.401 1.004 1.114 1.977 2.59 3.021 4.401zm342.564 33.689c.404-.941 1.069-2.051 2.113-3.167-.364.995-1.109 1.997-2.113 3.167zm-527.716-98.642c-1.205-.488-2.549-1.269-3.898-2.408 1.25.466 2.504 1.29 3.898 2.408zm119.385 216.387c.519-1.454 1.328-3.077 2.477-4.795-.502 1.478-1.345 3.052-2.477 4.795zm395.038-105.885c.789-.946 1.893-1.974 3.365-2.991-.771.977-1.91 1.943-3.365 2.991zM582.085 395.886a20.24 20.24 0 0 1-1.884 3.945c.342-1.156 1.023-2.43 1.884-3.945zm-9.697 54.112c.481-1.202 1.254-2.546 2.382-3.907-.46 1.244-1.275 2.505-2.382 3.907zm-75.557-81.6c.967-.695 2.231-1.534 3.89-2.344-.934.753-2.264 1.476-3.89 2.344zm61.792 64.61a8.89 8.89 0 0 1-1.813 3.392c.271-1.171.902-2.212 1.813-3.392zm-137.876-59.045c.916.378 2.035.969 3.164 1.923-.981-.328-1.971-1.019-3.164-1.923zm-3.767-2.556a8.91 8.91 0 0 1 3.406 1.785c-1.178-.264-2.218-.887-3.406-1.785zm124.667 87.635a9.16 9.16 0 0 1-1.825 3.408c.272-1.159.91-2.209 1.825-3.408zm13.814 13.019c.51-1.161 1.313-2.469 2.463-3.849-.492 1.186-1.331 2.444-2.463 3.849zm30.147-82.042c-.238 1.104-.763 2.373-1.667 3.664.208-1.152.794-2.325 1.667-3.664zm-14.029 22.937a8.69 8.69 0 0 1-1.784 3.373c.269-1.185.888-2.208 1.784-3.373zm304.723 66.998a9.15 9.15 0 0 1 1.892-3.341c-.302 1.155-.96 2.173-1.892 3.341zM429.923 382.42c.825.589 1.751 1.471 2.565 2.709-.896-.568-1.68-1.492-2.565-2.709zm-81.619 5.828c-.949-.395-2.07-1.045-3.195-2.049 1.005.362 2.014 1.078 3.195 2.049zM467.56 555.951c-.13.874-.542 1.898-1.325 2.945.101-.916.572-1.856 1.325-2.945zm58.827-111.859a16.13 16.13 0 0 1-2.263-2.918c.716.64 1.412 1.647 2.263 2.918zm-53.768 103.914c-.149.863-.582 1.868-1.381 2.897.122-.903.61-1.828 1.381-2.897zm9.988-15.014c-.161.862-.605 1.867-1.422 2.88.132-.907.635-1.822 1.422-2.88zm14.015-19.981c-.176.859-.637 1.852-1.471 2.839.147-.905.666-1.805 1.471-2.839zm-71.683-135.659c.903.502 1.944 1.295 2.996 2.455-.945-.477-1.901-1.321-2.996-2.455zm15.712 220.688c-.189.848-.659 1.833-1.5 2.812.159-.896.689-1.785 1.5-2.812zM570.3 452.9c.195-.821.657-1.8 1.482-2.795-.163.869-.688 1.752-1.482 2.795zm-38.25.723c-.623-.48-1.305-1.274-1.937-2.443.659.46 1.269 1.295 1.937 2.443zm174.942-80.243c.886.493 1.901 1.271 2.908 2.411-.931-.468-1.855-1.296-2.908-2.411zM443.609 593.986c-.168.867-.625 1.868-1.455 2.865.14-.913.653-1.822 1.455-2.865zM158.822 371.82c.762.214 1.727.607 2.549 1.357-.878-.155-1.612-.666-2.549-1.357zm397.225 65.02c-.168.765-.507 1.739-1.219 2.604.101-.871.574-1.634 1.219-2.604zm4.557-6.85c-.147.865-.578 1.874-1.376 2.903.119-.906.606-1.833 1.376-2.903zm23.783 3.023a9.21 9.21 0 0 1 1.827-3.347c-.298 1.161-.924 2.184-1.827 3.347zM450.9 412.418c.633.464 1.334 1.24 1.99 2.393-.67-.442-1.297-1.262-1.99-2.393zm176.499-38.348c.461-.621 1.227-1.323 2.367-1.998-.437.657-1.25 1.287-2.367 1.998zm-64.822 52.895c-.145.869-.57 1.887-1.368 2.918.114-.914.601-1.842 1.368-2.918zm204.559 187.68c-.805-.631-1.729-1.545-2.478-2.76.903.625 1.631 1.552 2.478 2.76zM448.941 409.384c.627.468 1.318 1.247 1.975 2.4-.66-.447-1.286-1.268-1.975-2.4zm426.139-24.767c-.857-.577-1.812-1.459-2.751-2.686.895.564 1.774 1.472 2.751 2.686zM476.59 541.973c-.183.821-.652 1.784-1.453 2.846.167-.836.667-1.769 1.453-2.846zm118.858-125.92c.156-.821.592-1.796 1.352-2.89-.141.832-.606 1.784-1.352 2.89zM478.585 538.972c-.181.821-.65 1.785-1.452 2.848.166-.836.666-1.77 1.452-2.848zm-51.994 73.895c-.479.63-1.268 1.338-2.404 2.032.467-.661 1.28-1.307 2.404-2.032zm-99.229 3.2c.505-.623 1.328-1.297 2.497-1.937-.496.651-1.337 1.269-2.497 1.938zm135.213-52.105c-.166.825-.619 1.794-1.4 2.871.152-.837.632-1.782 1.4-2.871zm399.697-191.737a6.24 6.24 0 0 1-2.345-1.117c.846.179 1.507.539 2.345 1.117zm-369.693-.939c.425-.656 1.14-1.426 2.209-2.192-.404.695-1.161 1.386-2.209 2.192zm-7.96 158.719c-.189.812-.664 1.766-1.467 2.823.175-.825.678-1.753 1.467-2.823zm8.439-12.212c-.023.56-.234 1.317-.815 2.102-.037-.616.295-1.26.815-2.102zm-1.43 2.226c-.203.81-.695 1.758-1.522 2.79.188-.828.711-1.74 1.522-2.79zm83.735-74.042c.201-.804.685-1.755 1.499-2.8-.185.821-.701 1.738-1.499 2.8zm-100.775 98.995c-.17.826-.631 1.79-1.419 2.861.158-.837.643-1.78 1.419-2.861zm16.428-171.756c.077-.542.333-1.27.975-1.935-.008.625-.402 1.187-.975 1.935zm91.359 62.772c.191-.811.669-1.763 1.474-2.816-.177.824-.683 1.749-1.474 2.816zm4.663-6.788c-.009-.562.174-1.314.727-2.092.069.616-.234 1.26-.727 2.092zM470.635 551.023c-.18.803-.642 1.753-1.42 2.824.169-.812.653-1.744 1.42-2.824zM336.411 610.14c.467-.634 1.243-1.35 2.363-2.061-.456.663-1.255 1.321-2.363 2.061zm131.016-13.108c.18-.824.647-1.795 1.445-2.87-.165.838-.661 1.781-1.445 2.87zm75.625-140.215c-.024.55-.226 1.303-.796 2.086-.039-.608.289-1.245.796-2.086zm-87.123-36.45c.617.494 1.302 1.302 1.969 2.454-.646-.484-1.274-1.312-1.969-2.454zm407.451 72.728c.253-.538.798-1.169 1.679-1.791-.239.572-.812 1.135-1.679 1.791zm-312.446-48.292c-.03.517-.25 1.224-.796 2.025-.015-.549.295-1.192.796-2.025zm-64.888 82.991c-.062.515-.314 1.229-.885 2.043.019-.548.357-1.196.885-2.043zm-136.691 72.219c.192-.563.666-1.227 1.488-1.884-.17.599-.688 1.191-1.488 1.884zm522.969-218.647c-.576-.208-1.263-.688-1.859-1.515.643.183 1.196.713 1.859 1.515zM163.578 614.923c-.154.574-.581 1.269-1.357 1.98.129-.609.606-1.234 1.357-1.98zm702.008-123.609c.234-.565.735-1.229 1.566-1.764-.213.641-.756 1.153-1.566 1.764zm-327.89-28.522c-.462-.266-1.026-.803-1.567-1.667.503.248.984.822 1.567 1.667zm1.388-.036c.134.359.067.908.001 1.458-.343-.156-.686-.312-1.09-.73.255-.354.572-.446 1.09-.728zm21.74 2.517c.096-.546.415-1.276 1.064-2.088-.06.58-.45 1.242-1.064 2.088zM446.945 588.797c-.03.518-.252 1.228-.797 2.034-.014-.551.296-1.196.797-2.034zm-135.583 35.322c.184-.319.685-.667 1.516-.982-.179.34-.689.647-1.516.982zm39.653-233.436c-.451-.029-.998-.306-1.438-.903.518.005.931.33 1.438.903zM467.01 618.62c-.458.078-1.059-.119-1.754-.636.474-.093 1.042.134 1.754.636zM162.617 374.991c.329.025.801.259 1.266.835-.379.019-.751-.303-1.266-.835zm162.786 242.191c.151-.328.602-.717 1.379-1.108-.142.348-.611.697-1.379 1.108zM863.995 373.67c-.455-.003-1.02-.267-1.541-.868.507-.023.969.293 1.541.868zM445.616 590.977c.055.467-.165 1.06-.721 1.699-.076-.494.185-1.033.721-1.699zm-17.594 20.649c-.034.324-.279.79-.864 1.248-.009-.374.322-.74.864-1.248zm336.442-.664c-.312-.092-.726-.373-.942-.964.412.052.626.414.942.964zm-326.801-9.002c-.022.454-.289 1.006-.876 1.45-.003-.523.315-.937.876-1.45zm31.012-47.902c.072.437-.122 1.025-.617 1.73-.084-.448.134-1.013.617-1.73zm107.911-149.11c.058.47-.155 1.072-.71 1.709-.082-.502.179-1.04.71-1.709zm-67.211 11.447c-.359-.112-.809-.51-1.236-1.252.397.092.771.529 1.236 1.252zm26.8 44.206c-.322-.154-.708-.609-1.097-1.391.342.146.688.617 1.097 1.391zm84.804-81.238c.026-.326.262-.803.836-1.299.017.37-.305.759-.836 1.299zm-71.364 67.611c.053.461-.163 1.059-.716 1.704-.076-.491.185-1.029.716-1.704zm8.812 21.162c.004-.469.242-1.032.792-1.456.022.547-.268.955-.792 1.456zm29.933-41.133c-.043-.461.187-1.049.753-1.675.064.49-.208 1.019-.753 1.675zM432.6 385.861c.339.044.818.317 1.304.931-.383-.007-.774-.354-1.304-.931zm150.791 7.953c.058.465-.103 1.078-.615 1.615-.102-.54.147-1.004.615-1.615zm33.938-10.783c.027-.453.299-.997.885-1.424-.004.523-.322.928-.885 1.424zm-453.456-6.665c.308.156.686.601 1.085 1.361-.324-.147-.669-.609-1.085-1.361zm330.716 139.531c.005.47-.236 1.043-.807 1.519-.033-.537.264-.976.807-1.519zm-13.981 20.05c.03.469-.205 1.059-.786 1.636-.057-.514.233-1.014.786-1.636zm-137.299 69.096c-.051-.216.167-.502.654-.853.051.218-.167.5-.654.853zM510.095 417.67c-.221.022-.501-.222-.762-.76.247-.031.475.232.762.76zm84.658-.432c-.149-.197-.106-.556.214-1.018.178.217.078.536-.214 1.018zm-433.06-43.302c.226-.093.523-.062.669.216-.328.172-.478.059-.669-.216zM429.26 610.607c.074.257-.027.584-.397.77-.163-.378 0-.565.397-.77zm9.357-9.73c.087.215-.081.535-.51.959-.089-.216.083-.535.51-.959zm-274.355 12.888c.147.194.103.554-.215 1.023-.175-.213-.076-.536.215-1.023zm452.066-229.708c-.072-.21.113-.51.552-.906.071.208-.112.512-.552.906zm-255.271 16.621c-.211.065-.509-.131-.893-.588.211-.065.509.131.893.588zm408.149 215.857c-.232.09-.58-.089-1.024-.557.239-.096.574.096 1.024.557zm-607.527.407c.058.214-.149.509-.624.876-.059-.217.15-.506.624-.876zm198.405-217.285c-.217.07-.521-.123-.907-.581.219-.071.52.124.907.581zm105.105 217.898c-.23.088-.572-.092-1.012-.554.234-.093.567.097 1.012.554zM881.18 393.66c-.226-.01-.494-.25-.632-.753.407-.073.56.188.632.753zm-528.099-1.002c-.212.07-.518-.119-.914-.571.213-.071.517.12.914.571zm-1.005-.996c-.211.079-.517-.1-.928-.53.208-.077.52.098.928.53zm-2.765-2.54c-.228.119-.57.064-.863-.298.328-.238.562-.095.863.298zm220.01 64.925c-.082-.202.089-.501.499-.914.077.196-.084.506-.499.914zm-90.009 83.714c.145.2.088.561-.241 1.039-.168-.215-.065-.546.241-1.039zM865.09 374.648c-.214.086-.525-.087-.942-.511.211-.084.528.085.942.511zm2.756 114.706c-.095-.242-.029-.57.32-.781.193.354.047.546-.32.781zm1.027-1.013c-.099-.238-.041-.563.296-.77.197.348.057.537-.296.77zm1-1.011c-.107-.234-.048-.569.308-.817.214.341.068.551-.308.817zm.929-.974c-.099-.243-.015-.586.37-.847.205.353.042.574-.37.847zm1.006-1.039c-.125-.228-.055-.585.328-.94.259.324.111.594-.328.94zm-317.662-11.418c-.279-.104-.401-.319-.522-.533.132-.03.264-.059.593-.017.197.072.087.44-.071.55zm.453-.641c-.13-.224-.024-.584.363-1.042.145.237.009.571-.363 1.042zm5.383-6.997c-.207-.117-.302-.331-.316-.549-.006-.093.154-.198.528-.22.236.313.117.512-.212.769zM444.441 592.773c.131.217.026.571-.345 1.043-.141-.224-.016-.565.345-1.043zm50.874-223.656c.004-.221.257-.485.789-.658.006.265-.267.44-.789.658zm90.593 4.233c.215-.074.524.111.924.559-.216.076-.523-.112-.924-.559zM353.4 596.147c-.063-.228.154-.558.665-.973.068.234-.159.552-.665.973zm-1.023.981c-.071-.222.122-.537.592-.924.076.229-.126.53-.592.924zm-1.01.989c-.073-.221.118-.534.581-.927.076.225-.121.53-.581.927zm90.25-1.237c.097.216-.062.537-.474.969-.096-.214.061-.539.474-.969zm178.285-216.551c-.092-.234-.049-.538.248-.695.178.341.056.501-.248.695zm-71.46 68.452c.137.212.04.566-.314 1.047-.145-.217-.032-.561.314-1.047zm-21.239-3.147c-.232-.001-.51-.236-.667-.74.409-.089.575.17.667.74zm343.162-66.383c-.249.094-.599-.009-.874-.419.363-.205.596-.029.874.419zm-251.462 2.079a.56.56 0 0 1 .257-.726c.193.344.067.517-.257.726zm-190.003-.008c.209-.064.52.133.923.601-.213.067-.516-.136-.923-.601zm-84.508 222.83c-.065-.229.138-.543.63-.907.072.241-.145.531-.63.907z" fill="#054bac"/><path fill="#fff" d="M317.758 583.923c-.335.012-.576.169-1.007.806l-1.28 1.576s-.076.133-.366.36l-2.542 2.971s.138.084-.129.098c-.566.192-.774.445-.889.774 0 0 .105.326-.174.271-.534.118-.718.347-.832.633 0 0-.044.098-.315.225-.747.616-1.222 1.104-1.697 1.593 0 0-.136.13-.42.332-.606.582-.927.962-1.248 1.342 0 0 .097.051-.247.106l-6.003 4.436s.133.304-.222.286c-.759.363-1.163.745-1.566 1.127 0 0 .096.027-.226.045-1.533.778-2.743 1.538-3.954 2.297 0 0-.218.093-.597.332-16.161 8.941-33.123 13.486-51.052 14.625h-28.035l-.005-244.92c.04-.867.085-1.031.13-1.194 0 0-.069-.035.41-.034 26.204-.48 51.645.789 75.459 12.127 0 0 .006-.085.128.195.695.501 1.267.722 1.839.943l23.775 19.969c.649.564.923.74 1.196.916 0 0 .051-.099.113.226 1.019 1.457 1.976 2.59 2.932 3.722 0 0 .034-.075.064.197.317.481.604.689.891.898 0 0 .013-.118.02.163.425.868.842 1.454 1.259 2.041 0 0 .116.227.367.562l2.343 3.2s.027-.093.029.154c.034.602.202.872.505 1.057 0 0 .057.097.21.459 7.942 13.754 12.849 28.196 15.806 43.348.163.714.327 1.428.538 2.921 3.211 19.701 2.532 38.618-1.116 57.326-2.333 11.965-5.974 23.674-9.029 35.498 0 0 .091.007-.209.169-2.786 5.389-5.272 10.617-7.757 15.845 0 0 .086.012-.202.107-.528.65-.768 1.204-1.009 1.759 0 0 .133.04-.163.146-1.076 1.387-1.855 2.667-2.635 3.948 0 0 .098.048-.22.142-1.168 1.355-2.018 2.617-2.869 3.879z"/><g fill="#054bac"><path d="M214.677 372.114c.359.092.314.256.19.662-.34 2.173-.83 4.104-.831 6.035L214 611.72v5.201l-1.003-.005v-4.873l.053-233.908c.002-1.983.797-3.966 1.626-6.02zM333.17 557.815c2.706-11.709 6.347-23.418 8.68-35.383 3.648-18.707 4.328-37.625 1.229-56.975 1.016 3.441 2.636 7.282 2.807 11.186 1.18 26.841-1.606 53.188-10.844 78.613-.321.883-1.008 1.632-1.873 2.559zm-42.339-174.013c-23.695-11.004-49.136-12.274-75.326-11.758.96-.658 2.394-1.966 3.807-1.943 9.126.145 18.291.144 27.361 1.023 13.208 1.281 26.241 3.739 38.527 9.084 1.942.845 3.68 2.162 5.631 3.594zm-47.84 234.564c17.929-1.348 34.891-5.893 50.96-14.759-1.577 1.406-3.203 3.512-5.342 4.462-14.22 6.312-28.86 11.102-45.147 10.936l-.469-.012-.002-.627zm99.778-156.355c-3.296-14.978-8.203-29.42-16.148-43.118.646.079 1.852.249 2.189.881 6.949 13.018 12.254 26.64 14.772 41.249.041.237-.307.541-.813.988z"/><path d="M243.002 619.003l-9.621.957c-5.754.156-11.515.044-17.277-.964l26.421-.002c.468-.002.475.005.477.009zm82.188-45.171c2.151-5.116 4.636-10.344 7.409-15.777-2.167 5.085-4.62 10.375-7.409 15.777zm-24.229 25.764c1.534-1.611 3.42-3.072 5.626-4.636-1.545 1.526-3.409 3.157-5.626 4.636zm-6.017 3.82c.906-.976 2.116-1.735 3.64-2.563a13.86 13.86 0 0 1-3.64 2.563zm23.177-19.504c.488-1.251 1.338-2.513 2.483-3.917-.511 1.207-1.316 2.557-2.483 3.917zm3.088-4.018c.418-1.272 1.197-2.552 2.251-4.005-.447 1.217-1.168 2.606-2.251 4.005zm-.284-170.151c-.947-.77-1.904-1.903-2.974-3.337.913.79 1.938 1.883 2.974 3.337zm-8.004 179.91c.392-.933 1.143-1.848 2.12-2.945a11.56 11.56 0 0 1-2.12 2.945zm12.971-172.852c-.711-.589-1.409-1.544-2.266-2.745a15.04 15.04 0 0 1 2.266 2.745zm-17.041 176.577c.15-.638.625-1.127 1.319-1.75a3.66 3.66 0 0 1-1.319 1.75zm14.492-180.26c-.591-.3-1.008-.886-1.49-1.741.511.306 1.088.88 1.49 1.741zm.623 162.611c-.081-.475.159-1.029.672-1.72.065.456-.143 1.048-.672 1.72zm-8.172 10.675c.009-.513.341-.927.914-1.455-.036.442-.314.998-.914 1.455zm-8.597 8.493c-.017-.375.304-.755.836-1.278-.025.329-.262.801-.836 1.278zm-8.033 5.973c.059-.394.463-.776 1.128-1.277-.087.351-.435.82-1.128 1.277zm18.749-194.966c-.297.078-.571-.098-.917-.514.265-.073.603.093.917.514zm-25.116-20.935c-.451.083-1.023-.138-1.758-.622.437-.07 1.037.124 1.758.622zm33.714 33.135c-.401.088-.569-.182-.651-.778.216.007.482.255.651.778zm-4.691-7.169c-.217.056-.504-.152-.862-.627.217-.057.504.153.862.627zm-9.968 179.619c-.191-.375.016-.629.55-.894.075.255-.084.598-.55.894zm-1.014.934c-.186-.363-.002-.592.453-.862.083.249-.035.594-.453.862z"/></g><path fill="#fcfdfe" d="M842.189 443.996c-2.151 8.413-3.416 17.184-6.635 25.166-6.851 16.986-21.042 25.199-38.384 27.611-11.779 1.638-23.801 1.523-36.227 1.708l-.577-126.373c13.921.601 27.892.675 41.747 1.98 9.928.935 18.563 5.789 26.272 13.175 1.241 1.34 2.047 2.268 2.853 3.196 0 0 .123.132.315.421.54.648.887 1.007 1.234 1.365 0 0 .037-.118.062.226 1.005 1.813 1.986 3.283 2.967 4.752 0 0 .034-.127.03.191.318.815.641 1.312.963 1.808 0 0 .034-.116.046.27 5.935 14.591 6.883 29.396 5.334 44.503z"/><path d="M759.989 372.305l.523 126.152c-.454-.786-1.454-2.03-1.456-3.276l-.034-120.328c.001-.784.385-1.567.967-2.548zm82.582 71.584c1.166-14.999.219-29.804-5.775-44.382 1.955 4.527 5.096 9.279 5.766 14.357 1.232 9.338 1.026 18.866 1.347 28.318.018.522-.622 1.066-1.337 1.707zm-6.721-47.029c-1.015-1.104-1.996-2.573-3.061-4.372.976 1.116 2.036 2.562 3.061 4.372zm-4.463-6.728c-.955-.6-1.761-1.528-2.707-2.744.858.613 1.858 1.515 2.707 2.744zm5.46 8.754c-.36-.159-.682-.656-1.065-1.46.327.169.715.646 1.065 1.46zm-4.024-6.986c-.383-.012-.73-.37-1.219-.944.324.056.789.326 1.219.944z" fill="#054bac"/></svg>