<?xml version="1.0" encoding="UTF-8"?>
<svg version="1.1" xmlns="http://www.w3.org/2000/svg" width="1024" height="1024">
<path d="M0 0 C337.92 0 675.84 0 1024 0 C1024 337.92 1024 675.84 1024 1024 C686.08 1024 348.16 1024 0 1024 C0 686.08 0 348.16 0 0 Z " fill="#EBEBEB" transform="translate(0,0)"/>
<path d="M0 0 C0.81629883 0.16628906 1.63259766 0.33257812 2.47363281 0.50390625 C45.8788137 9.64896972 87.34008408 35.8102425 111.7578125 73.1640625 C124.00211858 92.38775099 133.79335232 113.25399079 137 136 C137.5576001 135.98952637 138.1152002 135.97905273 138.68969727 135.96826172 C169.84766898 135.4625648 198.59710849 142.13797277 224 161 C224.79921875 161.5775 225.5984375 162.155 226.421875 162.75 C252.77070117 182.72688781 271.57607331 212.10978145 277.4375 244.8125 C280.05889206 267.18171227 280.05889206 267.18171227 275 275 C272.1160758 276.840399 269.35569044 277.46409123 266 278 C264.73542969 278.22236328 264.73542969 278.22236328 263.4453125 278.44921875 C256.3791004 279.05975549 250.99420763 277.02389207 244.625 274.3125 C220.55029796 264.13680515 192.13634443 259.89219463 167 269 C165.99066406 269.350625 164.98132813 269.70125 163.94140625 270.0625 C149.58310746 275.55412026 137.23349408 283.61660817 126 294 C125.19046875 294.71671875 124.3809375 295.4334375 123.546875 296.171875 C108.76317078 309.92175375 99.65101455 329.63307698 95 349 C94.78730469 349.81855469 94.57460938 350.63710938 94.35546875 351.48046875 C91.14429303 364.53308948 91.4417517 377.92521356 93.4375 391.125 C93.83883238 393.87863942 94.23718868 396.63260168 94.62841797 399.38769531 C94.87300458 401.10719385 95.12699455 402.82538532 95.39111328 404.54199219 C95.50052246 405.32993164 95.60993164 406.11787109 95.72265625 406.9296875 C95.87553101 407.96585205 95.87553101 407.96585205 96.03149414 409.02294922 C95.98973899 411.64413696 95.57359727 412.88586669 94 415 C88.31287998 417.65437559 82.49087802 417.27880855 76.35211182 417.25396729 C75.17137172 417.25708727 73.99063161 417.26020725 72.77411151 417.26342177 C69.50450985 417.27001235 66.23505703 417.26764882 62.96545911 417.26144934 C59.43552696 417.25692126 55.90561481 417.26391078 52.37568665 417.26940918 C45.46022899 417.27830433 38.54481476 417.27637966 31.6293554 417.2705839 C26.00178863 417.26606352 20.37423402 417.26545615 14.74666595 417.26763153 C13.5442357 417.26809123 13.5442357 417.26809123 12.31751393 417.26856022 C10.68877929 417.2691997 9.06004466 417.26984813 7.43131003 417.2705054 C-7.84749237 417.27621018 -23.12627079 417.26965076 -38.40506926 417.25890467 C-51.48441371 417.24998952 -64.56372261 417.25150406 -77.64306641 417.26074219 C-92.84932994 417.27147765 -108.05557236 417.2756393 -123.26183915 417.26951766 C-124.88818502 417.26888062 -126.51453089 417.26825187 -128.14087677 417.26763153 C-129.34095678 417.2671687 -129.34095678 417.2671687 -130.56528084 417.26669653 C-136.17293809 417.26497785 -141.78058184 417.26786718 -147.388237 417.27259064 C-154.24199617 417.27823687 -161.09570961 417.27660606 -167.94946364 417.26602915 C-171.43926999 417.26081911 -174.9290005 417.25863429 -178.41880608 417.26532745 C-214.70397143 417.31808056 -214.70397143 417.31808056 -230.8125 412.6875 C-231.60180908 412.46876221 -232.39111816 412.25002441 -233.2043457 412.0246582 C-239.98126167 410.09973523 -246.54967912 407.84595976 -253 405 C-253.60344238 404.73380859 -254.20688477 404.46761719 -254.82861328 404.19335938 C-277.7719504 393.88253174 -297.60259356 377.63685869 -312 357 C-312.38849121 356.44860352 -312.77698242 355.89720703 -313.17724609 355.32910156 C-324.35198639 339.10693707 -331.59336885 319.32566851 -335 300 C-335.18949219 298.9584375 -335.37898438 297.916875 -335.57421875 296.84375 C-339.6201581 260.31893971 -329.74395484 223.00554295 -307 194 C-303.53210308 189.80259069 -299.80033794 185.89520687 -296 182 C-295.23558594 181.16210938 -294.47117187 180.32421875 -293.68359375 179.4609375 C-273.67567753 158.13270193 -245.29753354 146.56340319 -217.03222656 141.37451172 C-214.28507131 140.86824837 -211.54935558 140.30893529 -208.8125 139.75 C-207.554375 139.5025 -206.29625 139.255 -205 139 C-204.79697266 137.61554688 -204.79697266 137.61554688 -204.58984375 136.203125 C-201.7854585 118.65000458 -195.45378919 102.56525374 -187 87 C-186.67386719 86.38398926 -186.34773437 85.76797852 -186.01171875 85.13330078 C-181.5139437 76.655174 -176.36158899 69.19749745 -170 62 C-169.24460938 61.13503906 -168.48921875 60.27007812 -167.7109375 59.37890625 C-159.74628844 50.38788489 -151.42182119 42.45585063 -142 35 C-140.97648438 34.17113281 -139.95296875 33.34226562 -138.8984375 32.48828125 C-131.38981928 26.47700981 -123.54972538 21.41921965 -115 17 C-113.92854736 16.44481689 -113.92854736 16.44481689 -112.83544922 15.87841797 C-78.17744351 -1.83336149 -38.27593945 -7.90092533 0 0 Z " fill="#0066B5" transform="translate(377,241)"/>
<path d="M0 0 C111.97861842 0 111.97861842 0 130.6875 17.1875 C138.67068961 25.59670668 143.01036949 36.83508987 143.4375 48.3125 C143.08523632 61.33094048 138.00888202 73.03946004 129 82.375 C120.94281377 90 120.94281377 90 117 90 C117 90.66 117 91.32 117 92 C118.258125 92.350625 119.51625 92.70125 120.8125 93.0625 C132.99315964 97.16747821 141.42458024 104.74784566 147.3125 116 C153.68317748 129.64174404 153.66368739 143.23658856 148.54296875 157.33203125 C142.47719136 171.75168939 131.08778247 180.17643203 117 186 C106.87695569 189.32162391 96.75546736 190.15747436 86.16577148 190.11352539 C85.21311685 190.11364593 84.26046221 190.11376646 83.27893925 190.11389065 C80.22629948 190.11315032 77.17372245 190.1055626 74.12109375 190.09765625 C72.22399932 190.0961841 70.32690449 190.09516507 68.42980957 190.09460449 C61.43236681 190.08938326 54.43493278 190.075422 47.4375 190.0625 C23.9559375 190.0315625 23.9559375 190.0315625 0 190 C0 127.3 0 64.6 0 0 Z " fill="#0066B5" transform="translate(834,520)"/>
<path d="M0 0 C1.94324661 -0.01691895 1.94324661 -0.01691895 3.92575073 -0.03417969 C5.35943827 -0.02640264 6.7931236 -0.01820997 8.22680664 -0.00964355 C9.73813552 -0.01506426 11.24945912 -0.02218664 12.76077271 -0.03088379 C16.86411101 -0.04912645 20.96704724 -0.0420459 25.07039261 -0.02936745 C29.36334573 -0.01924459 33.65626429 -0.02863113 37.94921875 -0.03491211 C45.15867294 -0.04219061 52.36796326 -0.03259555 59.57739258 -0.0135498 C67.91404446 0.0082194 76.25030505 0.00116817 84.58694744 -0.02085543 C91.7429041 -0.0390037 98.89874292 -0.04157058 106.05471516 -0.03110075 C110.32941922 -0.02486264 114.60393933 -0.02403882 118.87863159 -0.0372467 C122.89740197 -0.04879635 126.91566758 -0.04079617 130.93438339 -0.01766968 C132.40980058 -0.01237778 133.88526021 -0.01390465 135.36066055 -0.02272034 C137.37340026 -0.03363846 139.38623274 -0.01752358 141.39892578 0 C142.52569229 0.0015081 143.6524588 0.0030162 144.81336975 0.00457001 C148.34714716 0.62089742 149.4939727 1.74134627 151.69946289 4.50793457 C152.8304166 6.76984199 152.82966307 8.00091579 152.83990479 10.51118469 C152.84561493 11.34812363 152.85132507 12.18506256 152.85720825 13.04736328 C152.85888504 14.4274054 152.85888504 14.4274054 152.8605957 15.83532715 C152.86556061 16.80294479 152.87052551 17.77056244 152.87564087 18.76750183 C152.89028539 21.97916364 152.89706852 25.19077606 152.90258789 28.40246582 C152.90833772 30.62965395 152.91409547 32.85684206 152.91986084 35.08403015 C152.93037753 39.758944 152.93621574 44.43384062 152.93969727 49.10876465 C152.94518158 55.10119567 152.96920563 61.09339942 152.99766922 67.08575916 C153.01628716 71.68825446 153.02150077 76.29069494 153.02303314 80.89322472 C153.0260624 83.10243662 153.03410007 85.31164749 153.04721832 87.52082253 C153.06425995 90.61151057 153.06240295 93.70164252 153.0559082 96.7923584 C153.06512299 97.70631378 153.07433777 98.62026917 153.08383179 99.56192017 C153.0520908 104.38020815 152.82684398 107.5916046 149.69946289 111.50793457 C145.39482405 115.39599546 141.48220433 115.63225698 135.82998657 115.64837646 C134.62993484 115.65408661 133.42988312 115.65979675 132.19346619 115.66567993 C130.88011795 115.66679779 129.56676971 115.66791565 128.21362305 115.66906738 C126.81391774 115.67369764 125.41421369 115.67872258 124.01451111 115.68411255 C120.21487998 115.69721707 116.41526651 115.7036775 112.61561632 115.70812321 C110.24092783 115.7110566 107.86624414 115.71516188 105.49155807 115.71962738 C98.05917084 115.73329613 90.6267946 115.74296628 83.19439566 115.74682927 C74.61916956 115.75131101 66.04410278 115.76886682 57.46892512 115.79782987 C50.83695513 115.81945118 44.20502996 115.82953376 37.57302511 115.83087039 C33.61348744 115.83191794 29.65409967 115.83781527 25.69459915 115.85569 C21.96976708 115.87217892 18.24519746 115.87432234 14.52034187 115.86555099 C12.50571407 115.86441464 10.49109495 115.87812497 8.47651672 115.89230347 C7.27082535 115.88673431 6.06513397 115.88116516 4.82290649 115.87542725 C3.77910135 115.87689381 2.73529621 115.87836037 1.65986061 115.87987137 C-2.60691259 115.3438049 -5.75826403 113.6891548 -9.15130711 111.09043789 C-10.65594544 109.01853309 -10.68013312 107.73744317 -10.68821716 105.18788147 C-10.6981218 104.30605194 -10.70802643 103.42422241 -10.7182312 102.51567078 C-10.71372955 101.55091324 -10.70922791 100.5861557 -10.70458984 99.59216309 C-10.71145309 98.57402527 -10.71831635 97.55588745 -10.72538757 96.50689697 C-10.74372427 93.133404 -10.73980816 89.76037305 -10.73413086 86.38684082 C-10.73868941 84.04658353 -10.743994 81.70632759 -10.75001526 79.36607361 C-10.75895993 74.45749478 -10.75650781 69.54907854 -10.74658203 64.64050293 C-10.73509187 58.34409832 -10.75529823 52.04825447 -10.78449917 45.75192356 C-10.80282838 40.91782555 -10.8025752 36.08386272 -10.79686165 31.24973869 C-10.79670803 28.92806143 -10.80278592 26.60637524 -10.81515312 24.28473091 C-10.82999866 21.04049436 -10.81943263 17.79730396 -10.80224609 14.55310059 C-10.81191406 13.59036728 -10.82158203 12.62763397 -10.83154297 11.63572693 C-10.82170883 10.75107758 -10.81187469 9.86642822 -10.80174255 8.95497131 C-10.80142863 7.8048876 -10.80142863 7.8048876 -10.80110836 6.63156986 C-9.42979054 0.81385875 -5.36278661 0.00717774 0 0 Z " fill="#0166B5" transform="translate(254.300537109375,447.4920654296875)"/>
<path d="M0 0 C1.42629085 1.18586254 2.83272917 2.39553405 4.23486328 3.60986328 C2.87219684 7.64792194 1.09394818 10.15354446 -1.82763672 13.23486328 C-6.02875566 17.76175558 -9.95401682 22.44726771 -13.81982422 27.26220703 C-15.39374088 29.16165264 -16.98182268 30.91066783 -18.76513672 32.60986328 C-21.25598033 31.38340729 -23.71092176 30.10761881 -26.16357422 28.80517578 C-41.91482108 20.54343384 -59.73436783 14.22305568 -77.66357422 18.85205078 C-82.45900647 20.58125869 -86.37872178 23.05014648 -89.76513672 26.85986328 C-91.65237344 32.04976426 -91.43019153 36.75471039 -89.57763672 41.92236328 C-81.56147163 53.80840118 -62.64283649 56.47963377 -49.64013672 59.67236328 C-29.21916767 64.70889836 -9.40218142 70.6515993 2.48486328 89.48486328 C10.14641449 102.9283318 11.25151722 118.600925 7.60986328 133.48486328 C3.4153582 147.41295855 -5.32946206 158.65220419 -17.88232422 166.08251953 C-43.10042489 179.44332896 -71.30163884 179.22810172 -98.17138672 171.14892578 C-115.21674868 165.66696403 -129.07863877 155.94833901 -142.76513672 144.60986328 C-138.46703009 138.28911824 -133.39043388 133.11293833 -127.96337891 127.77685547 C-123.68267977 123.56021811 -119.59474303 119.2457025 -115.76513672 114.60986328 C-111.65585792 116.01411323 -108.86029908 117.99183015 -105.51513672 120.73486328 C-92.38018146 130.94170994 -74.07869794 138.77241589 -57.16748047 137.93408203 C-49.91274348 136.95498745 -42.28065088 135.71171388 -36.76513672 130.60986328 C-33.16727669 125.73351839 -32.10087909 120.94487071 -32.38623047 114.93408203 C-33.22050787 109.81660723 -35.94080747 107.27161938 -39.85498047 104.12939453 C-43.91016007 101.30060306 -48.03469951 99.93015019 -52.76513672 98.60986328 C-53.62743896 98.35841553 -54.48974121 98.10696777 -55.37817383 97.84790039 C-61.96965065 95.9788694 -68.61808265 94.54379884 -75.32763672 93.17236328 C-94.06100797 89.29811861 -113.51449249 83.29807058 -125.76513672 67.60986328 C-134.00824558 53.86609477 -136.80787291 40.59717744 -134.11279297 24.78173828 C-130.14901225 9.33490183 -120.65003004 -2.21541574 -107.32763672 -10.76513672 C-74.37854031 -29.80664941 -29.37393914 -23.13350062 0 0 Z " fill="#0165B5" transform="translate(801.76513671875,537.39013671875)"/>
<path d="M0 0 C0.84691406 0.45117188 1.69382812 0.90234375 2.56640625 1.3671875 C12.19335527 6.83739609 21.49684352 13.85371582 29 22 C27.66196542 25.00874098 26.22415624 26.98385643 23.8046875 29.20703125 C22.85964355 30.08246582 22.85964355 30.08246582 21.89550781 30.97558594 C21.22874023 31.58176758 20.56197266 32.18794922 19.875 32.8125 C19.19791992 33.43543945 18.52083984 34.05837891 17.82324219 34.70019531 C5.52340011 45.98439993 5.52340011 45.98439993 1 49 C0.61070312 48.57589844 0.22140625 48.15179687 -0.1796875 47.71484375 C-10.8321993 36.54688783 -23.5169843 28.95397279 -39.15454102 28.56835938 C-53.80756822 28.53446322 -64.84121118 32.09657492 -76 42 C-87.83027769 53.9945871 -92.42335116 68.76969488 -92.36572266 85.20898438 C-92.01744227 102.68051783 -85.18136568 118.47169669 -73 131 C-63.21210457 139.85139926 -51.45797498 144.96442794 -38.15234375 144.3515625 C-21.84673061 142.53309263 -8.15587493 134.8756088 3 123 C6.25301796 124.3931403 8.03386216 125.94960155 10.25 128.6875 C13.2186837 132.19938966 16.36439595 135.15792951 19.8671875 138.125 C23.76716832 141.55355457 27.36777102 145.29209958 31 149 C24.77963068 162.59047515 6.35285332 171.65107624 -7 177 C-32.38570762 185.83649501 -57.98582955 185.42390167 -82.3515625 173.83984375 C-104.69994784 162.7583349 -121.35544075 143.23540888 -129.53125 119.74609375 C-130.80783749 115.86094399 -131.95565216 111.95475906 -133 108 C-133.27928345 107.00419922 -133.27928345 107.00419922 -133.56420898 105.98828125 C-135.27790971 99.30721057 -135.3460874 92.74458349 -135.3125 85.875 C-135.30686035 84.67447998 -135.3012207 83.47395996 -135.29541016 82.23706055 C-134.95224122 57.12966596 -125.84914874 33.84888742 -108.0859375 15.9296875 C-79.28455393 -11.93389272 -35.56194266 -18.99819218 0 0 Z " fill="#0165B5" transform="translate(622,531)"/>
<path d="M0 0 C0.98411929 -0.00785502 0.98411929 -0.00785502 1.98811978 -0.01586872 C4.17892498 -0.03082888 6.36949581 -0.03157298 8.56034851 -0.03224182 C10.13429659 -0.03986601 11.70824096 -0.04829395 13.28218079 -0.0574646 C17.55295403 -0.0793911 21.82365568 -0.08820602 26.09447885 -0.09329104 C28.76451415 -0.09693684 31.43453077 -0.10317807 34.10455894 -0.11029243 C43.42462867 -0.13478064 52.74464279 -0.14783744 62.06474304 -0.15138245 C70.74388301 -0.1550171 79.42266922 -0.18490896 88.10170108 -0.22678703 C95.56005159 -0.26150976 103.01828497 -0.27693123 110.47671574 -0.27762848 C114.92823192 -0.27842063 119.37938763 -0.28713049 123.83082008 -0.31562614 C128.01953491 -0.34184093 132.2075913 -0.34399333 136.39635086 -0.3279705 C137.92977652 -0.3261587 139.46324034 -0.3328226 140.99658394 -0.34878922 C156.06793553 -0.49610279 156.06793553 -0.49610279 162.34037781 5.27415466 C164.14506531 7.26634216 164.14506531 7.26634216 165.21537781 9.14915466 C165.58404968 9.76532654 165.95272156 10.38149841 166.33256531 11.01634216 C169.20379422 17.44878523 169.63789379 23.21101408 169.63090515 30.16575623 C169.63762238 31.13421982 169.6443396 32.10268341 169.65126038 33.10049438 C169.67019153 36.2886423 169.67416227 39.4765791 169.67631531 42.66477966 C169.68274714 44.8928689 169.68947578 47.12095731 169.69648743 49.3490448 C169.70844837 54.01599586 169.71216951 58.68287296 169.71098328 63.34983826 C169.71078028 69.30912263 169.73806835 75.2679291 169.77252769 81.22710037 C169.79484457 85.82898608 169.79881933 90.43075769 169.79776382 95.03269196 C169.80011311 97.22857559 169.8088984 99.42446269 169.82442856 101.62029266 C169.9800468 125.89819145 169.9800468 125.89819145 163.21537781 135.71165466 C154.56696067 143.42002646 143.39886229 143.4202538 132.41459656 143.55540466 C131.27126358 143.57381409 130.1279306 143.59222351 128.94995117 143.6111908 C124.06773577 143.68976501 119.1853902 143.75791899 114.30302429 143.82640076 C110.73597505 143.87794293 107.16905104 143.93522989 103.60209656 143.99290466 C101.93191719 144.01326782 101.93191719 144.01326782 100.22799683 144.03404236 C98.6955407 144.05911865 98.6955407 144.05911865 97.13212585 144.08470154 C96.22866928 144.09722961 95.32521271 144.10975769 94.39437866 144.12266541 C92.34803779 144.04876759 92.34803779 144.04876759 91.34037781 145.27415466 C91.18719789 147.93418277 91.10877906 150.55037346 91.09037781 153.21165466 C91.06975281 153.95351013 91.04912781 154.6953656 91.02787781 155.45970154 C90.97575042 157.86883002 90.97575042 157.86883002 91.34037781 161.27415466 C94.63960849 163.47364179 95.68736033 163.52279443 99.52397156 163.54759216 C100.53395203 163.56821716 101.5439325 163.58884216 102.58451843 163.61009216 C104.70943765 163.63608506 106.83446587 163.65434355 108.95951843 163.66477966 C109.97078796 163.68798279 110.9820575 163.71118591 112.02397156 163.73509216 C112.94750427 163.74330994 113.87103699 163.75152771 114.82255554 163.75999451 C118.10804103 164.43091785 119.30068103 165.65690933 121.34037781 168.27415466 C121.90287781 171.77415466 121.90287781 171.77415466 121.34037781 175.27415466 C117.50285886 179.3248691 114.36555253 180.1865408 108.93855286 180.42132568 C107.56619318 180.4363604 106.1937669 180.44592618 104.82133484 180.45115662 C104.06960999 180.45772781 103.31788513 180.46429901 102.54338074 180.47106934 C100.06164949 180.49074177 97.57997852 180.50244991 95.09819031 180.51243591 C93.82411631 180.5185492 93.82411631 180.5185492 92.52430344 180.524786 C88.03054296 180.54561855 83.53681279 180.55993375 79.04301453 180.56932068 C74.40703655 180.58039355 69.77153741 180.61481139 65.13572884 180.65449238 C61.56517148 180.68065475 57.99472849 180.68901204 54.42408371 180.69260216 C52.71528251 180.69746724 51.0064864 180.70907905 49.29777908 180.72764015 C46.90420382 180.75202971 44.51187172 180.75106773 42.11820984 180.74412537 C41.06595718 180.76334045 41.06595718 180.76334045 39.9924469 180.78294373 C34.66979652 180.72684003 31.10795985 179.0417367 27.34037781 175.27415466 C26.96537781 171.96165466 26.96537781 171.96165466 27.34037781 168.27415466 C29.52702492 165.69703486 31.30402817 164.44181542 34.67192078 163.8969574 C37.44130971 163.72748122 40.19089642 163.66427445 42.96537781 163.64915466 C44.85352974 163.6236391 46.74159528 163.59013515 48.62944031 163.54759216 C49.46169128 163.54163025 50.29394226 163.53566833 51.15141296 163.52952576 C53.63164137 163.40826359 53.63164137 163.40826359 56.34037781 161.27415466 C56.58887357 158.50224365 56.6672119 155.97528079 56.59037781 153.21165466 C56.58264343 152.09307068 56.58264343 152.09307068 56.57475281 150.95188904 C56.84476246 147.3130145 56.84476246 147.3130145 55.34037781 144.27415466 C53.73128366 144.16172333 52.1173699 144.11738984 50.50444031 144.10057068 C49.47246521 144.08708084 48.44049011 144.073591 47.37724304 144.05969238 C46.25132751 144.049254 45.12541199 144.03881561 43.96537781 144.02806091 C41.59428071 143.99509796 39.22318705 143.96188676 36.85209656 143.92845154 C33.10423874 143.88119317 29.35639235 143.83682334 25.60844421 143.79734802 C21.99809849 143.75741374 18.38805469 143.705893 14.77787781 143.65306091 C13.66815613 143.64464676 12.55843445 143.6362326 11.41508484 143.62756348 C0.62452696 143.45770182 -7.91136591 141.92975252 -16.65962219 135.27415466 C-20.29722102 131.30151383 -21.77613174 127.14201965 -21.81352234 121.80465698 C-21.8221228 120.88942764 -21.83072327 119.9741983 -21.83958435 119.03123474 C-21.84597427 117.5281073 -21.84597427 117.5281073 -21.85249329 115.99461365 C-21.86067078 114.93734573 -21.86884827 113.88007782 -21.87727356 112.79077148 C-21.90212987 109.28393622 -21.91864677 105.77714152 -21.93305969 102.27024841 C-21.93838337 101.07189928 -21.94370705 99.87355015 -21.94919205 98.63888741 C-21.97592821 92.29262557 -21.99529924 85.94638342 -22.00971985 79.6000824 C-22.02634336 73.0553857 -22.07110139 66.51119492 -22.12209129 59.96668911 C-22.15580815 54.92649786 -22.16730237 49.88642585 -22.17294693 44.84613228 C-22.17965002 42.43448597 -22.19484732 40.02284725 -22.21883774 37.61131096 C-22.25057744 34.22694565 -22.25051176 30.84393345 -22.24311829 27.4594574 C-22.25952362 26.47154205 -22.27592896 25.48362671 -22.29283142 24.46577454 C-22.220925 16.38374569 -19.95947869 9.57401116 -14.15962219 3.77415466 C-9.348607 0.88754555 -5.62098642 0.02229899 0 0 Z M-7.65962219 18.27415466 C-8.25679141 20.40439784 -8.25679141 20.40439784 -8.18101501 22.70773315 C-8.19518463 23.58949219 -8.20935425 24.47125122 -8.22395325 25.37973022 C-8.21899841 26.33932144 -8.21404358 27.29891266 -8.2089386 28.2875824 C-8.21916046 29.30425995 -8.22938232 30.3209375 -8.23991394 31.36842346 C-8.26773206 34.73177078 -8.26579091 38.09429968 -8.26118469 41.45774841 C-8.26895703 43.79418239 -8.27762604 46.13061354 -8.28715515 48.46704102 C-8.30208502 53.36548521 -8.3014932 58.26364113 -8.29096985 63.16209412 C-8.27937767 69.44180299 -8.31324429 75.72033262 -8.35965919 81.99984646 C-8.38911218 86.82543851 -8.39088042 91.65074581 -8.38463974 96.47641182 C-8.38566722 98.79169616 -8.39616265 101.10699622 -8.41626358 103.42219353 C-8.44091973 106.65935435 -8.42745869 109.89420895 -8.4042511 113.1313324 C-8.41953857 114.08889938 -8.43482605 115.04646637 -8.45057678 116.03305054 C-8.44489971 120.81544878 -8.44489971 120.81544878 -6.37963486 124.97436714 C-2.08131253 128.70693547 1.58677318 129.39891665 7.08287048 129.41459656 C8.28010239 129.4203067 9.47733429 129.42601685 10.71084595 129.43190002 C12.02621841 129.43301788 13.34159088 129.43413574 14.69682312 129.43528748 C16.09475841 129.43991636 17.49269244 129.44494112 18.890625 129.45033264 C22.69038248 129.46345334 26.49012228 129.46990115 30.28989887 129.4743433 C32.66475728 129.47727504 35.03961087 129.48138008 37.41446686 129.48584747 C44.84739352 129.4995226 52.28030916 129.50918873 59.71324754 129.51304936 C68.28847375 129.51752791 76.86354039 129.53506623 85.43871808 129.56404996 C92.06983428 129.5856833 98.70090565 129.59575455 105.33205676 129.59709048 C109.29108232 129.59813749 113.24995788 129.60402273 117.20894623 129.6219101 C120.93540964 129.63841906 124.66161076 129.64053271 128.38809776 129.63177109 C130.40134974 129.63063661 132.41459313 129.64433281 134.42779541 129.65852356 C141.70448307 129.62499058 147.3510834 129.46559019 153.21537781 124.77415466 C155.27021212 122.03437558 155.46736033 119.4454012 155.4808197 116.15065002 C155.48652985 115.31233643 155.49223999 114.47402283 155.49812317 113.61030579 C155.49924103 112.69387299 155.50035889 111.77744019 155.50151062 110.83323669 C155.50647552 109.86547302 155.51144043 108.89770935 155.51655579 107.90061951 C155.5311787 104.69439487 155.53797933 101.48821969 155.54350281 98.28196716 C155.54925376 96.05620828 155.5550115 93.83044941 155.56077576 91.60469055 C155.57128584 86.93575306 155.57712859 82.26683279 155.58061218 77.59788513 C155.58609962 71.61332988 155.61013309 65.62900184 155.63858414 59.6445179 C155.65720044 55.04631381 155.66241556 50.44816459 155.66394806 45.84992599 C155.66697694 43.64350516 155.67501334 41.43708535 155.68813324 39.23070145 C155.70517382 36.14491182 155.7033183 33.05967919 155.69682312 29.97386169 C155.71064529 28.60528519 155.71064529 28.60528519 155.7247467 27.20906067 C155.69316481 22.42311798 155.5046105 19.13638872 152.34037781 15.27415466 C149.58489283 13.89641217 147.36555252 14.13866576 144.28034973 14.12698364 C142.98760132 14.11982834 141.69485291 14.11267303 140.3629303 14.1053009 C138.92198205 14.10246052 137.48103355 14.09974881 136.04008484 14.09715271 C134.52905622 14.09088924 133.01802916 14.08424255 131.50700378 14.07723999 C127.39541989 14.05982139 123.28384762 14.04927625 119.17223597 14.04103446 C116.60493803 14.03588694 114.03764373 14.02981115 111.47034836 14.02352333 C103.44208864 14.00447028 95.41383814 13.99023845 87.38556015 13.98191136 C78.11012952 13.97213245 68.83493712 13.94579648 59.55959046 13.90541047 C52.39521361 13.8752833 45.23090519 13.8604458 38.06646621 13.85713035 C33.78498326 13.85477629 29.50375479 13.84576976 25.22233963 13.82066917 C21.19544996 13.79744214 17.16898328 13.7931333 13.14204407 13.80343056 C11.66338064 13.80392732 10.18469677 13.79756561 8.70609665 13.78387451 C6.68893239 13.76624025 4.67158566 13.77561936 2.65437317 13.78640747 C1.52500902 13.78401912 0.39564487 13.78163076 -0.76794243 13.77917004 C-4.35598507 14.3933549 -5.53137671 15.35507224 -7.65962219 18.27415466 Z " fill="#E9EBEC" transform="translate(251.6596221923828,433.72584533691406)"/>
<path d="M0 0 C2.8843442 1.09028211 4.91145057 2.16717844 6.75 4.6875 C7.05078125 7.4296875 7.05078125 7.4296875 7.0625 10.5625 C7.34851376 15.91661499 7.34851376 15.91661499 10.5 20 C13.54748723 21.92663879 13.54748723 21.92663879 16.5 21.5625 C18.73745725 20.73236444 18.73745725 20.73236444 20.75 19.6875 C23.77986784 19.1942657 25.86543571 19.16975287 28.55859375 20.74609375 C33.95240152 25.02634121 37.06779537 29.97327482 38.3125 36.75 C37.72414346 39.8225286 37.09117536 40.70683468 35.1875 43.0625 C33.2137459 45.65233919 32.2743452 47.39346854 32.3125 50.6875 C32.87940727 53.67244033 33.65228299 54.60374256 35.9921875 56.609375 C37.76044157 57.80871254 39.56440193 58.95733251 41.40234375 60.046875 C43.92814859 61.81199652 44.79858835 62.78952198 45.75 65.6875 C46.06706677 70.15895446 45.36023018 74.44721526 42.8125 78.1875 C39.09541825 81.22185245 36.83198662 81.36508712 32.15234375 81.38671875 C29.01622824 81.77937061 27.80001262 82.24655474 25.75 84.6875 C25.64070269 87.56172374 25.7127542 90.15392285 25.9375 93 C26.25733549 100.75316953 26.25733549 100.75316953 24.41796875 104.140625 C21.65448475 106.62113787 19.35771959 107.54823093 15.75 108.375 C12.19482363 107.56027208 10.31720032 106.01859405 7.484375 103.8125 C4.81613706 102.08175107 2.8189193 102.12951467 -0.25 102.6875 C-2.70167525 104.71413607 -3.87104151 106.73423728 -5.125 109.625 C-6.92285969 113.31606042 -8.55031163 115.66148018 -12.25 117.6875 C-17.08867549 117.8978772 -20.24091508 115.83498123 -23.7265625 112.70703125 C-26.13588726 109.51313151 -26.59472536 105.97600221 -27.453125 102.12890625 C-28.10203123 99.38422302 -28.10203123 99.38422302 -31.0625 97.4375 C-35.35086336 96.42847333 -38.42460987 96.69183265 -42.3125 98.8125 C-45.05188497 100.0496416 -46.42857573 99.65091316 -49.25 98.6875 C-53.43446035 95.99748978 -55.48494371 93.33238497 -57.25 88.6875 C-57.6875 85.625 -57.6875 85.625 -57.25 82.6875 C-56.569375 81.883125 -55.88875 81.07875 -55.1875 80.25 C-52.87290896 77.74868975 -52.87290896 77.74868975 -53.375 74.125 C-54.34525915 70.17388494 -54.34525915 70.17388494 -56.25 66.6875 C-58.71815021 65.77060066 -58.71815021 65.77060066 -61.5625 65.3125 C-67.85599083 63.7680344 -67.85599083 63.7680344 -70.4375 61 C-73.43193665 55.52740889 -72.78730049 51.61546059 -71.1875 45.875 C-69.2061808 42.61541036 -67.86878351 41.43580985 -64.2890625 40.15625 C-62.0136211 39.63316002 -59.82844749 39.46419039 -57.5 39.3125 C-53.83999743 39.01949028 -53.83999743 39.01949028 -51.125 36.4375 C-50.10496431 33.23167355 -50.14434772 31.84650653 -51.25 28.6875 C-51.78625 27.90375 -52.3225 27.12 -52.875 26.3125 C-54.25 23.6875 -54.25 23.6875 -54.4375 20.3125 C-52.74348381 15.14129268 -49.76289973 12.59617325 -45.25 9.6875 C-41.8125 8.375 -41.8125 8.375 -38.25 8.6875 C-35.85469619 10.12048 -33.64300731 11.72003717 -31.390625 13.3671875 C-29.19865151 14.96172329 -29.19865151 14.96172329 -25.9375 14.8125 C-21.22614922 12.84030665 -19.37826452 10.11250349 -17.25 5.625 C-13.47506349 -2.20179887 -7.99189597 -2.77659621 0 0 Z " fill="#EBECEC" transform="translate(173.25,439.3125)"/>
<path d="M0 0 C0.83794979 -0.06652267 1.67589958 -0.13304535 2.53924179 -0.20158386 C3.46196507 -0.26856979 4.38468834 -0.33555573 5.33537292 -0.40457153 C6.79393896 -0.51165184 6.79393896 -0.51165184 8.28197098 -0.62089539 C21.11364115 -1.52071146 33.9555956 -2.07836067 46.81266785 -2.45193481 C48.04326431 -2.48788757 49.27386078 -2.52384033 50.54174805 -2.56088257 C104.37693195 -3.9379256 104.37693195 -3.9379256 123.19873047 13.09472656 C126.25971158 16.03226647 129.04506167 19.157762 131.75016785 22.42306519 C132.18256901 22.94482582 132.61497017 23.46658646 133.0604744 24.00415802 C137.98856679 30.04371056 142.28413491 36.35881512 146.37797546 42.98068237 C148.44255792 46.08913039 150.79132455 48.81750683 153.31614685 51.55831909 C153.87187378 52.1736853 154.42760071 52.78905151 155.00016785 53.42306519 C155.71811523 54.08578934 156.43606262 54.74851349 157.17576599 55.43132019 C160.01299172 60.0839442 159.55719256 64.59139281 159.51774597 69.93942261 C159.52475525 71.10427185 159.53176453 72.26912109 159.53898621 73.4692688 C159.55659933 77.32259932 159.54492693 81.17519583 159.53141785 85.02853394 C159.5341127 87.71029063 159.53798936 90.39202511 159.54301453 93.07377625 C159.5502887 98.69850599 159.54071475 104.32302558 159.52165222 109.94772339 C159.49993656 116.42967387 159.50689661 122.91111999 159.52895784 129.393058 C159.54718201 134.97293033 159.54963455 140.55265182 159.53920317 146.13254434 C159.53299967 149.45842179 159.53363792 152.78401369 159.54534912 156.10988426 C159.55556072 159.82684219 159.53994472 163.54284768 159.51774597 167.25973511 C159.5258429 168.34736649 159.53393982 169.43499786 159.5422821 170.55558777 C159.45082136 178.86406123 157.8533604 185.81903248 152.62516785 192.42306519 C146.76507278 196.88789952 140.16834237 197.21952902 133.00016785 196.42306519 C131.00016785 194.42306519 131.00016785 194.42306519 130.73454285 192.11056519 C130.7396991 191.22369019 130.74485535 190.33681519 130.75016785 189.42306519 C130.74243347 188.09275269 130.74243347 188.09275269 130.73454285 186.73556519 C131.00016785 184.42306519 131.00016785 184.42306519 133.00016785 182.42306519 C134.52073403 181.82471965 136.06628873 181.28799862 137.62516785 180.79806519 C138.44243347 180.53767456 139.2596991 180.27728394 140.10173035 180.00900269 C140.72821472 179.81564331 141.3546991 179.62228394 142.00016785 179.42306519 C142.04684798 165.11540383 142.08200422 150.80775425 142.10379219 136.50003242 C142.1142472 129.85699963 142.12843765 123.21401784 142.15104675 116.5710144 C142.17271399 110.16495128 142.18472352 103.75893735 142.18992233 97.35284042 C142.19362912 94.90391134 142.2008671 92.45498506 142.21162796 90.00607681 C142.22606152 86.5865819 142.22814921 83.16729249 142.22721863 79.74777222 C142.23800446 78.21568619 142.23800446 78.21568619 142.24900818 76.65264893 C142.24488419 75.26018951 142.24488419 75.26018951 142.24067688 73.83959961 C142.24252047 73.03026537 142.24436405 72.22093113 142.2462635 71.38707161 C142.17482818 69.18858872 142.17482818 69.18858872 140.00016785 67.42306519 C136.94194067 67.20127959 133.96730784 67.09766568 130.90641785 67.07931519 C129.55272095 67.05738098 129.55272095 67.05738098 128.17167664 67.03500366 C125.28121867 66.98839748 122.39083095 66.95425076 119.50016785 66.92306519 C115.69782503 66.88204406 111.89597658 66.82842065 108.09391785 66.76681519 C107.21368958 66.76153809 106.3334613 66.75626099 105.42655945 66.75082397 C99.22577147 66.64866881 99.22577147 66.64866881 97.00016785 64.42306519 C96.74188232 62.41171265 96.74188232 62.41171265 96.72892761 59.91329956 C96.71364769 58.51174622 96.71364769 58.51174622 96.69805908 57.08187866 C96.69591904 56.07040771 96.69377899 55.05893677 96.6915741 54.01681519 C96.66642094 51.89051028 96.64102282 49.76420826 96.61540222 47.63790894 C96.58659816 44.27349549 96.56259032 40.90913206 96.54386902 37.54464722 C96.52230292 34.30594097 96.48287578 31.06782083 96.4415741 27.82931519 C96.44140038 26.31210876 96.44140038 26.31210876 96.44122314 24.76425171 C96.42121498 23.36269836 96.42121498 23.36269836 96.40080261 21.93283081 C96.39573196 21.10835449 96.39066132 20.28387817 96.38543701 19.43441772 C96.19472878 18.43879822 96.19472878 18.43879822 96.00016785 17.42306519 C92.23516109 14.91306068 89.26481361 15.13454555 84.90446472 15.14840698 C83.66745567 15.14074059 83.66745567 15.14074059 82.40545654 15.13291931 C79.67653672 15.11900668 76.94786894 15.11998114 74.21891785 15.12228394 C72.32467047 15.11839829 70.43042396 15.1140639 68.53617859 15.10929871 C64.56499914 15.10183317 60.5939086 15.10213046 56.62272644 15.10739136 C51.5280089 15.1131904 46.43365438 15.09624611 41.33899689 15.07304668 C37.42712773 15.05833277 33.51534651 15.05743437 29.60345459 15.06055641 C27.72473429 15.06004215 25.84600921 15.05478482 23.96731567 15.04474449 C21.34325887 15.03244087 18.7199159 15.0391346 16.09587097 15.05075073 C15.31655716 15.04310699 14.53724335 15.03546326 13.73431396 15.02758789 C10.87262737 15.05566202 8.56645346 15.11613867 6.01922607 16.49673462 C4.41869659 19.52222304 4.61261092 22.21306809 4.59953308 25.6166687 C4.59255402 26.34541199 4.58557495 27.07415527 4.5783844 27.82498169 C4.55838617 30.23409549 4.55890779 32.64278197 4.5587616 35.05197144 C4.54699406 36.72442282 4.53363137 38.39686369 4.51873779 40.06929016 C4.48251912 44.47272943 4.46233896 48.87607542 4.44718933 53.27963257 C4.42237369 60.33204647 4.38284116 67.38425424 4.32528877 74.43647575 C4.30891496 76.90386089 4.30517814 79.37105285 4.30227661 81.83848572 C4.2925039 83.34527932 4.28224121 84.85206985 4.27140808 86.3588562 C4.26713303 87.67773331 4.26285797 88.99661041 4.25845337 90.35545349 C4.00016785 93.42306519 4.00016785 93.42306519 2.00016785 95.42306519 C-0.0584259 95.72384644 -0.0584259 95.72384644 -2.43733215 95.73556519 C-3.61102356 95.7607019 -3.61102356 95.7607019 -4.8084259 95.78634644 C-6.99983215 95.42306519 -6.99983215 95.42306519 -8.61154175 94.41009521 C-10.79596097 91.28358323 -10.42497629 87.94768308 -10.40388489 84.26730347 C-10.41417976 83.02048294 -10.41417976 83.02048294 -10.42468262 81.74847412 C-10.44300603 78.99660224 -10.43910476 76.24529757 -10.4334259 73.49337769 C-10.43798561 71.58150038 -10.44329055 69.66962473 -10.4493103 67.75775146 C-10.45825271 63.74784697 -10.45580611 59.73814151 -10.44587708 55.72824097 C-10.43439597 50.5910039 -10.45457996 45.45445506 -10.48379421 40.31730843 C-10.50214847 36.36759072 -10.50186512 32.41803808 -10.49615669 28.46828842 C-10.49600333 26.57447216 -10.50206007 24.6806448 -10.51444817 22.78686905 C-10.52933884 20.1366805 -10.51869508 17.48776489 -10.50154114 14.83761597 C-10.51120911 14.05614197 -10.52087708 13.27466797 -10.53083801 12.46951294 C-10.48036853 8.74283395 -10.12969739 6.62493918 -8.09347534 3.45965576 C-5.33955977 0.78078549 -3.71950749 0.29359947 0 0 Z " fill="#EAECEC" transform="translate(303.9998321533203,323.5769348144531)"/>
<path d="M0 0 C6.33180106 -0.06927011 12.66226107 -0.12888363 18.99414062 -0.16479492 C21.14327476 -0.17978213 23.29237883 -0.20017887 25.44140625 -0.22631836 C53.84305871 -0.5628621 53.84305871 -0.5628621 62.625 6.3125 C67.06736909 10.73643603 68.05254856 14.66695498 68.375 20.8125 C68.21686094 26.99852804 66.50205919 32.03123547 62.4921875 36.7890625 C55.11226351 43.75708376 46.34361694 44.44298736 36.62109375 44.29296875 C35.56841812 44.28872391 34.51574249 44.28447906 33.4311676 44.28010559 C30.09967458 44.26343768 26.76880732 44.2258075 23.4375 44.1875 C21.16602442 44.17243781 18.89453927 44.1587521 16.62304688 44.14648438 C11.08160166 44.11613692 5.54149358 44.05739176 0 44 C0 29.48 0 14.96 0 0 Z " fill="#EBECEC" transform="translate(875,631)"/>
<path d="M0 0 C6.40535009 -0.0920897 12.80838129 -0.17165177 19.21386719 -0.21972656 C21.39037888 -0.23977764 23.56683714 -0.26702571 25.74316406 -0.30175781 C28.88099393 -0.35056212 32.01810835 -0.37303438 35.15625 -0.390625 C36.12115356 -0.41127014 37.08605713 -0.43191528 38.0802002 -0.45318604 C44.23997472 -0.45520811 48.86498819 0.47347298 54 4 C58.74665072 8.87156258 60.29437776 13.58054336 60.375 20.3125 C60.25478298 26.96200372 59.12334893 31.5783537 54.609375 36.5234375 C48.36027843 42.21340438 41.76267932 42.28367548 33.7890625 42.1953125 C32.82092621 42.1924826 31.85278992 42.18965271 30.85531616 42.18673706 C27.77841572 42.17558696 24.70181172 42.1504918 21.625 42.125 C19.5325563 42.11496352 17.44010802 42.10583884 15.34765625 42.09765625 C10.23156613 42.0773704 5.11611295 42.03821163 0 42 C0 28.14 0 14.28 0 0 Z " fill="#ECECEC" transform="translate(875,555)"/>
<path d="M0 0 C5.94637876 3.53599196 10.30436683 8.47563923 12.48046875 15.08984375 C13.31771607 22.69321762 13.32631287 29.86959355 8.48046875 36.08984375 C4.29488762 40.52338585 0.07740094 43.67584707 -6.1328125 44.390625 C-13.40683113 44.4222054 -19.12651939 44.10920244 -24.71875 39.1328125 C-30.08430192 33.47827215 -32.06686664 29.03449251 -32.95703125 21.27734375 C-32.76799713 15.19280789 -29.84720319 9.61495215 -25.76953125 5.19140625 C-18.42407829 -1.29918796 -9.583493 -3.46194398 0 0 Z " fill="#0164B5" transform="translate(171.51953125,474.91015625)"/>
<path d="M0 0 C1.26386032 -0.00788544 1.26386032 -0.00788544 2.55325317 -0.01593018 C5.34241193 -0.02914901 8.1310013 -0.02038471 10.92016602 -0.01025391 C12.85685842 -0.01227429 14.79355008 -0.01518543 16.73023987 -0.01895142 C20.79142492 -0.02337748 24.85241215 -0.01693532 28.91357422 -0.00292969 C34.12031293 0.01415092 39.32658736 0.00432989 44.53330898 -0.01364708 C48.53358966 -0.02448701 52.53376027 -0.0210374 56.53404427 -0.0132637 C58.45379758 -0.01126168 60.37356087 -0.01372102 62.29330254 -0.02070236 C64.97705426 -0.02831897 67.66005427 -0.01670928 70.34375 0 C71.53538002 -0.00910904 71.53538002 -0.00910904 72.75108337 -0.0184021 C76.01005596 0.01919936 78.35055666 0.17677721 81.23670959 1.75741577 C82.73657227 3.38818359 82.73657227 3.38818359 83.12719727 5.86865234 C83.08079102 6.76197266 83.03438477 7.65529297 82.98657227 8.57568359 C82.95047852 9.47673828 82.91438477 10.37779297 82.87719727 11.30615234 C82.83079102 11.99322266 82.78438477 12.68029297 82.73657227 13.38818359 C79.44527579 15.03383183 75.7891576 14.52627274 72.171875 14.51757812 C71.28561432 14.51933044 70.39935364 14.52108276 69.48623657 14.52288818 C66.54752665 14.52730088 63.60887658 14.52437099 60.67016602 14.52099609 C58.63517749 14.52166924 56.60018905 14.52263935 54.56520081 14.52389526 C50.29720292 14.5253714 46.02922593 14.52322015 41.76123047 14.51855469 C36.27742317 14.51285384 30.79366478 14.5161392 25.30985928 14.52212715 C21.10728076 14.52573195 16.90471394 14.52459462 12.70213509 14.52199936 C10.67942359 14.52133005 8.65671105 14.52215864 6.63400078 14.52447891 C3.81326336 14.5270045 0.99260639 14.52316634 -1.828125 14.51757812 C-3.09439476 14.52061447 -3.09439476 14.52061447 -4.38624573 14.52371216 C-10.14916455 14.50244678 -10.14916455 14.50244678 -11.26342773 13.38818359 C-11.46655273 11.20849609 -11.46655273 11.20849609 -11.51342773 8.51318359 C-11.53920898 7.62888672 -11.56499023 6.74458984 -11.59155273 5.83349609 C-11.26342773 3.38818359 -11.26342773 3.38818359 -10.25938416 1.75961304 C-7.09595704 -0.41399008 -3.70606148 -0.02825781 0 0 Z " fill="#EAECED" transform="translate(336.263427734375,404.61181640625)"/>
<path d="M0 0 C1.93715881 -0.0238678 1.93715881 -0.0238678 3.91345215 -0.04821777 C5.32446234 -0.04948486 6.73547386 -0.049662 8.14648438 -0.04882812 C9.59232887 -0.055928 11.03817053 -0.06362675 12.48400879 -0.07189941 C15.5136702 -0.08534738 18.543071 -0.08691137 21.57275391 -0.08105469 C25.45714364 -0.07515337 29.34028568 -0.10576406 33.2244339 -0.14617157 C36.20988716 -0.17200662 39.19503813 -0.17493 42.18058777 -0.17127991 C43.61275879 -0.17297466 45.04494326 -0.18265152 46.477005 -0.20042419 C48.47803824 -0.22252788 50.47936539 -0.20973138 52.48046875 -0.1953125 C53.61947632 -0.19736694 54.75848389 -0.19942139 55.93200684 -0.20153809 C58.74023438 0.41992188 58.74023438 0.41992188 60.63928223 2.76306152 C62.04138263 6.14666451 61.79872754 7.94201575 60.74023438 11.41992188 C59.57777405 13.0753479 59.57777405 13.0753479 57.74023438 14.41992188 C54.92527771 14.8008728 54.92527771 14.8008728 51.46459961 14.80810547 C49.52259926 14.82229019 49.52259926 14.82229019 47.54136658 14.83676147 C46.12718398 14.83139236 44.71300418 14.82523956 43.29882812 14.81835938 C41.85058953 14.82038002 40.40235193 14.82329139 38.95411682 14.82705688 C35.92024032 14.8314793 32.88662889 14.82505118 29.8527832 14.81103516 C25.95960917 14.79392767 22.06705485 14.80379428 18.17390347 14.82175255 C15.18422249 14.83257981 12.1946891 14.82914927 9.20500374 14.82136917 C7.76924631 14.819365 6.33347558 14.82183404 4.89773369 14.82880783 C2.89398318 14.8364057 0.89018581 14.82277666 -1.11352539 14.80810547 C-2.25475357 14.80571869 -3.39598175 14.80333191 -4.5717926 14.8008728 C-5.90233925 14.61230209 -5.90233925 14.61230209 -7.25976562 14.41992188 C-9.23921498 11.45074784 -9.55327144 10.76289909 -9.57226562 7.41992188 C-9.58902344 6.73929688 -9.60578125 6.05867187 -9.62304688 5.35742188 C-8.62861271 0.05377299 -4.68667916 0.03464247 0 0 Z " fill="#EEEEEE" transform="translate(280.259765625,511.580078125)"/>
<path d="M0 0 C1.03777588 -0.00315216 2.07555176 -0.00630432 3.14477539 -0.009552 C4.83848267 -0.00651566 4.83848267 -0.00651566 6.56640625 -0.00341797 C7.71681396 -0.00437469 8.86722168 -0.00533142 10.05249023 -0.00631714 C12.49039769 -0.00699916 14.92830695 -0.00514337 17.36621094 -0.00097656 C21.11267143 0.00437136 24.85901202 -0.00092086 28.60546875 -0.00732422 C30.96744818 -0.00666344 33.32942754 -0.00538229 35.69140625 -0.00341797 C36.82054443 -0.0054422 37.94968262 -0.00746643 39.11303711 -0.009552 C40.15081299 -0.00639984 41.18858887 -0.00324768 42.2578125 0 C43.1763501 0.00079559 44.0948877 0.00159119 45.04125977 0.00241089 C47.12890625 0.12939453 47.12890625 0.12939453 48.12890625 1.12939453 C48.25345485 2.77169817 48.30459149 4.41991729 48.31640625 6.06689453 C48.33058594 6.96279297 48.34476562 7.85869141 48.359375 8.78173828 C48.12890625 11.12939453 48.12890625 11.12939453 46.12890625 13.12939453 C43.95223999 13.36990356 43.95223999 13.36990356 41.22021484 13.35644531 C40.19930756 13.35629425 39.17840027 13.35614319 38.1265564 13.35598755 C36.46869614 13.34050369 36.46869614 13.34050369 34.77734375 13.32470703 C33.64817535 13.32187714 32.51900696 13.31904724 31.35562134 13.31613159 C27.73827654 13.30490915 24.12117659 13.27980075 20.50390625 13.25439453 C18.05599315 13.2443674 15.60807618 13.23524109 13.16015625 13.22705078 C7.14965561 13.2049631 1.13929842 13.17146527 -4.87109375 13.12939453 C-6.12179176 10.62799851 -6.00411842 8.85546762 -5.99609375 6.06689453 C-5.99867188 5.16841797 -6.00125 4.26994141 -6.00390625 3.34423828 C-5.75640742 -0.78316873 -3.6217856 0.00313702 0 0 Z " fill="#EDEDED" transform="translate(330.87109375,373.87060546875)"/>
<path d="M0 0 C28.05 0 56.1 0 85 0 C85 0.33 85 0.66 85 1 C57.61 1 30.22 1 2 1 C2 62.71 2 124.42 2 188 C35 188 68 188 102 188 C102 188.33 102 188.66 102 189 C96.79045846 190.06696479 91.79583532 190.13520768 86.50634766 190.11352539 C85.55405462 190.11364593 84.60176159 190.11376646 83.62061119 190.11389065 C80.5517375 190.11314693 77.48292527 190.10554336 74.4140625 190.09765625 C72.51391631 190.09618516 70.61376972 190.09516548 68.71362305 190.09460449 C61.68407583 190.08937102 54.65453731 190.07540976 47.625 190.0625 C31.90875 190.041875 16.1925 190.02125 0 190 C0 127.3 0 64.6 0 0 Z " fill="#085FB3" transform="translate(834,520)"/>
<path d="M0 0 C0.72711182 0.00091141 1.45422363 0.00182281 2.20336914 0.00276184 C2.95046143 -0.00152328 3.69755371 -0.00580841 4.46728516 -0.01022339 C6.0475971 -0.01596904 7.6279355 -0.01646521 9.20825195 -0.01213074 C11.63156002 -0.00896905 14.05364949 -0.03243099 16.47680664 -0.05778503 C18.01065926 -0.06005778 19.54451518 -0.06076164 21.07836914 -0.05973816 C21.80548096 -0.06894791 22.53259277 -0.07815765 23.28173828 -0.08764648 C25.32446289 -0.06877136 25.32446289 -0.06877136 28.64086914 0.30354309 C31.10410983 3.99840412 31.03078602 5.93647401 30.64086914 10.30354309 C29.58422852 11.99519348 29.58422852 11.99519348 27.64086914 13.30354309 C25.08964021 13.61382262 22.78668959 13.74788663 20.23461914 13.73713684 C19.51350952 13.74237869 18.7923999 13.74762054 18.04943848 13.75302124 C16.52638028 13.75943839 15.0032725 13.75810834 13.48022461 13.74958801 C11.14876232 13.74107192 8.81974589 13.76984757 6.48852539 13.80158997 C5.00805738 13.80320196 3.52758502 13.80262449 2.04711914 13.79963684 C1.00170959 13.81648781 1.00170959 13.81648781 -0.06481934 13.8336792 C-3.24837147 13.78778816 -4.93974729 13.68678542 -7.33374023 11.49909973 C-8.87855567 8.19135564 -8.19524681 5.77664014 -7.35913086 2.30354309 C-4.87478245 -0.18080532 -3.39271529 0.04797426 0 0 Z " fill="#EEEEEE" transform="translate(279.359130859375,481.6964569091797)"/>
<path d="M0 0 C0.72711182 0.00091141 1.45422363 0.00182281 2.20336914 0.00276184 C2.95046143 -0.00152328 3.69755371 -0.00580841 4.46728516 -0.01022339 C6.0475971 -0.01596904 7.6279355 -0.01646521 9.20825195 -0.01213074 C11.63156002 -0.00896905 14.05364949 -0.03243099 16.47680664 -0.05778503 C18.01065926 -0.06005778 19.54451518 -0.06076164 21.07836914 -0.05973816 C21.80548096 -0.06894791 22.53259277 -0.07815765 23.28173828 -0.08764648 C25.32446289 -0.06877136 25.32446289 -0.06877136 28.64086914 0.30354309 C30.96666015 3.79222961 31.05952371 5.20072828 30.64086914 9.30354309 C29.56835938 11.45954895 29.56835938 11.45954895 27.64086914 13.30354309 C24.42626953 13.83699036 24.42626953 13.83699036 20.48852539 13.86994934 C19.44371254 13.87924721 19.44371254 13.87924721 18.37779236 13.88873291 C16.90600989 13.89582983 15.43414713 13.89265903 13.96240234 13.87995911 C11.71374134 13.86610699 9.46925552 13.90013501 7.22094727 13.93830872 C5.78930562 13.93926012 4.35765879 13.93739994 2.92602539 13.93244934 C1.62544189 13.93317444 0.3248584 13.93389954 -1.01513672 13.93464661 C-4.35913086 13.30354309 -4.35913086 13.30354309 -6.82226562 10.9634552 C-8.35913086 8.30354309 -8.35913086 8.30354309 -8.23413086 5.11604309 C-6.70903823 0.21395963 -4.8351964 0.06837148 0 0 Z " fill="#EDEEEE" transform="translate(335.359130859375,481.6964569091797)"/>
<path d="M0 0 C7.10244999 -0.02526787 14.20488848 -0.04283201 21.30737305 -0.05493164 C23.72567172 -0.05997349 26.14396733 -0.06680678 28.56225586 -0.07543945 C32.02979283 -0.08751157 35.49728966 -0.09322963 38.96484375 -0.09765625 C40.05337143 -0.10281754 41.14189911 -0.10797882 42.26341248 -0.11329651 C43.76485558 -0.11340981 43.76485558 -0.11340981 45.29663086 -0.11352539 C46.62566689 -0.11685631 46.62566689 -0.11685631 47.98155212 -0.12025452 C50 0 50 0 51 1 C51.07205511 2.68608966 51.08386068 4.37500659 51.0625 6.0625 C51.05347656 6.98160156 51.04445313 7.90070313 51.03515625 8.84765625 C51.02355469 9.55792969 51.01195312 10.26820313 51 11 C50.34 11.33 49.68 11.66 49 12 C49 9.03 49 6.06 49 3 C46.62617015 1.81308507 45.10821107 1.84427133 42.45849609 1.79467773 C41.51767181 1.77473251 40.57684753 1.75478729 39.60751343 1.73423767 C38.58976837 1.71752518 37.57202332 1.70081268 36.5234375 1.68359375 C35.48305328 1.66281265 34.44266907 1.64203156 33.37075806 1.62062073 C30.03890751 1.55510128 26.7069765 1.49622908 23.375 1.4375 C21.11978326 1.39431706 18.86457473 1.35070285 16.609375 1.30664062 C11.07300236 1.19941748 5.53654922 1.09765554 0 1 C0 0.67 0 0.34 0 0 Z " fill="#FDFCF6" transform="translate(328,374)"/>
<path d="M0 0 C3.78335703 1.26111901 4.40206288 2.67627743 6.625 5.9375 C10.14323654 10.93469894 13.95381962 15.43824545 18.1171875 19.90625 C20 22 20 22 22 25 C12.13847759 20.7259316 4.47783279 9.45320257 0 0 Z " fill="#F0F5F2" transform="translate(499,668)"/>
<path d="M0 0 C0.33 0 0.66 0 1 0 C1.00257813 0.66386719 1.00515625 1.32773437 1.0078125 2.01171875 C1.15643715 7.17601938 1.15643715 7.17601938 3.2265625 11.77734375 C5.68472763 13.95187444 7.61495215 14.95814697 10.875 15.3125 C11.57625 15.209375 12.2775 15.10625 13 15 C13 15.66 13 16.32 13 17 C5.93241603 17.71873735 5.93241603 17.71873735 2 14.6875 C-1.14472144 10.32275285 -0.41017461 5.12262512 0 0 Z " fill="#F4F6F2" transform="translate(179,446)"/>
<path d="M0 0 C3.21524305 1.40844718 5.32183868 3.10344786 7.75 5.625 C8.67039062 6.57246094 8.67039062 6.57246094 9.609375 7.5390625 C10.29773438 8.26222656 10.29773438 8.26222656 11 9 C10.34 9.66 9.68 10.32 9 11 C8.67 10.01 8.34 9.02 8 8 C6.67592331 7.31513275 5.34090759 6.65129797 4 6 C1.75 4 1.75 4 0 2 C0 1.34 0 0.68 0 0 Z " fill="#D6E4EA" transform="translate(630,657)"/>
<path d="M0 0 C2.96783129 1.45668783 5.86415313 3.01232086 8.75 4.625 C9.94882812 5.29402344 9.94882812 5.29402344 11.171875 5.9765625 C11.77515625 6.31429687 12.3784375 6.65203125 13 7 C10 8 10 8 7.51953125 7.00390625 C6.62621094 6.52824219 5.73289062 6.05257812 4.8125 5.5625 C3.91144531 5.08941406 3.01039063 4.61632812 2.08203125 4.12890625 C1.39496094 3.75636719 0.70789063 3.38382813 0 3 C0 2.01 0 1.02 0 0 Z " fill="#1261B3" transform="translate(712,582)"/>
<path d="M0 0 C2.33294775 -0.04241723 4.66702567 -0.04092937 7 0 C8 1 8 1 8.09765625 3.28515625 C8.08605469 4.20167969 8.07445312 5.11820312 8.0625 6.0625 C8.05347656 6.98160156 8.04445313 7.90070313 8.03515625 8.84765625 C8.02355469 9.55792969 8.01195312 10.26820313 8 11 C7.01 11.495 7.01 11.495 6 12 C6 9.03 6 6.06 6 3 C4.02 2.34 2.04 1.68 0 1 C0 0.67 0 0.34 0 0 Z " fill="#F3F7F4" transform="translate(371,374)"/>
<path d="M0 0 C0.33 0.66 0.66 1.32 1 2 C-1.64960955 5.63094642 -4.01824456 7.89851796 -8 10 C-6.34908222 5.70761377 -3.26245434 3.1206085 0 0 Z " fill="#0155B0" transform="translate(679,660)"/>
<path d="M0 0 C0 0.99 0 1.98 0 3 C-4.22222222 6 -4.22222222 6 -7 6 C-4.84615385 0 -4.84615385 0 0 0 Z " fill="#1366B6" transform="translate(176,541)"/>
<path d="M0 0 C3.7952131 1.49097658 5.61042731 3.75700849 8 7 C5 7 5 7 2.3125 4.625 C0 2 0 2 0 0 Z " fill="#246DB8" transform="translate(643,672)"/>
<path d="M0 0 C-1.49097658 3.7952131 -3.75700849 5.61042731 -7 8 C-6.44414399 4.1090079 -4.34122117 0 0 0 Z " fill="#F2F3F1" transform="translate(796,557)"/>
<path d="M0 0 C3.36720387 1.39332574 4.9859524 2.9789286 7 6 C4 6 4 6 1.8125 4.125 C0 2 0 2 0 0 Z " fill="#1B6AB9" transform="translate(409,325)"/>
<path d="M0 0 C0.66 0 1.32 0 2 0 C2.0825 0.61875 2.165 1.2375 2.25 1.875 C2.81258459 4.18437567 2.81258459 4.18437567 5.0625 5.25 C5.701875 5.4975 6.34125 5.745 7 6 C6.34 6.66 5.68 7.32 5 8 C0 2.25 0 2.25 0 0 Z " fill="#D9E5EB" transform="translate(117,529)"/>
</svg>
