<?xml version="1.0" encoding="UTF-8"?>
<svg version="1.1" xmlns="http://www.w3.org/2000/svg" width="1024" height="1024">
<path d="M0 0 C337.92 0 675.84 0 1024 0 C1024 337.92 1024 675.84 1024 1024 C686.08 1024 348.16 1024 0 1024 C0 686.08 0 348.16 0 0 Z " fill="#EFEFF0" transform="translate(0,0)"/>
<path d="M0 0 C10.77903173 9.28768625 19.83558886 23.20417476 21.09106445 37.7590332 C21.53674654 53.65976253 19.90725063 66.72789066 11.55664062 80.6105957 C9.29343213 84.45837102 8.21349126 87.23764623 8.9140625 91.70703125 C12.1200546 93.84435932 12.92994259 93.95711677 16.61134338 93.95858765 C17.57705765 93.96397049 18.54277191 93.96935333 19.53775024 93.97489929 C21.12503433 93.9687133 21.12503433 93.9687133 22.74438477 93.96240234 C23.8601741 93.9660228 24.97596344 93.96964325 26.12556458 93.97337341 C28.55314376 93.98027598 30.98073848 93.98277125 33.4083271 93.98142624 C37.25498593 93.98046261 41.10136406 93.99338597 44.94798279 94.01040649 C55.88660549 94.05671673 66.82519889 94.08135106 77.76391602 94.08789062 C84.45241388 94.09205803 91.14058014 94.11721833 97.82899284 94.15321732 C100.37455434 94.16299875 102.92015591 94.16535636 105.46573067 94.16004562 C109.03679365 94.15294819 112.60699668 94.17031585 116.17797852 94.19287109 C117.22199829 94.18469864 118.26601807 94.17652618 119.3416748 94.16810608 C127.92677215 94.26413213 135.32287035 96.06654252 141.7890625 101.95703125 C146.76886892 107.40663073 150.02484702 113.99309102 150.05882263 121.42018127 C150.06572113 122.38904266 150.07261963 123.35790405 150.07972717 124.35612488 C150.08364723 125.9482354 150.08364723 125.9482354 150.08764648 127.57250977 C150.0943335 128.69139587 150.10102051 129.81028198 150.10791016 130.96307373 C150.12197172 133.3955787 150.13386224 135.82809695 150.14385796 138.26062202 C150.16023758 142.10502595 150.18347235 145.94933087 150.20875549 149.79368591 C150.27962918 160.72495639 150.33982089 171.65626582 150.39086914 182.58764648 C150.42215581 189.26955814 150.46383132 195.95134095 150.51106453 202.63316154 C150.52712769 205.18533206 150.53942916 207.73752902 150.54797173 210.28973579 C150.56006423 213.85025892 150.58418684 217.41050975 150.61108398 220.97094727 C150.6119677 222.56609413 150.6119677 222.56609413 150.61286926 224.19346619 C150.62258759 225.15950775 150.63230591 226.12554932 150.64231873 227.12086487 C150.64866663 228.38432912 150.64866663 228.38432912 150.65514278 229.67331791 C150.73198819 231.93305111 150.73198819 231.93305111 152.9140625 233.70703125 C158.97433943 234.32558665 163.89546162 232.69629186 169.5390625 230.76953125 C185.22102125 225.53816575 197.70817742 225.51916755 213.1015625 232.45703125 C225.8058807 239.38422791 234.59553411 250.01600993 239.0703125 263.7578125 C241.73772688 274.57473351 241.08345301 287.40245394 236.9140625 297.70703125 C236.52347656 298.68929688 236.13289063 299.6715625 235.73046875 300.68359375 C229.45755097 314.72213497 218.82502182 322.24360219 204.9140625 327.70703125 C201.54751677 328.82301326 198.44592026 329.44371608 194.9140625 329.70703125 C193.98464844 329.78695313 193.05523438 329.866875 192.09765625 329.94921875 C182.89746896 330.35704974 175.18402667 327.62281084 166.63671875 324.515625 C165.59386719 324.14566406 164.55101562 323.77570313 163.4765625 323.39453125 C162.54972656 323.04777344 161.62289063 322.70101563 160.66796875 322.34375 C157.40006727 321.58819264 155.13903335 321.83930528 151.9140625 322.70703125 C150.76303846 325.00907933 150.78699902 326.30619432 150.78276062 328.86645508 C150.77875244 329.73823898 150.77474426 330.61002289 150.77061462 331.50822449 C150.77114334 332.46715103 150.77167206 333.42607758 150.7722168 334.4140625 C150.76874237 335.42241653 150.76526794 336.43077057 150.76168823 337.46968079 C150.75432184 339.66591843 150.74898118 341.86216357 150.74539757 344.05841064 C150.73824021 347.53949024 150.72257688 351.0204282 150.70405579 354.50146484 C150.6515672 364.40150961 150.60365052 374.3014794 150.58813477 384.20166016 C150.57802729 390.25361245 150.54862635 396.30521234 150.50681496 402.35702515 C150.49453352 404.65975269 150.48937845 406.9625301 150.49161339 409.26528931 C150.49397832 412.49885317 150.47170629 415.73141567 150.4440918 418.96484375 C150.45069321 419.90757645 150.45729462 420.85030914 150.46409607 421.8216095 C150.32857211 431.54315468 146.91954102 440.77853601 139.9140625 447.70703125 C134.11968447 451.75805728 128.92518329 453.81644637 121.85528564 453.8609314 C120.32458939 453.87383209 120.32458939 453.87383209 118.76296997 453.88699341 C117.64912933 453.89125336 116.5352887 453.89551331 115.38769531 453.89990234 C114.21002594 453.90807983 113.03235657 453.91625732 111.81900024 453.92468262 C107.91840971 453.9495126 104.01782683 453.96620261 100.1171875 453.98046875 C98.77141056 453.98583132 97.42563369 453.99120883 96.07985687 453.9966011 C90.47976739 454.01821889 84.8796807 454.03695377 79.27956009 454.0482235 C71.26911037 454.06445321 63.25914634 454.09761904 55.24887967 454.15462434 C49.60795637 454.19339212 43.96716262 454.21286418 38.32610965 454.21814406 C34.96103334 454.22178813 31.59647592 454.23370712 28.23154449 454.2662468 C24.47332359 454.29786275 20.71632679 454.29793951 16.95800781 454.29052734 C15.8522641 454.30693268 14.74652039 454.32333801 13.60726929 454.34024048 C6.81668222 454.28549104 2.09440324 453.26992113 -3.0859375 448.70703125 C-8.28926008 442.7535878 -9.48085374 437.71539681 -9.44921875 429.859375 C-8.90153786 425.10691827 -7.16135589 421.0215343 -5.27734375 416.65234375 C-1.72676431 407.87484572 -2.46735595 399.9211163 -5.86328125 391.23046875 C-7.50412591 387.84393313 -9.54287024 385.46202079 -12.0859375 382.70703125 C-12.0859375 382.04703125 -12.0859375 381.38703125 -12.0859375 380.70703125 C-12.65699219 380.42859375 -13.22804688 380.15015625 -13.81640625 379.86328125 C-16.06190381 378.71927561 -18.22127277 377.47543273 -20.3984375 376.20703125 C-28.58265963 371.69572832 -36.78407637 370.19801416 -45.95703125 372.39453125 C-56.55965576 375.9238376 -63.4979887 381.89886178 -69.12109375 391.46875 C-72.63550176 399.00429463 -72.35328788 408.583742 -69.9609375 416.3671875 C-69.05236978 418.69797343 -68.1371194 421.02616663 -67.21484375 423.3515625 C-64.98669487 429.97433029 -64.85488335 436.6973204 -67.7109375 443.14453125 C-70.59472265 448.06332791 -74.81176497 451.52144622 -80.0859375 453.70703125 C-82.48954296 453.96430016 -82.48954296 453.96430016 -85.21391296 453.97445679 C-86.76768394 453.98725174 -86.76768394 453.98725174 -88.35284424 454.00030518 C-89.48381531 453.9993988 -90.61478638 453.99849243 -91.7800293 453.99755859 C-93.57338463 454.00763443 -93.57338463 454.00763443 -95.40296936 454.01791382 C-98.68013138 454.03365919 -101.95714129 454.04026916 -105.23433661 454.04154539 C-107.28475828 454.04296847 -109.33515352 454.04724117 -111.38556862 454.05253983 C-118.54767157 454.07104279 -125.70970012 454.07921063 -132.87182617 454.07763672 C-139.53267086 454.07643713 -146.19319055 454.09750251 -152.85395306 454.12912405 C-158.58322942 454.15534739 -164.31240009 454.1660014 -170.04173595 454.1647259 C-173.45871804 454.16421778 -176.87541163 454.16981607 -180.2923336 454.191082 C-184.11011863 454.21072999 -187.92707397 454.20490682 -191.74487305 454.19287109 C-193.42614792 454.20972961 -193.42614792 454.20972961 -195.14138794 454.22692871 C-205.00607231 454.14811078 -212.12303952 451.35411384 -219.359375 444.63671875 C-224.3856276 439.01914231 -226.1924358 432.49672592 -226.23310852 425.05949402 C-226.24384148 423.703433 -226.24384148 423.703433 -226.25479126 422.31997681 C-226.25748016 421.34064178 -226.26016907 420.36130676 -226.26293945 419.35229492 C-226.27279625 417.7903968 -226.27279625 417.7903968 -226.28285217 416.19694519 C-226.30253871 412.75629602 -226.3142363 409.31569036 -226.32421875 405.875 C-226.32829428 404.69805384 -226.3323698 403.52110767 -226.33656883 402.30849648 C-226.35740784 396.08123578 -226.37172005 389.85399698 -226.38110352 383.62670898 C-226.39217483 377.20077528 -226.42658975 370.77518718 -226.46627522 364.34937572 C-226.49243338 359.40191509 -226.50079458 354.45453702 -226.50438499 349.50701332 C-226.50925146 347.13838677 -226.52086709 344.76976393 -226.53942299 342.40120506 C-226.56380076 339.08384204 -226.56285166 335.76737657 -226.5559082 332.44995117 C-226.56871826 331.47668884 -226.58152832 330.50342651 -226.59472656 329.50067139 C-226.54091638 322.42937289 -225.0099279 317.09545861 -220.33984375 311.68359375 C-219.78167969 311.23757813 -219.22351563 310.7915625 -218.6484375 310.33203125 C-217.81505859 309.63980469 -217.81505859 309.63980469 -216.96484375 308.93359375 C-211.01264557 305.04795918 -204.98193115 304.4833163 -198.0859375 305.70703125 C-192.20324802 307.90294156 -186.6299751 310.82110718 -181.09375 313.76733398 C-171.86650372 318.08587374 -159.42942739 316.35547302 -150.15625 313.0859375 C-139.35853205 308.23658071 -132.38512587 300.96091471 -127.99609375 289.98046875 C-124.48115484 278.73914338 -125.1467678 267.64505503 -130.375 257.109375 C-136.40938545 246.41205534 -143.76837133 240.49258514 -155.41015625 236.59375 C-169.27913716 233.24809786 -180.21843525 236.58857511 -192.078125 243.65625 C-197.79527039 246.6482969 -205.18439286 246.77047311 -211.3359375 245.09375 C-217.47600059 242.37149546 -222.47012589 237.41211276 -225.15711975 231.25079346 C-226.42760416 226.40345431 -226.38907919 221.80312614 -226.39233398 216.81152344 C-226.4006575 215.72455673 -226.40898102 214.63759003 -226.41755676 213.51768494 C-226.44162166 209.92972209 -226.45042502 206.34194121 -226.45703125 202.75390625 C-226.4660007 200.25294949 -226.47512261 197.75199327 -226.48439026 195.2510376 C-226.5008736 190.00898494 -226.50861193 184.76697652 -226.51147461 179.52490234 C-226.51470449 174.15330389 -226.53581903 168.78211352 -226.57299805 163.41064453 C-226.61729074 156.91326396 -226.63694088 150.41626719 -226.63820076 143.91873932 C-226.64239622 141.4484913 -226.65480322 138.97824257 -226.67571831 136.50807953 C-226.70270513 133.04497979 -226.69778403 129.58326992 -226.68530273 126.12011719 C-226.70013702 125.10886276 -226.71497131 124.09760834 -226.73025513 123.05570984 C-226.64897734 115.09849304 -224.55891368 108.52035921 -219.12538815 102.55434799 C-211.54847208 95.25209797 -203.68557516 94.26314295 -193.5769043 94.32226562 C-191.88525902 94.31420647 -191.88525902 94.31420647 -190.15943909 94.3059845 C-187.72266537 94.29623558 -185.28585705 94.29325357 -182.84906578 94.29634094 C-178.99546638 94.30082746 -175.14232404 94.28679679 -171.28877258 94.26794434 C-162.4212494 94.22809941 -153.55376286 94.21553197 -144.68616486 94.20441437 C-135.89472002 94.19307131 -127.10353077 94.1701435 -118.31217384 94.12702942 C-114.5102482 94.11341586 -110.70860262 94.11763663 -106.90666199 94.12243652 C-104.58710364 94.11310139 -102.26754844 94.10293396 -99.94799805 94.09179688 C-98.35600082 94.10101921 -98.35600082 94.10101921 -96.73184204 94.11042786 C-95.27893517 94.09812386 -95.27893517 94.09812386 -93.79667664 94.08557129 C-92.95440867 94.08485878 -92.11214071 94.08414627 -91.24434948 94.08341217 C-88.58100563 93.61898192 -87.66736467 92.87314425 -86.0859375 90.70703125 C-86.22173903 85.4862167 -88.55313772 81.44808026 -90.9609375 76.95703125 C-99.17862974 61.09603091 -101.48805427 45.66832486 -96.33203125 28.2734375 C-90.9947431 12.99775072 -79.64913651 0.38240714 -65.109375 -6.75390625 C-62.13270838 -8.05761087 -59.151497 -9.21644854 -56.0859375 -10.29296875 C-55.38339844 -10.54046875 -54.68085938 -10.78796875 -53.95703125 -11.04296875 C-35.64277674 -16.20393284 -14.96180678 -11.11719061 0 0 Z " fill="#3792D4" transform="translate(433.0859375,290.29296875)"/>
<path d="M0 0 C10.77903173 9.28768625 19.83558886 23.20417476 21.09106445 37.7590332 C21.53674654 53.65976253 19.90725063 66.72789066 11.55664062 80.6105957 C9.29343213 84.45837102 8.21349126 87.23764623 8.9140625 91.70703125 C12.1200546 93.84435932 12.92994259 93.95711677 16.61134338 93.95858765 C17.57705765 93.96397049 18.54277191 93.96935333 19.53775024 93.97489929 C21.12503433 93.9687133 21.12503433 93.9687133 22.74438477 93.96240234 C23.8601741 93.9660228 24.97596344 93.96964325 26.12556458 93.97337341 C28.55314376 93.98027598 30.98073848 93.98277125 33.4083271 93.98142624 C37.25498593 93.98046261 41.10136406 93.99338597 44.94798279 94.01040649 C55.88660549 94.05671673 66.82519889 94.08135106 77.76391602 94.08789062 C84.45241388 94.09205803 91.14058014 94.11721833 97.82899284 94.15321732 C100.37455434 94.16299875 102.92015591 94.16535636 105.46573067 94.16004562 C109.03679365 94.15294819 112.60699668 94.17031585 116.17797852 94.19287109 C117.22199829 94.18469864 118.26601807 94.17652618 119.3416748 94.16810608 C127.92677215 94.26413213 135.32287035 96.06654252 141.7890625 101.95703125 C146.76886892 107.40663073 150.02484702 113.99309102 150.05882263 121.42018127 C150.06572113 122.38904266 150.07261963 123.35790405 150.07972717 124.35612488 C150.08364723 125.9482354 150.08364723 125.9482354 150.08764648 127.57250977 C150.0943335 128.69139587 150.10102051 129.81028198 150.10791016 130.96307373 C150.12197172 133.3955787 150.13386224 135.82809695 150.14385796 138.26062202 C150.16023758 142.10502595 150.18347235 145.94933087 150.20875549 149.79368591 C150.27962918 160.72495639 150.33982089 171.65626582 150.39086914 182.58764648 C150.42215581 189.26955814 150.46383132 195.95134095 150.51106453 202.63316154 C150.52712769 205.18533206 150.53942916 207.73752902 150.54797173 210.28973579 C150.56006423 213.85025892 150.58418684 217.41050975 150.61108398 220.97094727 C150.6119677 222.56609413 150.6119677 222.56609413 150.61286926 224.19346619 C150.62258759 225.15950775 150.63230591 226.12554932 150.64231873 227.12086487 C150.64866663 228.38432912 150.64866663 228.38432912 150.65514278 229.67331791 C150.73198819 231.93305111 150.73198819 231.93305111 152.9140625 233.70703125 C158.97433943 234.32558665 163.89546162 232.69629186 169.5390625 230.76953125 C185.22102125 225.53816575 197.70817742 225.51916755 213.1015625 232.45703125 C225.8058807 239.38422791 234.59553411 250.01600993 239.0703125 263.7578125 C241.73772688 274.57473351 241.08345301 287.40245394 236.9140625 297.70703125 C236.52347656 298.68929688 236.13289063 299.6715625 235.73046875 300.68359375 C229.45755097 314.72213497 218.82502182 322.24360219 204.9140625 327.70703125 C201.54751677 328.82301326 198.44592026 329.44371608 194.9140625 329.70703125 C193.98464844 329.78695313 193.05523438 329.866875 192.09765625 329.94921875 C182.89746896 330.35704974 175.18402667 327.62281084 166.63671875 324.515625 C165.59386719 324.14566406 164.55101562 323.77570313 163.4765625 323.39453125 C162.54972656 323.04777344 161.62289063 322.70101563 160.66796875 322.34375 C157.40006727 321.58819264 155.13903335 321.83930528 151.9140625 322.70703125 C150.76303846 325.00907933 150.78699902 326.30619432 150.78276062 328.86645508 C150.77875244 329.73823898 150.77474426 330.61002289 150.77061462 331.50822449 C150.77114334 332.46715103 150.77167206 333.42607758 150.7722168 334.4140625 C150.76874237 335.42241653 150.76526794 336.43077057 150.76168823 337.46968079 C150.75432184 339.66591843 150.74898118 341.86216357 150.74539757 344.05841064 C150.73824021 347.53949024 150.72257688 351.0204282 150.70405579 354.50146484 C150.6515672 364.40150961 150.60365052 374.3014794 150.58813477 384.20166016 C150.57802729 390.25361245 150.54862635 396.30521234 150.50681496 402.35702515 C150.49453352 404.65975269 150.48937845 406.9625301 150.49161339 409.26528931 C150.49397832 412.49885317 150.47170629 415.73141567 150.4440918 418.96484375 C150.45069321 419.90757645 150.45729462 420.85030914 150.46409607 421.8216095 C150.32857211 431.54315468 146.91954102 440.77853601 139.9140625 447.70703125 C134.11968447 451.75805728 128.92518329 453.81644637 121.85528564 453.8609314 C120.32458939 453.87383209 120.32458939 453.87383209 118.76296997 453.88699341 C117.64912933 453.89125336 116.5352887 453.89551331 115.38769531 453.89990234 C114.21002594 453.90807983 113.03235657 453.91625732 111.81900024 453.92468262 C107.91840971 453.9495126 104.01782683 453.96620261 100.1171875 453.98046875 C98.77141056 453.98583132 97.42563369 453.99120883 96.07985687 453.9966011 C90.47976739 454.01821889 84.8796807 454.03695377 79.27956009 454.0482235 C71.26911037 454.06445321 63.25914634 454.09761904 55.24887967 454.15462434 C49.60795637 454.19339212 43.96716262 454.21286418 38.32610965 454.21814406 C34.96103334 454.22178813 31.59647592 454.23370712 28.23154449 454.2662468 C24.47332359 454.29786275 20.71632679 454.29793951 16.95800781 454.29052734 C15.8522641 454.30693268 14.74652039 454.32333801 13.60726929 454.34024048 C6.81668222 454.28549104 2.09440324 453.26992113 -3.0859375 448.70703125 C-8.28926008 442.7535878 -9.48085374 437.71539681 -9.44921875 429.859375 C-8.90153786 425.10691827 -7.16135589 421.0215343 -5.27734375 416.65234375 C-1.72676431 407.87484572 -2.46735595 399.9211163 -5.86328125 391.23046875 C-7.50412591 387.84393313 -9.54287024 385.46202079 -12.0859375 382.70703125 C-12.0859375 382.04703125 -12.0859375 381.38703125 -12.0859375 380.70703125 C-12.65699219 380.42859375 -13.22804688 380.15015625 -13.81640625 379.86328125 C-16.06190381 378.71927561 -18.22127277 377.47543273 -20.3984375 376.20703125 C-28.58265963 371.69572832 -36.78407637 370.19801416 -45.95703125 372.39453125 C-56.55965576 375.9238376 -63.4979887 381.89886178 -69.12109375 391.46875 C-72.63550176 399.00429463 -72.35328788 408.583742 -69.9609375 416.3671875 C-69.05236978 418.69797343 -68.1371194 421.02616663 -67.21484375 423.3515625 C-64.98669487 429.97433029 -64.85488335 436.6973204 -67.7109375 443.14453125 C-70.59472265 448.06332791 -74.81176497 451.52144622 -80.0859375 453.70703125 C-82.48954296 453.96430016 -82.48954296 453.96430016 -85.21391296 453.97445679 C-86.76768394 453.98725174 -86.76768394 453.98725174 -88.35284424 454.00030518 C-89.48381531 453.9993988 -90.61478638 453.99849243 -91.7800293 453.99755859 C-93.57338463 454.00763443 -93.57338463 454.00763443 -95.40296936 454.01791382 C-98.68013138 454.03365919 -101.95714129 454.04026916 -105.23433661 454.04154539 C-107.28475828 454.04296847 -109.33515352 454.04724117 -111.38556862 454.05253983 C-118.54767157 454.07104279 -125.70970012 454.07921063 -132.87182617 454.07763672 C-139.53267086 454.07643713 -146.19319055 454.09750251 -152.85395306 454.12912405 C-158.58322942 454.15534739 -164.31240009 454.1660014 -170.04173595 454.1647259 C-173.45871804 454.16421778 -176.87541163 454.16981607 -180.2923336 454.191082 C-184.11011863 454.21072999 -187.92707397 454.20490682 -191.74487305 454.19287109 C-193.42614792 454.20972961 -193.42614792 454.20972961 -195.14138794 454.22692871 C-205.00607231 454.14811078 -212.12303952 451.35411384 -219.359375 444.63671875 C-224.3856276 439.01914231 -226.1924358 432.49672592 -226.23310852 425.05949402 C-226.24384148 423.703433 -226.24384148 423.703433 -226.25479126 422.31997681 C-226.25748016 421.34064178 -226.26016907 420.36130676 -226.26293945 419.35229492 C-226.27279625 417.7903968 -226.27279625 417.7903968 -226.28285217 416.19694519 C-226.30253871 412.75629602 -226.3142363 409.31569036 -226.32421875 405.875 C-226.32829428 404.69805384 -226.3323698 403.52110767 -226.33656883 402.30849648 C-226.35740784 396.08123578 -226.37172005 389.85399698 -226.38110352 383.62670898 C-226.39217483 377.20077528 -226.42658975 370.77518718 -226.46627522 364.34937572 C-226.49243338 359.40191509 -226.50079458 354.45453702 -226.50438499 349.50701332 C-226.50925146 347.13838677 -226.52086709 344.76976393 -226.53942299 342.40120506 C-226.56380076 339.08384204 -226.56285166 335.76737657 -226.5559082 332.44995117 C-226.56871826 331.47668884 -226.58152832 330.50342651 -226.59472656 329.50067139 C-226.54091638 322.42937289 -225.0099279 317.09545861 -220.33984375 311.68359375 C-219.78167969 311.23757813 -219.22351563 310.7915625 -218.6484375 310.33203125 C-217.81505859 309.63980469 -217.81505859 309.63980469 -216.96484375 308.93359375 C-211.01264557 305.04795918 -204.98193115 304.4833163 -198.0859375 305.70703125 C-192.20324802 307.90294156 -186.6299751 310.82110718 -181.09375 313.76733398 C-171.86650372 318.08587374 -159.42942739 316.35547302 -150.15625 313.0859375 C-139.35853205 308.23658071 -132.38512587 300.96091471 -127.99609375 289.98046875 C-124.48115484 278.73914338 -125.1467678 267.64505503 -130.375 257.109375 C-136.40938545 246.41205534 -143.76837133 240.49258514 -155.41015625 236.59375 C-169.27913716 233.24809786 -180.21843525 236.58857511 -192.078125 243.65625 C-197.79527039 246.6482969 -205.18439286 246.77047311 -211.3359375 245.09375 C-217.47600059 242.37149546 -222.47012589 237.41211276 -225.15711975 231.25079346 C-226.42760416 226.40345431 -226.38907919 221.80312614 -226.39233398 216.81152344 C-226.4006575 215.72455673 -226.40898102 214.63759003 -226.41755676 213.51768494 C-226.44162166 209.92972209 -226.45042502 206.34194121 -226.45703125 202.75390625 C-226.4660007 200.25294949 -226.47512261 197.75199327 -226.48439026 195.2510376 C-226.5008736 190.00898494 -226.50861193 184.76697652 -226.51147461 179.52490234 C-226.51470449 174.15330389 -226.53581903 168.78211352 -226.57299805 163.41064453 C-226.61729074 156.91326396 -226.63694088 150.41626719 -226.63820076 143.91873932 C-226.64239622 141.4484913 -226.65480322 138.97824257 -226.67571831 136.50807953 C-226.70270513 133.04497979 -226.69778403 129.58326992 -226.68530273 126.12011719 C-226.70013702 125.10886276 -226.71497131 124.09760834 -226.73025513 123.05570984 C-226.64897734 115.09849304 -224.55891368 108.52035921 -219.12538815 102.55434799 C-211.54847208 95.25209797 -203.68557516 94.26314295 -193.5769043 94.32226562 C-191.88525902 94.31420647 -191.88525902 94.31420647 -190.15943909 94.3059845 C-187.72266537 94.29623558 -185.28585705 94.29325357 -182.84906578 94.29634094 C-178.99546638 94.30082746 -175.14232404 94.28679679 -171.28877258 94.26794434 C-162.4212494 94.22809941 -153.55376286 94.21553197 -144.68616486 94.20441437 C-135.89472002 94.19307131 -127.10353077 94.1701435 -118.31217384 94.12702942 C-114.5102482 94.11341586 -110.70860262 94.11763663 -106.90666199 94.12243652 C-104.58710364 94.11310139 -102.26754844 94.10293396 -99.94799805 94.09179688 C-98.35600082 94.10101921 -98.35600082 94.10101921 -96.73184204 94.11042786 C-95.27893517 94.09812386 -95.27893517 94.09812386 -93.79667664 94.08557129 C-92.95440867 94.08485878 -92.11214071 94.08414627 -91.24434948 94.08341217 C-88.58100563 93.61898192 -87.66736467 92.87314425 -86.0859375 90.70703125 C-86.22173903 85.4862167 -88.55313772 81.44808026 -90.9609375 76.95703125 C-99.17862974 61.09603091 -101.48805427 45.66832486 -96.33203125 28.2734375 C-90.9947431 12.99775072 -79.64913651 0.38240714 -65.109375 -6.75390625 C-62.13270838 -8.05761087 -59.151497 -9.21644854 -56.0859375 -10.29296875 C-55.38339844 -10.54046875 -54.68085938 -10.78796875 -53.95703125 -11.04296875 C-35.64277674 -16.20393284 -14.96180678 -11.11719061 0 0 Z M-63.0859375 16.70703125 C-64.601875 17.75890625 -64.601875 17.75890625 -66.1484375 18.83203125 C-72.04006718 23.93272982 -76.8969722 32.04481041 -78.0859375 39.70703125 C-79.07799615 53.65096671 -74.97969363 63.6675292 -68.49414062 75.76367188 C-64.77736777 83.12605698 -63.69843181 89.71328958 -65.93359375 97.7578125 C-70.4360337 106.14016854 -75.41537837 110.45183216 -84.27731705 113.87660217 C-89.07708457 115.29575673 -93.74192059 115.2439115 -98.71435547 115.18945312 C-99.83105118 115.19336563 -100.94774689 115.19727814 -102.09828186 115.2013092 C-104.50501825 115.20725478 -106.91179086 115.20416779 -109.31850815 115.19288635 C-113.12641693 115.17556154 -116.93357096 115.18316521 -120.7414856 115.19714355 C-128.8147039 115.22241903 -136.88770547 115.21717858 -144.9609375 115.20703125 C-154.33906279 115.19526577 -163.71677918 115.19656688 -173.09488297 115.23109436 C-176.84869121 115.23820185 -180.6019199 115.22149921 -184.35568237 115.20397949 C-186.64842037 115.20968433 -188.94115597 115.21650011 -191.23388672 115.22460938 C-192.2791301 115.21329483 -193.32437347 115.20198029 -194.40129089 115.19032288 C-199.78496107 115.23385281 -199.78496107 115.23385281 -204.73382568 117.11984253 C-206.86198788 121.19195932 -206.6256019 125.05590321 -206.57177734 129.58447266 C-206.57557404 130.58646194 -206.57937073 131.58845123 -206.58328247 132.62080383 C-206.59069388 135.93371854 -206.56929947 139.24575696 -206.546875 142.55859375 C-206.5444912 144.85736996 -206.54358512 147.15614815 -206.5440979 149.45492554 C-206.54096905 154.27183227 -206.52439458 159.08844153 -206.49755859 163.90527344 C-206.46354063 170.09073693 -206.45593102 176.27587398 -206.45744896 182.46142006 C-206.45690614 187.20707333 -206.44595375 191.95265473 -206.43144608 196.69828415 C-206.42506654 198.97973461 -206.42113649 201.26119323 -206.41965866 203.54265213 C-206.4153401 206.72470341 -206.39787133 209.90640277 -206.37646484 213.08837891 C-206.37737122 214.03803024 -206.37827759 214.98768158 -206.37921143 215.96611023 C-206.36641647 217.26155006 -206.36641647 217.26155006 -206.35336304 218.5831604 C-206.35001135 219.33567896 -206.34665966 220.08819752 -206.34320641 220.86351967 C-206.24014795 222.95454607 -206.24014795 222.95454607 -204.0859375 224.70703125 C-199.98832111 224.60459084 -197.05387417 223.23215245 -193.5234375 221.33203125 C-180.18226914 214.48277071 -162.45797502 213.20693425 -148.0859375 217.70703125 C-131.85921366 223.13792663 -119.40340294 233.44548637 -111.6484375 248.70703125 C-108.81195294 254.61121705 -106.50956999 260.10389009 -106.0859375 266.70703125 C-106.0245459 267.66150146 -106.0245459 267.66150146 -105.96191406 268.63525391 C-104.98741833 286.39765347 -108.56469928 302.26002681 -120.4609375 316.01953125 C-131.07421851 327.19791209 -145.39736585 335.39407405 -161.0390625 336.17578125 C-163.13777956 336.20926703 -165.23698788 336.21907664 -167.3359375 336.20703125 C-168.43333252 336.20421143 -169.53072754 336.2013916 -170.66137695 336.19848633 C-180.7472598 335.9979762 -188.31110246 333.70060382 -197.2734375 329.0546875 C-200.19501628 327.65476433 -201.89613781 327.34248271 -205.0859375 327.70703125 C-207.24704525 329.868139 -206.24344384 334.93532652 -206.24707031 337.93676758 C-206.25451767 339.39038445 -206.25451767 339.39038445 -206.26211548 340.87336731 C-206.27678017 344.0952728 -206.28354659 347.31712905 -206.2890625 350.5390625 C-206.29481083 352.7700755 -206.3005686 355.00108848 -206.30633545 357.23210144 C-206.316858 361.91718782 -206.32269231 366.60225697 -206.32617188 371.28735352 C-206.33165627 377.2967266 -206.355678 383.30587306 -206.38414383 389.31517506 C-206.40275027 393.92621021 -206.40797477 398.53719059 -206.40950775 403.14826012 C-206.41253981 405.36388067 -206.42058683 407.57950014 -206.43369293 409.795084 C-206.45071004 412.89326923 -206.44888356 415.99089858 -206.44238281 419.08911133 C-206.4515976 420.00823303 -206.46081238 420.92735474 -206.4703064 421.87432861 C-206.46473724 422.71979752 -206.45916809 423.56526642 -206.45343018 424.43635559 C-206.45489674 425.16880399 -206.4563633 425.90125238 -206.4578743 426.65589619 C-205.95909702 429.40652363 -205.06628981 430.74232819 -203.0859375 432.70703125 C-200.84084764 433.29581292 -200.84084764 433.29581292 -198.28340149 433.18804932 C-197.29482147 433.19354797 -196.30624146 433.19904663 -195.28770447 433.20471191 C-194.20445389 433.19033081 -193.12120331 433.17594971 -192.00512695 433.16113281 C-190.86352112 433.16171692 -189.72191528 433.16230103 -188.54571533 433.16290283 C-184.76324307 433.16011077 -180.98155376 433.12896422 -177.19921875 433.09765625 C-174.5803419 433.0901979 -171.96145949 433.08450305 -169.34257507 433.08050537 C-163.14828683 433.06806911 -156.95428072 433.03523906 -150.76011676 432.99510741 C-143.70822608 432.95040964 -136.65632199 432.92840774 -129.60432494 432.90832567 C-115.0980502 432.86650676 -100.5919978 432.79614228 -86.0859375 432.70703125 C-86.75706553 429.11375434 -87.7479575 426.08023039 -89.1484375 422.70703125 C-93.35124729 410.26794587 -92.90134207 394.5173282 -87.0859375 382.70703125 C-79.20196252 367.42629324 -68.10254534 359.01509576 -52.10546875 352.95703125 C-38.64229542 348.82334903 -22.5202298 352.16175842 -10.2109375 358.39453125 C2.80209572 366.19062773 11.74536452 377.11658832 15.9140625 391.70703125 C18.88017838 403.55158795 17.15948907 415.47369453 12.9140625 426.70703125 C12.24292839 428.70553655 11.57568955 430.70535843 10.9140625 432.70703125 C25.8390096 432.82382155 40.7639213 432.91199819 55.68922806 432.96609211 C62.61930871 432.99187634 69.54910547 433.02703033 76.47900391 433.08422852 C83.16391667 433.13937834 89.84847325 433.16843437 96.53362274 433.18141747 C99.0869995 433.19067237 101.6403597 433.20874455 104.19361115 433.23568153 C107.76387233 433.27185777 111.33290603 433.27698112 114.90332031 433.2746582 C115.96427414 433.29263458 117.02522797 433.31061096 118.11833191 433.32913208 C123.71845671 433.32082756 123.71845671 433.32082756 128.5710907 430.80725098 C130.50665067 426.33905499 130.46127659 422.35932439 130.41235352 417.53588867 C130.41787231 416.5141304 130.42339111 415.49237213 130.42907715 414.43965149 C130.43839377 412.22383228 130.43850514 410.00795952 130.43048286 407.79213524 C130.41785816 404.28174998 130.42913945 400.77215166 130.44651794 397.26179504 C130.47324064 391.0719643 130.47881302 384.88232604 130.47741699 378.69244385 C130.47519033 368.79573496 130.48936199 358.89926501 130.53300285 349.00264931 C130.54282512 345.55048148 130.5341306 342.09869013 130.52430725 338.64653015 C130.53045392 336.51980343 130.53736647 334.39307873 130.54516602 332.26635742 C130.53358711 330.83451614 130.53358711 330.83451614 130.52177429 329.37374878 C130.58331441 321.21693112 132.37123257 314.40659951 138.0703125 308.31640625 C144.49293238 302.7102211 151.08184514 300.88720172 159.52734375 301.20703125 C166.23439794 302.19723071 172.24612196 304.98233135 178.33984375 307.84765625 C186.3507087 310.5219966 196.31107747 309.48701088 203.83984375 305.890625 C211.38402633 301.58575245 216.17815749 294.91474627 218.9140625 286.70703125 C219.88308176 276.12141576 219.32567756 267.66141902 212.9140625 258.70703125 C210.48917717 255.90595825 207.99399426 253.75841437 204.9140625 251.70703125 C204.27082031 251.27519531 203.62757813 250.84335937 202.96484375 250.3984375 C195.62706344 246.35916415 185.79929259 246.07284586 177.78808594 248.29736328 C174.43736004 249.45555236 171.25367369 250.83079141 168.0234375 252.296875 C161.3797806 255.30989025 154.23991506 256.03139813 147.18359375 253.87109375 C139.60909031 250.45626466 135.72616242 245.72325509 132.35874939 238.25993347 C130.43706351 233.03347648 130.50343389 228.0195661 130.54516602 222.50512695 C130.5395163 220.86219162 130.5395163 220.86219162 130.53375244 219.18606567 C130.52734042 216.81967841 130.5276307 214.45326537 130.53393745 212.08687782 C130.54306841 208.34193877 130.53280175 204.59749809 130.51731873 200.85258484 C130.48233635 191.55724807 130.47489699 182.26194494 130.47741699 172.96655273 C130.47927796 165.09974482 130.4654486 157.23322058 130.42893791 149.36647606 C130.41809698 145.67645806 130.43025003 141.98695293 130.44276428 138.29695129 C130.43386274 136.03821297 130.42378937 133.77947886 130.41235352 131.52075195 C130.42696877 129.98161888 130.42696877 129.98161888 130.44187927 128.41139221 C130.40062428 124.33595391 130.18488599 121.33799871 128.56690979 117.56842041 C124.29561443 114.57143566 120.06326381 115.03907861 114.97021484 115.11108398 C113.85427948 115.10702545 112.73834412 115.10296692 111.58859253 115.0987854 C109.1637509 115.09326229 106.73886196 115.09929301 104.31406784 115.11544609 C100.47129493 115.1408145 96.62959765 115.13608266 92.78677368 115.12355042 C85.31400613 115.10453262 77.8415986 115.11846785 70.36885071 115.13902283 C60.23251115 115.16586943 50.09654229 115.17205647 39.96019363 115.14402962 C36.18336876 115.14067682 32.40720892 115.16187077 28.63046265 115.18443298 C26.29839943 115.18192011 23.96633703 115.17835848 21.63427734 115.17358398 C20.59182861 115.18646957 19.54937988 115.19935516 18.4753418 115.21263123 C10.1749488 115.15622433 1.59513881 113.28588783 -4.703125 107.4375 C-9.55240007 101.3690569 -13.13971474 94.14886457 -12.609375 86.26953125 C-11.00360547 78.40845057 -6.96036559 71.17624067 -3.19921875 64.15625 C1.14311904 54.60310685 2.26547199 41.60150025 -1.37109375 31.6015625 C-6.09182338 20.78387137 -12.97055488 15.22538204 -23.5703125 10.65234375 C-36.99834641 5.60640554 -51.68225036 8.49439756 -63.0859375 16.70703125 Z " fill="#125991" transform="translate(433.0859375,290.29296875)"/>
<path d="M0 0 C1.96419891 -0.00911659 1.96419891 -0.00911659 3.96807861 -0.01841736 C5.39897729 0.00051164 6.82986528 0.02026305 8.26074219 0.04077148 C9.74126773 0.04502832 11.22179996 0.04735091 12.70233154 0.0478363 C15.81292828 0.05400605 18.92280626 0.07669667 22.03320312 0.11230469 C25.97310024 0.1571037 29.91233828 0.17230635 33.85246658 0.1760416 C36.91736068 0.18053105 39.98212309 0.19594654 43.04695892 0.21491814 C44.49625335 0.22366015 45.94556115 0.23045588 47.39487457 0.23507881 C60.61554365 0.29495946 74.24847729 0.78929503 86.80761719 5.28686523 C87.55720703 5.54814209 88.30679688 5.80941895 89.07910156 6.07861328 C100.27800115 10.14121838 109.13948154 16.20976564 117.55761719 24.59936523 C118.25628906 25.27483398 118.95496094 25.95030273 119.67480469 26.64624023 C136.23042275 43.78162702 140.94769979 68.5241661 140.80761719 91.47436523 C140.81535156 92.7337793 140.82308594 93.99319336 140.83105469 95.29077148 C140.80755211 106.72477494 139.73911385 118.05098824 136.43261719 129.03686523 C136.22088867 129.74077393 136.00916016 130.44468262 135.79101562 131.16992188 C131.86924308 143.47993014 125.73193613 153.47848893 116.55761719 162.59936523 C115.77386719 163.46561523 114.99011719 164.33186523 114.18261719 165.22436523 C94.31886715 183.19632955 69.88634863 187.92975102 43.85839844 187.90014648 C42.40585714 187.90404605 40.95331697 187.90838325 39.5007782 187.91313171 C36.4898199 187.92051379 33.47897911 187.92035693 30.46801758 187.91503906 C26.61004059 187.9091829 22.75253418 187.9263597 18.8946352 187.94938374 C15.9101023 187.96408492 12.92568474 187.96499899 9.94112206 187.96187401 C8.51734657 187.9623867 7.09356455 187.96761466 5.6698246 187.97768593 C3.69146005 187.98999301 1.7129984 187.98133748 -0.26538086 187.97167969 C-1.38897507 187.97230911 -2.51256927 187.97293854 -3.67021179 187.97358704 C-6.44238281 187.59936523 -6.44238281 187.59936523 -8.26594543 186.26359558 C-10.87681618 182.57016454 -10.57506936 178.95825253 -10.58955383 174.59060669 C-10.59323052 173.87286603 -10.59690721 173.15512537 -10.60069531 172.41563499 C-10.61173123 170.00437771 -10.61557579 167.59316352 -10.61938477 165.18188477 C-10.62564936 163.45558536 -10.63229616 161.7292873 -10.63929749 160.00299072 C-10.65670457 155.30877217 -10.66725795 150.61456381 -10.67550302 145.92032099 C-10.68065265 142.9886765 -10.68672832 140.05703517 -10.69301414 137.12539291 C-10.71206341 127.956113 -10.72629643 118.78684114 -10.73462611 109.61754525 C-10.74440565 99.02679619 -10.77074495 88.43625574 -10.81112701 77.84558022 C-10.84125901 69.66291725 -10.85609212 61.4803142 -10.85940713 53.29759681 C-10.86176047 48.40857114 -10.87075812 43.51976841 -10.8958683 38.63080215 C-10.91910381 34.03265161 -10.92340057 29.43487152 -10.91310692 24.83667755 C-10.91261038 23.14880264 -10.91896543 21.46090977 -10.93266296 19.77309036 C-10.95031646 17.46897766 -10.94330935 15.16620397 -10.93013 12.86209106 C-10.93251836 11.57271196 -10.93490671 10.28333286 -10.93736744 8.95488167 C-9.92164138 2.06924259 -6.64583988 -0.02928105 0 0 Z " fill="#125992" transform="translate(763.4423828125,644.400634765625)"/>
<path d="M0 0 C1.34322463 1.13422194 2.67710344 2.27963279 4 3.4375 C4.67160156 3.96730469 5.34320312 4.49710938 6.03515625 5.04296875 C19.61366462 16.05751986 28.78375008 33.96540366 30.79052734 51.2421875 C32.8849969 73.19261902 28.70730113 93.09202206 15.0625 110.75 C13.72634762 112.32793233 12.37284394 113.8913845 11 115.4375 C10.40832031 116.12328125 9.81664062 116.8090625 9.20703125 117.515625 C-2.67070036 130.3810571 -20.90564247 139.12962436 -38.27294922 140.74121094 C-41.64640111 140.87346417 -44.99914364 140.90574857 -48.375 140.875 C-49.56456299 140.86597656 -50.75412598 140.85695313 -51.97973633 140.84765625 C-69.60119083 140.49993587 -86.52141534 133.98633135 -100 122.4375 C-101.43859375 121.2928125 -101.43859375 121.2928125 -102.90625 120.125 C-117.80117605 107.66940133 -125.65095316 88.20962431 -128 69.4375 C-129.38838999 48.54336866 -123.83912119 28.62791234 -109.9765625 12.59765625 C-109.32429688 11.88480469 -108.67203125 11.17195313 -108 10.4375 C-107.40960938 9.75558594 -106.81921875 9.07367188 -106.2109375 8.37109375 C-79.24319582 -20.94915305 -31.16503565 -23.69396546 0 0 Z " fill="#3185C5" transform="translate(599,189.5625)"/>
<path d="M0 0 C1.82917969 -0.03673828 1.82917969 -0.03673828 3.6953125 -0.07421875 C15.04416227 -0.11138747 15.04416227 -0.11138747 19.625 4.375 C21.91870214 7.56740415 21.99814845 10.76327618 22.25 14.625 C22.36214844 16.24148438 22.36214844 16.24148438 22.4765625 17.890625 C22.52554688 18.71046875 22.57453125 19.5303125 22.625 20.375 C24.88474025 21.65365731 24.88474025 21.65365731 27.625 22.375 C29.88291518 21.35778728 29.88291518 21.35778728 31.8125 19.5625 C32.48667969 18.99917969 33.16085937 18.43585937 33.85546875 17.85546875 C34.43941406 17.36691406 35.02335937 16.87835937 35.625 16.375 C38.72940933 14.82279534 41.19693869 15.08662471 44.625 15.375 C47.43359375 17.0625 47.43359375 17.0625 50.0625 19.375 C51.46628906 20.60089844 51.46628906 20.60089844 52.8984375 21.8515625 C65.4043345 33.42578809 65.4043345 33.42578809 66 38.6875 C65.38394105 44.74541297 61.96603071 48.34404291 57.625 52.375 C59.02259905 55.92018884 59.02259905 55.92018884 60.625 59.375 C62.78292469 59.69186329 62.78292469 59.69186329 65.3125 59.75 C70.08903904 60.13266979 72.90005291 61.20879498 76.625 64.375 C79.99188459 69.42532689 79.03577901 75.31793919 79.0625 81.25 C79.09537109 82.53003906 79.12824219 83.81007813 79.16210938 85.12890625 C79.22245054 95.62826814 79.22245054 95.62826814 76.22265625 98.6953125 C72.41626885 101.15658556 70.52198491 101.49008122 66 101.4375 C64.49566406 101.42396484 64.49566406 101.42396484 62.9609375 101.41015625 C62.19007813 101.39855469 61.41921875 101.38695312 60.625 101.375 C59.09411661 105.29873651 59.09411661 105.29873651 58.625 109.375 C60.22809931 112.1469142 62.348548 114.15260623 64.625 116.375 C66.25523814 119.63547629 66.0923535 121.75301035 65.625 125.375 C63.68849027 128.42452031 61.1800376 130.8375228 58.625 133.375 C57.69905147 134.33452172 56.77465707 135.29554485 55.8515625 136.2578125 C46.37387346 146.01645129 46.37387346 146.01645129 40.75 146.75 C36.17390182 146.20086822 33.05587948 144.0348202 30.0625 140.5625 C29.588125 140.170625 29.11375 139.77875 28.625 139.375 C25.95020673 139.63595544 24.02404859 140.1754757 21.625 141.375 C21.05409175 144.37000283 20.72956755 147.36595787 20.3828125 150.39453125 C19.49740871 153.87681522 18.41520394 155.16651754 15.625 157.375 C10.49785256 159.08404915 5.11762602 158.64397871 -0.25 158.6875 C-1.43464844 158.71650391 -2.61929688 158.74550781 -3.83984375 158.77539062 C-4.98324219 158.78376953 -6.12664062 158.79214844 -7.3046875 158.80078125 C-8.87065674 158.82265503 -8.87065674 158.82265503 -10.46826172 158.8449707 C-14.10700657 158.25664685 -15.74485876 156.90380224 -18.375 154.375 C-20.08086649 151.30444031 -20.46400229 148.62568987 -20.75 145.1875 C-20.95182692 141.40184305 -20.95182692 141.40184305 -23.1875 139.8125 C-25.85202858 139.27959428 -26.87287235 139.27112016 -29.375 140.375 C-30.261875 141.220625 -31.14875 142.06625 -32.0625 142.9375 C-35.27134939 145.73204226 -37.87273141 145.9338727 -42.03125 145.94140625 C-48.27067304 144.43354568 -52.75992427 139.30028367 -57.125 134.875 C-57.70121094 134.30652344 -58.27742188 133.73804688 -58.87109375 133.15234375 C-59.42410156 132.59675781 -59.97710937 132.04117188 -60.546875 131.46875 C-61.2908252 130.72141602 -61.2908252 130.72141602 -62.04980469 129.95898438 C-64.30400758 127.26457237 -65.2959753 124.98085605 -65.75 121.5 C-65.0594857 115.74571418 -60.96226345 111.73096276 -57.375 107.375 C-58.035 105.725 -58.695 104.075 -59.375 102.375 C-60.17164063 102.36082031 -60.96828125 102.34664062 -61.7890625 102.33203125 C-71.5235628 101.89386031 -71.5235628 101.89386031 -75.0625 98.9375 C-79.85573339 93.62607922 -78.75157977 87.49539286 -78.875 80.625 C-78.92914063 79.34882812 -78.98328125 78.07265625 -79.0390625 76.7578125 C-79.17216112 67.65006433 -79.17216112 67.65006433 -76.98999023 64.15966797 C-74.19140599 61.55545658 -72.04757601 60.50254286 -68.28515625 59.7890625 C-67.34542969 59.85867188 -66.40570313 59.92828125 -65.4375 60 C-64.47972656 60.05414062 -63.52195312 60.10828125 -62.53515625 60.1640625 C-61.82230469 60.23367188 -61.10945313 60.30328125 -60.375 60.375 C-58.74772045 56.46326341 -58.74772045 56.46326341 -58.375 52.375 C-60.30170557 49.26845787 -62.7764087 46.91982735 -65.375 44.375 C-66.80804064 41.50891871 -66.68144155 39.56199217 -66.375 36.375 C-63.4024777 31.18968194 -59.49822077 27.2275082 -55.25 23.0625 C-54.61707031 22.43021484 -53.98414063 21.79792969 -53.33203125 21.14648438 C-48.87544733 16.73247929 -46.33640072 14.81903231 -39.90625 14.80859375 C-34.98080144 15.91073888 -31.74334615 19.80757902 -28.375 23.375 C-25.23102535 22.76748595 -25.23102535 22.76748595 -22.375 20.375 C-21.82747222 17.3435657 -21.74461314 14.40888167 -21.63671875 11.33203125 C-21.26684285 7.15298568 -20.19138414 5.4327885 -17.375 2.375 C-12.21167154 -0.93946355 -5.90982736 0.0062078 0 0 Z " fill="#3084C5" transform="translate(395.375,754.625)"/>
<path d="M0 0 C0.80610718 -0.0038269 1.61221436 -0.00765381 2.44274902 -0.01159668 C4.14397432 -0.0143139 5.84524153 -0.0069659 7.54638672 0.00976562 C10.14775896 0.0311801 12.74636972 0.00995981 15.34765625 -0.015625 C17.00261025 -0.01298169 18.65756254 -0.00785663 20.3125 0 C21.47670471 -0.01214539 21.47670471 -0.01214539 22.66442871 -0.02453613 C26.02164709 0.033645 28.21801183 0.2286051 31.01318359 2.15893555 C33.00153302 5.02978121 34.11615213 7.72304761 35.2890625 11.01953125 C35.53544464 11.70340408 35.78182678 12.38727692 36.03567505 13.09187317 C36.92220027 15.56723168 37.78941501 18.0489294 38.65625 20.53125 C39.38609063 22.59955342 40.1162543 24.66774286 40.84667969 26.73583984 C43.19432226 33.40173125 45.52068015 40.07498015 47.84494781 46.74904633 C49.96018393 52.81982453 52.08182139 58.88837117 54.203125 64.95703125 C54.55556211 65.96549103 54.55556211 65.96549103 54.91511917 66.99432373 C58.85321371 78.26072307 62.82812413 89.51366025 66.83651733 100.75524902 C67.77915462 103.40037018 68.71961569 106.04625527 69.65942383 108.69238281 C72.93459241 117.9100922 76.22686348 127.12126194 79.54431152 136.32385254 C81.34095793 141.31212338 83.12326034 146.30551019 84.90496826 151.2991333 C85.77447863 153.72782422 86.6489608 156.15474142 87.52862549 158.57977295 C88.751916 161.95370695 89.95785791 165.33338266 91.16015625 168.71484375 C91.53007187 169.72204971 91.89998749 170.72925568 92.28111267 171.76698303 C95.43220084 180.73077495 95.43220084 180.73077495 93.65625 185.53125 C88.7043148 188.83254013 82.77841618 187.90312267 76.9777832 187.90185547 C74.7298607 187.90622839 72.48390321 187.94255369 70.23632812 187.98046875 C68.8046942 187.98633737 67.37305097 187.99030646 65.94140625 187.9921875 C64.64082275 188.00040527 63.34023926 188.00862305 62.00024414 188.01708984 C58.65625 187.53125 58.65625 187.53125 56.37573242 185.99169922 C54.12661684 182.77338503 52.99001412 179.42072015 51.859375 175.703125 C51.64716309 175.03877441 51.43495117 174.37442383 51.21630859 173.68994141 C50.43278572 171.22462858 49.67076447 168.75252357 48.90625 166.28125 C47.17375 160.75375 45.44125 155.22625 43.65625 149.53125 C21.21625 149.53125 -1.22375 149.53125 -24.34375 149.53125 C-27.83706436 160.20871362 -27.83706436 160.20871362 -31.3137207 170.89160156 C-31.75672435 172.23522397 -32.20029038 173.57866115 -32.64453125 174.921875 C-32.86669312 175.61394043 -33.08885498 176.30600586 -33.31774902 177.01904297 C-34.52663141 180.64896623 -35.67418671 183.74196188 -38.34375 186.53125 C-43.32808289 188.1926943 -48.52061561 187.75634154 -53.74047852 187.77148438 C-55.77076034 187.7811998 -57.8000333 187.81224209 -59.83007812 187.84375 C-61.11205078 187.84890625 -62.39402344 187.8540625 -63.71484375 187.859375 C-64.88974365 187.8687207 -66.06464355 187.87806641 -67.27514648 187.88769531 C-70.7074435 187.4890038 -72.13409044 187.20257362 -74.34375 184.53125 C-75.08834404 178.90215373 -73.57630976 174.44307889 -71.6328125 169.265625 C-71.34922882 168.4832547 -71.06564514 167.7008844 -70.77346802 166.89480591 C-69.84913636 164.35294873 -68.9091008 161.81721948 -67.96875 159.28125 C-67.3222704 157.51223634 -66.67677043 155.74286439 -66.03222656 153.97314453 C-64.15144908 148.8201186 -62.25133735 143.67440409 -60.34375 138.53125 C-60.08903931 137.8443811 -59.83432861 137.15751221 -59.57189941 136.4498291 C-57.67784397 131.34540006 -55.77911061 126.24271428 -53.87548828 121.1418457 C-51.08161343 113.62218537 -48.43294231 106.06107354 -45.84375 98.46875 C-40.41293017 82.54555948 -34.69462831 66.72707446 -28.97021484 50.9074707 C-28.19618763 48.76777758 -27.42226044 46.62804826 -26.6484375 44.48828125 C-26.08520279 42.9309301 -26.08520279 42.9309301 -25.5105896 41.34211731 C-23.33615255 35.31773377 -21.19675299 29.28284118 -19.1015625 23.23046875 C-18.64071615 21.90695068 -18.17978319 20.58346276 -17.71875 19.26000977 C-16.91480079 16.9422179 -16.11978039 14.62129939 -15.3359375 12.29663086 C-14.99046875 11.3041333 -14.645 10.31163574 -14.2890625 9.2890625 C-14.00562988 8.4552002 -13.72219727 7.62133789 -13.43017578 6.76220703 C-10.36029996 0.45826877 -6.60588475 -0.06891487 0 0 Z " fill="#125A92" transform="translate(649.34375,644.46875)"/>
<path d="M0 0 C3.3 0 6.6 0 10 0 C10.01417969 0.73605469 10.02835937 1.47210937 10.04296875 2.23046875 C10.11451172 3.69419922 10.11451172 3.69419922 10.1875 5.1875 C10.23970703 6.63189453 10.23970703 6.63189453 10.29296875 8.10546875 C11.3682191 12.50746052 13.89135806 14.71672622 17.71899414 17.04614258 C19.59848441 18.04063862 21.49976674 18.93733233 23.4375 19.8125 C24.08009766 20.12380859 24.72269531 20.43511719 25.38476562 20.75585938 C29.39876518 22.61004191 32.59280945 23.65769789 37 23 C39.39612561 21.53311163 39.39612561 21.53311163 41.375 19.5 C42.06335938 18.8503125 42.75171875 18.200625 43.4609375 17.53125 C43.96882813 17.0259375 44.47671875 16.520625 45 16 C49.875 20.75 49.875 20.75 51 23 C50.55527344 23.56847656 50.11054688 24.13695312 49.65234375 24.72265625 C49.08644531 25.49480469 48.52054687 26.26695312 47.9375 27.0625 C47.36902344 27.81660156 46.80054688 28.57070313 46.21484375 29.34765625 C44.53675329 33.01139716 45.07037131 35.11056697 46 39 C46.92407697 41.44670381 47.92630606 43.86516057 49 46.25 C51.96202532 52.88607595 51.96202532 52.88607595 53 56 C57.29 56.66 61.58 57.32 66 58 C66 60.97 66 63.94 66 67 C65.32453125 67.09796875 64.6490625 67.1959375 63.953125 67.296875 C63.06109375 67.44640625 62.1690625 67.5959375 61.25 67.75 C60.36828125 67.88921875 59.4865625 68.0284375 58.578125 68.171875 C54.01835682 69.63652781 52.37091106 72.35072055 50.04296875 76.42578125 C49.41518795 77.71687761 48.79686376 79.01260987 48.1875 80.3125 C47.86330078 80.95123047 47.53910156 81.58996094 47.20507812 82.24804688 C45.0327478 86.83924609 44.65461866 89.93647386 46 95 C47.09431026 97.00007665 47.09431026 97.00007665 48.5625 98.4375 C49.366875 99.283125 50.17125 100.12875 51 101 C49.60667426 104.36720387 48.0210714 105.9859524 45 108 C44.5875 107.566875 44.175 107.13375 43.75 106.6875 C43.1725 106.130625 42.595 105.57375 42 105 C41.443125 104.443125 40.88625 103.88625 40.3125 103.3125 C36.90197371 101.37679589 33.77379584 101.41803961 30 102 C27.06770692 102.95284157 24.41229369 104.254346 21.6875 105.6875 C20.98560547 106.02716797 20.28371094 106.36683594 19.56054688 106.71679688 C15.40500278 108.83616398 12.91233533 110.55663263 11 115 C10.28076792 118.69523952 10.28076792 118.69523952 10 122 C7.03 122 4.06 122 1 122 C0.92523438 121.25234375 0.85046875 120.5046875 0.7734375 119.734375 C0.64195312 118.74953125 0.51046875 117.7646875 0.375 116.75 C0.25898438 115.77546875 0.14296875 114.8009375 0.0234375 113.796875 C-1.77303232 108.8874384 -6.00129433 107.49991454 -10.47265625 105.26171875 C-11.65730469 104.74222656 -12.84195313 104.22273437 -14.0625 103.6875 C-15.84333984 102.88892578 -15.84333984 102.88892578 -17.66015625 102.07421875 C-21.16025258 100.94845677 -22.59725334 100.7481534 -26 102 C-28.26737596 103.37103493 -28.26737596 103.37103493 -30.3125 105.0625 C-31.00988281 105.61035156 -31.70726562 106.15820312 -32.42578125 106.72265625 C-32.94527344 107.14417969 -33.46476562 107.56570313 -34 108 C-35.98 106.02 -37.96 104.04 -40 102 C-38.85286634 99.41894927 -37.77984537 97.76726511 -35.8125 95.6875 C-33.67602266 93.10369805 -33.67602266 93.10369805 -34.17578125 89.8515625 C-35.10787966 85.49587989 -36.55900689 81.73596398 -38.375 77.6875 C-38.83132813 76.61532227 -38.83132813 76.61532227 -39.296875 75.52148438 C-40.85786115 71.982582 -41.71629512 70.18913659 -45 68 C-47.50896686 67.54398739 -47.50896686 67.54398739 -50.1875 67.375 C-51.08855469 67.30023437 -51.98960937 67.22546875 -52.91796875 67.1484375 C-53.94857422 67.07496094 -53.94857422 67.07496094 -55 67 C-55 64.03 -55 61.06 -55 58 C-53.5975 57.87625 -52.195 57.7525 -50.75 57.625 C-47.37508466 57.32721335 -44.75526342 57.03867274 -42 55 C-40.55971329 52.46778861 -39.37270423 50.10418699 -38.25 47.4375 C-37.94360596 46.71240234 -37.63721191 45.98730469 -37.3215332 45.24023438 C-34.26957448 37.80371714 -34.26957448 37.80371714 -35 30 C-36.7299565 27.06056102 -38.6994388 24.51281536 -41 22 C-39.35 20.35 -37.7 18.7 -36 17 C-33.45415519 18.17500529 -31.44445557 19.41974468 -29.1875 21.125 C-25.2611379 23.43462477 -23.51880869 23.45783269 -19 23 C-15.88432573 21.80939142 -13.02907847 20.25729238 -10.125 18.625 C-9.35414063 18.2125 -8.58328125 17.8 -7.7890625 17.375 C-3.70644747 15.39440766 -3.70644747 15.39440766 -1 12 C-0.77141886 9.9625237 -0.58975722 7.91959697 -0.4375 5.875 C-0.35371094 4.77929688 -0.26992188 3.68359375 -0.18359375 2.5546875 C-0.09271484 1.29011719 -0.09271484 1.29011719 0 0 Z " fill="#EFEFF0" transform="translate(390,773)"/>
<path d="M0 0 C45.48894349 0 45.48894349 0 60.65234375 14.58984375 C68.16388604 22.71301289 70.99545174 32.32713494 73 43 C73.18433594 43.9590625 73.36867188 44.918125 73.55859375 45.90625 C76.07466694 63.54102847 73.17849391 82.18161769 63 97 C56.32035196 105.7282658 47.02712629 110.25843104 36.5 112.875 C24.43278923 114.47213084 12.1724444 114 0 114 C0 76.38 0 38.76 0 0 Z " fill="#EFEFEF" transform="translate(791,681)"/>
<path d="M0 0 C8.76317968 6.34768785 14.71117893 14.33657779 17 25 C18.11443556 34.54140031 15.86320528 43.36006585 10 51 C9.46375 51.825 8.9275 52.65 8.375 53.5 C1.46222114 60.77660932 -7.33364091 63.9810861 -17.1875 64.4375 C-27.41734171 64.23783604 -35.75596227 60.29691401 -43.09375 53.23828125 C-49.11827008 46.16440829 -52.60546631 36.51920961 -52.3125 27.19921875 C-50.83443191 16.79731454 -45.16201286 7.82406486 -37.0234375 1.3203125 C-26.08562381 -5.81671651 -11.31084596 -6.8017925 0 0 Z " fill="#3085C5" transform="translate(413,805)"/>
<path d="M0 0 C4.28210179 2.33569189 4.28210179 2.33569189 6 5 C8.14052085 14.07787154 3.44727587 23.71117325 0.4375 32.125 C-0.15049293 33.801331 -0.73771669 35.47793196 -1.32421875 37.15478516 C-9.81986089 61.3166482 -18.81198769 85.31465014 -28.34521484 109.08648682 C-28.89956312 110.46926441 -29.45154912 111.85299175 -30.00097656 113.23773193 C-30.75585154 115.13479963 -31.52410966 117.02652545 -32.29296875 118.91796875 C-32.7211792 119.97781982 -33.14938965 121.0376709 -33.59057617 122.12963867 C-35.33529599 125.68284687 -37.18314038 129.24869423 -40.96484375 130.8125 C-45.56923504 131.25014511 -48.25985639 131.08011826 -52 128 C-54.50454745 124.24317883 -54.52645562 121.34631276 -54 117 C-53.16054745 113.91570385 -51.97778141 111.02130067 -50.73828125 108.078125 C-50.39626678 107.23303879 -50.05425232 106.38795258 -49.70187378 105.51725769 C-48.96632784 103.70220614 -48.22489187 101.88953234 -47.4781189 100.07907104 C-45.48802109 95.24890907 -43.5465185 90.39925705 -41.6015625 85.55078125 C-41.20770859 84.5715419 -40.81385468 83.59230255 -40.4080658 82.58338928 C-36.80922359 73.60198855 -33.4454118 64.54731161 -30.1875 55.4375 C-29.92869049 54.71735718 -29.66988098 53.99721436 -29.40322876 53.25524902 C-26.7194097 45.78305373 -24.09017249 38.29397334 -21.53401184 30.77711487 C-20.45521783 27.60789248 -19.36597132 24.44229782 -18.27676392 21.27664185 C-17.51963683 19.0575542 -16.78125073 16.83283369 -16.04370117 14.60717773 C-15.58206186 13.25866246 -15.11962224 11.9104208 -14.65625 10.5625 C-14.26244141 9.38816406 -13.86863281 8.21382812 -13.46289062 7.00390625 C-10.51478158 0.95024574 -6.60526038 -1.04293585 0 0 Z " fill="#3085C5" transform="translate(307,164)"/>
<path d="M0 0 C3 2 3 2 5 5 C5.84827477 9.3120634 6.03303172 11.44038109 3.59765625 15.1171875 C1.8129229 17.18700955 -0.03745783 19.09819414 -2 21 C-5.78951077 24.7455926 -9.45113213 28.58427786 -13.0625 32.5 C-13.57876953 33.05558594 -14.09503906 33.61117187 -14.62695312 34.18359375 C-15.13291016 34.73144531 -15.63886719 35.27929688 -16.16015625 35.84375 C-16.61011963 36.33037109 -17.06008301 36.81699219 -17.52368164 37.31835938 C-19.42631736 39.4856084 -21.21049987 41.73897318 -23 44 C-22.15703369 44.83772949 -21.31406738 45.67545898 -20.44555664 46.53857422 C-17.32519605 49.64086448 -14.20812177 52.74643873 -11.09204102 55.85302734 C-9.74170225 57.19833056 -8.39046825 58.54273581 -7.03833008 59.88623047 C-5.09742173 61.81503928 -3.15973265 63.74703131 -1.22265625 65.6796875 C-0.61535172 66.28183075 -0.00804718 66.883974 0.61766052 67.50436401 C5.82410556 72.71010746 5.82410556 72.71010746 6.375 76.75 C5.97374678 80.2275279 5.09509142 82.27531931 2.6796875 84.84765625 C-0.03165829 86.70776557 -2.32514523 86.90097159 -5.55845642 86.61125183 C-8.41422705 85.89629632 -9.67287139 84.89929547 -11.82250977 82.91137695 C-12.5135379 82.27672516 -13.20456604 81.64207336 -13.91653442 80.9881897 C-17.15713027 77.89578474 -20.364971 74.77794372 -23.52734375 71.60546875 C-24.53892296 70.59532463 -24.53892296 70.59532463 -25.57093811 69.56477356 C-26.97959068 68.1567956 -28.38700499 66.74757776 -29.79321289 65.3371582 C-31.95279773 63.17216396 -34.11773882 61.01262744 -36.28320312 58.85351562 C-37.6565712 57.47948763 -39.02962951 56.10514994 -40.40234375 54.73046875 C-41.05017319 54.08466354 -41.69800262 53.43885834 -42.36546326 52.77348328 C-43.25758263 51.87663567 -43.25758263 51.87663567 -44.16772461 50.96166992 C-44.95426674 50.1739344 -44.95426674 50.1739344 -45.75669861 49.37028503 C-47.51516846 47.4322152 -47.99658614 46.01749604 -48.5 43.4375 C-47.27767882 35.03404188 -38.39577255 28.10851361 -32.5625 22.375 C-31.85029297 21.6634375 -31.13808594 20.951875 -30.40429688 20.21875 C-26.30790404 16.15584267 -22.10185531 12.27814658 -17.73022461 8.51367188 C-16.36198083 7.31667576 -15.04555645 6.06046963 -13.75 4.78515625 C-9.16668303 0.27345361 -6.44524111 -1.26791628 0 0 Z " fill="#3084C5" transform="translate(238,188)"/>
<path d="M0 0 C7.45892045 4.55731035 13.50318924 11.2958976 19.5625 17.5 C25.01871709 23.0624304 30.4274985 28.55740821 36.42163086 33.54492188 C39.19537128 36.10199735 39.98411701 37.89764294 40.5625 41.625 C40.22593113 51.63397096 27.5663504 60.63514276 20.8125 67.25 C19.18673843 68.84795217 17.56256809 70.44744608 15.94132996 72.04998779 C14.47960978 73.49407291 13.01302314 74.93322733 11.54614258 76.37207031 C8.97714902 78.93636321 8.97714902 78.93636321 6.8503418 81.71386719 C5 84 5 84 2 86 C-4.94677871 86.67226891 -4.94677871 86.67226891 -8.9375 84.125 C-11.47317183 81.51248963 -11.92173956 80.48912777 -12.5 76.875 C-11.31966606 67.72741195 -0.36069561 60.24149366 5.9375 54 C6.9175531 53.02497614 7.8973724 52.0497172 8.87695312 51.07421875 C11.24902313 48.71383382 13.6234086 46.35583095 16 44 C10.64602018 37.47854246 4.68698091 31.60578929 -1.3125 25.6875 C-3.31146617 23.71511498 -5.3070922 21.73943603 -7.30078125 19.76171875 C-8.17903564 18.89506592 -9.05729004 18.02841309 -9.9621582 17.13549805 C-12.58214307 14.38995982 -12.95162093 13.51281818 -13.3125 9.6875 C-12.95124058 5.42463889 -11.98007946 3.98007946 -9 1 C-5.72555456 -0.63722272 -3.64878324 -0.46333755 0 0 Z " fill="#2F84C5" transform="translate(335,188)"/>
<path d="M0 0 C0.66 0 1.32 0 2 0 C4.16932192 6.77269519 6.33803002 13.54558673 8.50634766 20.31860352 C9.24123844 22.61389422 9.97626042 24.90914293 10.71142578 27.2043457 C12.81632124 33.77604184 14.91840381 40.34862552 17.01672363 46.92242432 C17.96305789 49.88437418 18.91259992 52.84528185 19.86230469 55.80615234 C20.41621073 57.54127887 20.96993375 59.27646385 21.5234375 61.01171875 C21.7773526 61.80028763 22.0312677 62.58885651 22.2928772 63.40132141 C24 68.77192718 24 68.77192718 24 71 C8.82 71 -6.36 71 -22 71 C-20.81442778 65.66492503 -19.73362454 60.82574892 -18.04467773 55.7175293 C-17.6676622 54.56991623 -17.29064667 53.42230316 -16.90220642 52.23991394 C-16.29899315 50.42539482 -16.29899315 50.42539482 -15.68359375 48.57421875 C-15.26244403 47.29642815 -14.84172109 46.01849681 -14.42140198 44.74043274 C-13.32241134 41.40191169 -12.21851851 38.06503418 -11.11328125 34.72857666 C-9.33996421 29.37258901 -7.57412206 24.01413308 -5.80845833 18.65561867 C-5.19347969 16.791682 -4.57618214 14.92851093 -3.95884705 13.06535339 C-3.58498367 11.93350113 -3.2111203 10.80164886 -2.82592773 9.63549805 C-2.4966478 8.64116257 -2.16736786 7.64682709 -1.82810974 6.62236023 C-1.13417803 4.42489915 -0.5251916 2.24267134 0 0 Z " fill="#EEEEEF" transform="translate(658,689)"/>
<path d="M0 0 C12.87 0 25.74 0 39 0 C40.21198579 2.42397158 40.12923765 3.98498758 40.1328125 6.69140625 C40.13474609 8.10969727 40.13474609 8.10969727 40.13671875 9.55664062 C40.13285156 10.54857422 40.12898437 11.54050781 40.125 12.5625 C40.13080078 14.00979492 40.13080078 14.00979492 40.13671875 15.48632812 C40.11457277 31.88542723 40.11457277 31.88542723 38 34 C35.26105915 34.08858646 32.5474673 34.11523479 29.80859375 34.09765625 C28.98875504 34.0962413 28.16891632 34.09482635 27.32423401 34.09336853 C24.69528618 34.08775289 22.06642227 34.07519779 19.4375 34.0625 C17.65950643 34.05748701 15.88151154 34.05292376 14.10351562 34.04882812 C9.73564455 34.03777839 5.36783652 34.02050331 1 34 C-0.17942085 30.46173745 -0.11289189 27.65851274 -0.09765625 23.92578125 C-0.09515869 22.67450439 -0.09266113 21.42322754 -0.09008789 20.1340332 C-0.08098389 18.54292725 -0.07187988 16.95182129 -0.0625 15.3125 C-0.041875 10.259375 -0.02125 5.20625 0 0 Z " fill="#EEEFF0" transform="translate(531,236)"/>
<path d="M0 0 C5.1513225 3.51226534 8.54166716 7.7125025 9.75 13.875 C10.11365444 19.45449806 9.06826743 23.01946812 5.4375 27.3125 C2.5302411 30.43417713 -0.05909387 32.56317048 -4.36328125 33.17578125 C-10.16242713 33.20668256 -15.24317228 32.65053328 -19.72265625 28.515625 C-23.33314027 24.43146232 -24.98209502 20.90342339 -25.6875 15.5625 C-24.97144441 9.52717435 -22.02019967 5.51875684 -17.625 1.4375 C-12.2028913 -2.12967678 -6.00241138 -2.07775778 0 0 Z " fill="#EEEFEF" transform="translate(403.25,819.125)"/>
<path d="M0 0 C7.92 0 15.84 0 24 0 C24.33 11.22 24.66 22.44 25 34 C17.08 34 9.16 34 1 34 C-2.37876131 24.98996984 -2.37876131 24.98996984 -2.36328125 21.0546875 C-2.36263672 20.20519531 -2.36199219 19.35570312 -2.36132812 18.48046875 C-2.34521484 17.62066406 -2.32910156 16.76085937 -2.3125 15.875 C-2.31572266 15.00746094 -2.31894531 14.13992187 -2.32226562 13.24609375 C-2.27916483 8.09750824 -1.71060876 5.13182627 0 0 Z " fill="#EEEFEF" transform="translate(490,236)"/>
<path d="M0 0 C7.59 0 15.18 0 23 0 C24.88059835 3.7611967 25.25518067 4.99303688 25.265625 8.95703125 C25.26949219 10.37918945 25.26949219 10.37918945 25.2734375 11.83007812 C25.26570312 12.81427734 25.25796875 13.79847656 25.25 14.8125 C25.25773438 15.78509766 25.26546875 16.75769531 25.2734375 17.75976562 C25.27085937 18.71173828 25.26828125 19.66371094 25.265625 20.64453125 C25.26336914 21.50409424 25.26111328 22.36365723 25.25878906 23.24926758 C25 26 25 26 23 33 C15.08 33 7.16 33 -1 33 C-0.67 22.11 -0.34 11.22 0 0 Z " fill="#F0F0F0" transform="translate(588,236)"/>
<path d="M0 0 C8.68537211 6.07818988 12.01776127 17.08880637 14 27 C3.11 27 -7.78 27 -19 27 C-11.22203561 -1.51920278 -11.22203561 -1.51920278 0 0 Z " fill="#F0F0F0" transform="translate(553,192)"/>
<path d="M0 0 C10.23 0 20.46 0 31 0 C25.38227147 20.59833795 25.38227147 20.59833795 18 26 C15.0625 26.75 15.0625 26.75 12 26 C4.1559636 20.28619684 1.50185456 9.01112739 0 0 Z " fill="#EFEFF0" transform="translate(535,286)"/>
<path d="M0 0 C25 0 25 0 30 1 C30 1.33 30 1.66 30 2 C20.76 2 11.52 2 2 2 C2 38.63 2 75.26 2 113 C10.415 112.505 10.415 112.505 19 112 C23.67397109 111.96376767 28.32927164 111.93338105 33 112 C33 112.33 33 112.66 33 113 C22.20866128 115.15826774 11.00504935 114 0 114 C0 76.38 0 38.76 0 0 Z " fill="#D0DBE4" transform="translate(791,681)"/>
<path d="M0 0 C11.17175831 3.72391944 19.45534279 11.29850814 26 21 C26 21.33 26 21.66 26 22 C19.73 22 13.46 22 7 22 C4.69 14.74 2.38 7.48 0 0 Z " fill="#F0F1F1" transform="translate(577,197)"/>
<path d="M0 0 C6.27 0 12.54 0 19 0 C13.93032441 10.13935117 4.62971341 17.22054634 -6 21 C-5.21512221 16.42605705 -3.84440634 12.09808612 -2.4375 7.6875 C-1.633125 5.150625 -0.82875 2.61375 0 0 Z " fill="#EEEFF0" transform="translate(583,287)"/>
<path d="M0 0 C-1.88641839 7.0372771 -3.87865 14.02985 -6 21 C-12.27 21 -18.54 21 -25 21 C-19.9152636 13.3728954 -10.31031398 0 0 0 Z " fill="#F2F1F1" transform="translate(523,198)"/>
<path d="M0 0 C6.27 0 12.54 0 19 0 C20.98 6.93 22.96 13.86 25 21 C18.24888227 18.74962742 18.24888227 18.74962742 14.9375 16.125 C14.25816406 15.59003906 13.57882812 15.05507813 12.87890625 14.50390625 C12.25886719 14.00761719 11.63882812 13.51132812 11 13 C10.13375 12.360625 9.2675 11.72125 8.375 11.0625 C5.24843123 8.34732186 2.41652055 5.3715029 0 2 C0 1.34 0 0.68 0 0 Z " fill="#EDEEEF" transform="translate(499,286)"/>
<path d="M0 0 C1.06734375 -0.01224609 2.1346875 -0.02449219 3.234375 -0.03710938 C4.25789062 -0.03904297 5.28140625 -0.04097656 6.3359375 -0.04296875 C7.74818604 -0.04913208 7.74818604 -0.04913208 9.18896484 -0.05541992 C11.625 0.1875 11.625 0.1875 14.625 2.1875 C14.295 3.5075 13.965 4.8275 13.625 6.1875 C13.295 5.1975 12.965 4.2075 12.625 3.1875 C1.24 2.6925 1.24 2.6925 -10.375 2.1875 C-10.375 11.0975 -10.375 20.0075 -10.375 29.1875 C-10.705 29.1875 -11.035 29.1875 -11.375 29.1875 C-11.54229064 25.21842526 -11.70288226 21.24914279 -11.85717773 17.27954102 C-11.91065802 15.92822921 -11.96599194 14.57698948 -12.02319336 13.22583008 C-12.10493571 11.28747011 -12.17953323 9.34881296 -12.25390625 7.41015625 C-12.3010376 6.24234619 -12.34816895 5.07453613 -12.39672852 3.87133789 C-12.34712766 -2.25520349 -4.70250481 0.00281925 0 0 Z " fill="#3B8BC7" transform="translate(598.375,233.8125)"/>
<path d="M0 0 C10.23 0 20.46 0 31 0 C30.34 2.31 29.68 4.62 29 7 C28.67 6.01 28.34 5.02 28 4 C28.33 3.34 28.66 2.68 29 2 C20.09 2 11.18 2 2 2 C2.66 4.97 3.32 7.94 4 11 C2 9 2 9 0 0 Z " fill="#E2EAEE" transform="translate(535,286)"/>
<path d="M0 0 C2 3 2 3 2 5 C-5.92 5 -13.84 5 -22 5 C-22.33 3.68 -22.66 2.36 -23 1 C-22.67 1.66 -22.34 2.32 -22 3 C-14.74 3 -7.48 3 0 3 C0 2.01 0 1.02 0 0 Z " fill="#D6E3EC" transform="translate(513,265)"/>
<path d="M0 0 C6.27 0 12.54 0 19 0 C19 1.65 19 3.3 19 5 C18.67 4.01 18.34 3.02 18 2 C13.38 2.33 8.76 2.66 4 3 C4.66 4.32 5.32 5.64 6 7 C3.95880212 5.38405168 1.95927063 3.7143618 0 2 C0 1.34 0 0.68 0 0 Z " fill="#E0E9ED" transform="translate(499,286)"/>
<path d="M0 0 C6.93 0 13.86 0 21 0 C21 0.99 21 1.98 21 3 C13.74 2.67 6.48 2.34 -1 2 C-0.67 1.34 -0.34 0.68 0 0 Z " fill="#FBF8F4" transform="translate(493,236)"/>
<path d="M0 0 C0.66 0.33 1.32 0.66 2 1 C1.67 1.99 1.34 2.98 1 4 C-5.6 4 -12.2 4 -19 4 C-19.33 3.34 -19.66 2.68 -20 2 C-13.4 2 -6.8 2 0 2 C0 1.34 0 0.68 0 0 Z " fill="#1B7AC1" transform="translate(603,217)"/>
<path d="M0 0 C3.3 0 6.6 0 10 0 C10 2.97 10 5.94 10 9 C7.03 9 4.06 9 1 9 C1 8.67 1 8.34 1 8 C3.31 8 5.62 8 8 8 C8 6.02 8 4.04 8 2 C7.05125 2.04125 6.1025 2.0825 5.125 2.125 C2 2 2 2 0 0 Z " fill="#F9F8F5" transform="translate(446,831)"/>
<path d="M0 0 C0.66 0.33 1.32 0.66 2 1 C1.37351563 1.65226563 0.74703125 2.30453125 0.1015625 2.9765625 C-0.71570313 3.85054687 -1.53296875 4.72453125 -2.375 5.625 C-3.59316406 6.91277344 -3.59316406 6.91277344 -4.8359375 8.2265625 C-7.08732405 11.11191349 -8.06276852 13.48795677 -9 17 C-9.66 17 -10.32 17 -11 17 C-10.6251114 11.62393788 -8.60545454 8.8383625 -4.9375 5.125 C-4.46505859 4.62742188 -3.99261719 4.12984375 -3.50585938 3.6171875 C-2.34813535 2.40099256 -1.17552754 1.19899543 0 0 Z " fill="#297DC2" transform="translate(201,215)"/>
<path d="M0 0 C0 4.07211906 -1.5535064 5.1414603 -4.25 8.125 C-5.43335938 9.45917969 -5.43335938 9.45917969 -6.640625 10.8203125 C-8.90987032 12.9167345 -9.99179674 13.65502256 -13 14 C-10.2193099 10.39540172 -7.25839264 7.17693282 -4 4 C-3.236875 3.236875 -2.47375 2.47375 -1.6875 1.6875 C-1.130625 1.130625 -0.57375 0.57375 0 0 Z " fill="#237CC1" transform="translate(602,288)"/>
<path d="M0 0 C0.99 0 1.98 0 3 0 C3 4.29 3 8.58 3 13 C2.01 13.495 2.01 13.495 1 14 C0.06380187 10.84493858 -0.1057123 8.03413498 -0.0625 4.75 C-0.05347656 3.85796875 -0.04445313 2.9659375 -0.03515625 2.046875 C-0.02355469 1.37140625 -0.01195312 0.6959375 0 0 Z " fill="#E1E8ED" transform="translate(568,238)"/>
<path d="M0 0 C3.3 0 6.6 0 10 0 C10 0.33 10 0.66 10 1 C7.36 1.33 4.72 1.66 2 2 C2 3.65 2 5.3 2 7 C3.32 7.33 4.64 7.66 6 8 C4.02 8 2.04 8 0 8 C0 5.36 0 2.72 0 0 Z " fill="#F7F7F4" transform="translate(335,831)"/>
<path d="M0 0 C2.37731095 2.82924767 3 3.58932898 3 7.4375 C1.8380216 11.57704804 0.24239854 13.25643201 -3 16 C-3.66 15.67 -4.32 15.34 -5 15 C-4.175 14.38125 -3.35 13.7625 -2.5 13.125 C-0.50986993 11.19092993 -0.03081956 10.23749193 0.33203125 7.44140625 C0.31432259 4.9444847 0.21731991 2.48710565 0 0 Z " fill="#1775BF" transform="translate(354,857)"/>
<path d="M0 0 C-2.34591852 2.7710688 -4.14776201 3.52059284 -7.6875 4.1875 C-8.49574219 4.34605469 -9.30398438 4.50460937 -10.13671875 4.66796875 C-11.05904297 4.83232422 -11.05904297 4.83232422 -12 5 C-12 4.01 -12 3.02 -12 2 C-10.37787941 1.47026689 -8.75218416 0.95146893 -7.125 0.4375 C-6.22007812 0.14746094 -5.31515625 -0.14257812 -4.3828125 -0.44140625 C-2 -1 -2 -1 0 0 Z " fill="#E3E9ED" transform="translate(853,826)"/>
<path d="M0 0 C0.33 0.66 0.66 1.32 1 2 C0.0625 4.125 0.0625 4.125 -1 6 C-1.66 6 -2.32 6 -3 6 C-3 8.31 -3 10.62 -3 13 C-3.66 12.34 -4.32 11.68 -5 11 C-4.7831713 6.12135417 -3.25135812 3.56600568 0 0 Z " fill="#1F78BF" transform="translate(439,798)"/>
<path d="M0 0 C0.66 0.66 1.32 1.32 2 2 C4.10820797 1.6814823 4.10820797 1.6814823 6 1 C3.64722731 3.72426311 1.37503669 4.8141763 -2 6 C-1.125 1.125 -1.125 1.125 0 0 Z " fill="#F2F5F5" transform="translate(579,302)"/>
<path d="M0 0 C0 2.97 0 5.94 0 9 C-0.33 8.34 -0.66 7.68 -1 7 C-1.66 7 -2.32 7 -3 7 C-3 5.02 -3 3.04 -3 1 C-1 0 -1 0 0 0 Z " fill="#DFE7EC" transform="translate(491,241)"/>
<path d="M0 0 C2.08954032 4.17908064 2.16552619 4.80410573 1 9 C0.01 9 -0.98 9 -2 9 C-1.34 6.03 -0.68 3.06 0 0 Z " fill="#E2EBEF" transform="translate(536,210)"/>
</svg>
